<svg id="Layer_1" height="512" viewBox="0 0 512 512" width="512" xmlns="http://www.w3.org/2000/svg" data-name="Layer 1"><path d="m199.26 151.05s-1.75-15.61-2.41-33.13a126.926 126.926 0 0 0 -13.85-1.98l-102.09 55.72s-39.62 38.87-38.49 100.25c1.59 86.74 66.85 199.44 211.79 175.83v-.01c-117.92-18.22-126.76-212.04-54.95-296.68z" fill="#eaac59"/><path d="m72.42 271.91q-.027-1.439-.023-2.861c.1-47.489 26.739-90.963 68.424-113.714l56.334-30.747c-.116-2.171-.22-4.4-.305-6.668a126.926 126.926 0 0 0 -13.85-1.98l-102.09 55.72s-39.62 38.87-38.49 100.25c1.5 82.085 60.043 187.4 189.157 178.455-108.224-7.965-157.777-103.02-159.157-178.455z" fill="#d19854"/><path d="m276.88 111.91a96.625 96.625 0 0 0 -48.61 14.05 118.666 118.666 0 0 0 -29.01 25.09c-71.81 84.64-62.97 278.46 54.95 296.68a132.442 132.442 0 0 0 39.82-.24c1.56-.23 16.43-3.5 24.31-6.7l60.63-252.46c-17.1-39.88-58.62-77.29-102.09-76.42z" fill="#dda35e"/><path d="m183 115.94a25.629 25.629 0 0 1 -1.71 8.86c-6.23 16.36-25.66 49.63-80.02 46.69a159.17 159.17 0 0 0 -20.36.17c-28.4 2.11-47.2 11.95-58.29 20.23a3.525 3.525 0 0 1 -5.56-3.48c11.25-60.78 66.75-170.75 141.08-112.65 5.15 4.02 16.42 15.71 22.46 28.81a26.011 26.011 0 0 1 2.4 11.37z" fill="#72af7c"/><path d="m490.38 265.91c-27.44-94.98-75.91-97.4-111.41-77.58a107.493 107.493 0 0 0 -15.14 10.3l1.8 254.04c86.75-1.06 146.92-109.99 124.75-186.76z" fill="#c68136"/><path d="m363.83 198.63c-35.47-28.72-91.28-42.1-122.87 67.28-17.85 61.8 17.61 144.45 77.38 174.88a106.428 106.428 0 0 0 47.29 11.88z" fill="#e4993b"/><path d="m387.12 265.74c16.55 24.49 27.81 80.89-16.59 117.35a10.276 10.276 0 0 1 -6.7 2.35 10.139 10.139 0 0 1 -5.57-1.74c-43.72-29.65-35.61-93.57-19.12-117.96a84.171 84.171 0 0 1 18.58-18.91 8.7 8.7 0 0 1 10.05-.08c6.31 4.42 14.52 11.84 19.35 18.99z" fill="#937051"/><path d="m348.34 440.79c-59.77-30.43-95.23-113.08-77.38-174.88 15.72-54.431 37.439-78.456 59.663-85.324-31.321-8.664-66.822 6.238-89.663 85.324-17.85 61.8 17.61 144.45 77.38 174.88a106.428 106.428 0 0 0 47.29 11.88l-.034-4.817a112.027 112.027 0 0 1 -17.256-7.063z" fill="#f9af5f"/><path d="m369.14 265.74a73.633 73.633 0 0 1 8.86-10.516 89.671 89.671 0 0 0 -10.233-8.474 8.7 8.7 0 0 0 -10.05.08 84.171 84.171 0 0 0 -18.58 18.91c-16.49 24.39-24.6 88.31 19.12 117.96a10.139 10.139 0 0 0 5.57 1.74 10.276 10.276 0 0 0 6.7-2.35 92.745 92.745 0 0 0 7.976-7.365c-32.565-31.925-24.496-87.601-9.363-109.985z" fill="#725744"/><path d="m50.67 157.052a6 6 0 0 1 -3.525-10.859c37.045-26.845 76.058-34.705 102.262-36.571 28.418-2.022 47.97 2.274 48.788 2.458a6 6 0 0 1 -2.625 11.709c-.187-.041-18.972-4.131-45.738-2.166-24.532 1.8-61.039 9.208-95.646 34.287a5.97 5.97 0 0 1 -3.516 1.142z" fill="#5c8e62"/><path d="m196.85 117.92c-.66-17.18-.28-36.19 3.81-44.16a6.764 6.764 0 0 1 7.18-3.53l12.22 2.11a6.763 6.763 0 0 1 5.57 7.54l2.64 46.08a118.666 118.666 0 0 0 -29.01 25.09s-1.75-15.61-2.41-33.13z" fill="#6f624b"/></svg>