<svg id="Layer_1" height="512" viewBox="0 0 512 512" width="512" xmlns="http://www.w3.org/2000/svg" data-name="Layer 1"><path d="m360.24 132.56a113.61 113.61 0 0 0 -76.03-4.53l-50.58 13.27-17.93-2.25-38.72-11.02a113.614 113.614 0 0 0 -76.03 4.53c-31.39 13.54-63.84 44.49-61.29 114.82 3.74 103.37 71.54 167.93 106.5 184.79 11.55 5.57 21.1 8.37 32.94 8.94 10.36.51 23.77-1.99 36.24-4.69a58.536 58.536 0 0 1 16.58-1.42l185.5-230.92c-10.42-43.27-35.02-61.96-57.18-71.52z" fill="#689b2d"/><path d="m219.89 114.13c-.72 3.26-1.36 6.49-1.93 9.65-55.25-4.33-101.28-36.46-145.99-13.27-33.03 17.13-47.77 13.83-53.22 10.94a3.265 3.265 0 0 1 -1.34-4.47c87.72-158.71 206.26-17.36 206.26-17.36-1.47 4.85-2.72 9.72-3.78 14.51z" fill="#4ca987"/><path d="m417.42 204.08a216.362 216.362 0 0 0 -36.04-12.64h-.01l-14.15-1.89c-54.19-3.07-67.46-.57-95.84 8.75v.01c8.18-2.5 16.05-3.21 23.06-1.87 24.43 4.65 38.58 20.33 46.78 37.41.08.17.16.33.24.5l35.26 1.56c.14-.17.27-.34.42-.5 13.59-16.5 33.66-28.28 62.24-18.94a46.1 46.1 0 0 1 7.17 3.06 231.409 231.409 0 0 0 -29.13-15.45z" fill="#436f1e"/><path d="m374.22 163.63 12.96 6.5s-2.97 11.05-5.8 21.31h-.01c-1.52 5.49-3 10.76-3.98 13.98-4.39 14.46-2.23 23.18-.67 30.49-.62.76-1.23 1.54-1.82 2.32-2.87 3.79-7.63.58-10.66-2.19a6.606 6.606 0 0 0 -6.73-1.32c-5.17 1.89-13.87 4.24-16.05-.37 7.01-6.41 11.46-7.17 16.2-19.96 5.81-15.7 6.41-14.36 9.56-24.84 1.49-4.97 3.55-12.58 7-25.92z" fill="#7f5f47"/><path d="m446.57 219.54a.031.031 0 0 1 -.02-.01 46.1 46.1 0 0 0 -7.17-3.06c-28.58-9.34-48.65 2.44-62.24 18.94-.15.16-.28.33-.42.5-.62.76-1.23 1.54-1.82 2.32-2.87 3.79-7.63.58-10.66-2.19a6.606 6.606 0 0 0 -6.73-1.32c-5.17 1.89-13.87 4.24-16.05-.37-.08-.17-.16-.33-.24-.5-8.2-17.08-22.35-32.76-46.78-37.41-7.01-1.34-14.88-.63-23.06 1.87-30.4 9.24-64.98 43.12-74.65 88.25-11.34 52.9 3.47 119.08 35.19 148.44 12.43 11.51 27.46 17.36 44.52 14.56 14.19-2.34 24.46-10.09 31.69-18.59a80.074 80.074 0 0 0 14.9-27.44c-.22 1.04-3.53 17.68 3.57 34.69a51.755 51.755 0 0 0 19.29 23.32c52.64 35.48 128.74-42.62 146.02-118.45 12.47-54.7-14.88-107.54-45.34-123.55z" fill="#f7e8a9"/><path d="m323.03 403.53a80.074 80.074 0 0 1 -14.9 27.44c5.26-18.23-7.35-42.21-15.15-54.65a61.063 61.063 0 0 1 -9.41-28.35c-1.54-23.5 10.54-31.72 19.12-37.23a75.452 75.452 0 0 0 31.41-42.71c3.76-13.04 7.04-26.53 7.12-34.18.08.17.16.33.24.5 2.18 4.61 10.88 2.26 16.05.37a6.606 6.606 0 0 1 6.73 1.32c3.03 2.77 7.79 5.98 10.66 2.19.59-.78 1.2-1.56 1.82-2.32.14-.17.27-.34.42-.5-2.73 7.15-5.51 29.68-6.79 43.18a75.292 75.292 0 0 0 13.6 51.2c5.96 8.25 14.2 20.29 4.16 41.61a61.277 61.277 0 0 1 -19.15 22.97c-11.82 8.74-40.59 24.96-42.36 43.85-7.1-17.01-3.79-33.65-3.57-34.69z" fill="#f8cf69"/><path d="m364.91 328.62s14.23 34.95-4.33 33.61c-19.76-1.43 4.33-33.61 4.33-33.61z" fill="#6d6653"/><path d="m323.06 319.81s-1.16 40.13-17.54 29.03c-15.39-10.43 17.54-29.03 17.54-29.03z" fill="#6d6653"/><path d="m69.66 247.38c-2.55-70.33 29.9-101.28 61.29-114.82a110.151 110.151 0 0 1 29.116-8 112.384 112.384 0 0 0 -59.116 8c-31.39 13.54-63.84 44.49-61.29 114.82 3.74 103.37 71.54 167.93 106.5 184.79 11.55 5.57 21.1 8.37 32.94 8.94a96.5 96.5 0 0 0 18.71-1.351 88.215 88.215 0 0 1 -21.65-7.589c-34.96-16.86-102.76-81.42-106.5-184.79z" fill="#517227"/><path d="m226.73 286.56c9.67-45.13 44.25-79.01 74.65-88.25.1-.03.2-.053.294-.082a68.644 68.644 0 0 0 -7.234-1.788c-7.01-1.34-14.88-.63-23.06 1.87-30.4 9.24-64.98 43.12-74.65 88.25-11.34 52.9 3.47 119.08 35.19 148.44 12.43 11.51 27.46 17.36 44.52 14.56a50.265 50.265 0 0 0 6.873-1.645 57.618 57.618 0 0 1 -21.393-12.915c-31.72-29.36-46.53-95.54-35.19-148.44z" fill="#cec28e"/><path d="m219.889 120.13a5.978 5.978 0 0 1 -3.407-1.065c-54.264-37.508-99.66-47.742-138.782-31.288a6 6 0 1 1 -4.652-11.06c18.811-7.917 38.352-10.281 59.722-7.235 27.654 3.941 58.115 17.3 90.536 39.711a6 6 0 0 1 -3.417 10.937z" fill="#3e8468"/><path d="m52.114 100.987a6 6 0 0 1 -3.252-11.047c2.817-1.812 6.134-3.924 9.84-6.058a6 6 0 1 1 5.986 10.4c-3.469 2-6.636 4.015-9.333 5.75a5.964 5.964 0 0 1 -3.241.955z" fill="#3e8468"/><path d="m323.052 409.483a5.917 5.917 0 0 1 -.676-.038 6 6 0 0 1 -5.294-6.631c3.422-30.5 24.947-98.029 25.861-100.888a6 6 0 1 1 11.43 3.654c-.22.69-22.076 69.256-25.366 98.571a6 6 0 0 1 -5.955 5.332z" fill="#d3ae5b"/><path d="m76.535 271.492a6 6 0 0 1 -5.955-5.329c-.466-4.14-.815-8.385-1.037-12.618a6 6 0 1 1 11.984-.627c.209 4 .538 8 .978 11.9a6.011 6.011 0 0 1 -5.97 6.673z" fill="#f4f8fc"/><path d="m113.293 361.9a5.969 5.969 0 0 1 -4.1-1.627c-1.088-1.024-26.749-25.655-36.384-76.458a6 6 0 0 1 11.79-2.236c8.861 46.72 32.592 69.74 32.83 69.966a6 6 0 0 1 -4.133 10.355z" fill="#f4f8fc"/><path d="m217.96 123.78c.57-3.16 1.21-6.39 1.93-9.65 1.06-4.79 2.31-9.66 3.78-14.51 5.75-19.02 14.84-37.75 29.22-50.14.2.46 6.76 15.68 22.69 12.51 0 0-34.58 28.76-41.95 79.31a133.4 133.4 0 0 0 -.74 32.19 27.6 27.6 0 0 1 -3.88.06s-6.73.69-15.2-3.65a252.491 252.491 0 0 1 1.89-30.85c.57-4.79 1.31-9.93 2.26-15.27z" fill="#7f5f47"/><path d="m230.351 179.591c-.565 0-1.013-.014-1.327-.029-3 .149-16.393 0-29.209-12.5-9.353-9.119-23.37-2.922-23.51-2.858a6 6 0 0 1 -4.951-10.932c.877-.4 21.685-9.576 36.837 5.2 10.1 9.847 20.108 9.124 20.209 9.111a6.181 6.181 0 0 1 1.1-.011c.1.01 13.325.818 23.5-9.1 15.152-14.774 35.96-5.6 36.838-5.2a6 6 0 0 1 -4.928 10.942c-.611-.268-14.3-6.149-23.533 2.848-11.726 11.438-26.004 12.529-31.026 12.529z" fill="#465e23"/><path d="m268.42 46.08c4.58 1.86 8.79 6.15 7.16 15.91-15.93 3.17-22.49-12.05-22.69-12.51q.66-.585 1.35-1.14a14.122 14.122 0 0 1 14.18-2.26z" fill="#8e6549"/></svg>