<svg id="Layer_1" height="512" viewBox="0 0 512 512" width="512" xmlns="http://www.w3.org/2000/svg" data-name="Layer 1"><path d="m252.54 142.22a72.956 72.956 0 0 1 -11.66-8.97c-10.49-9.77-24.53-16.43-38.5-15.48a37.9 37.9 0 0 0 -7.54 1.29c-4.1 1.14-8.09 2.25-11.78 3.53-8.29 2.86-15.11 6.56-18.34 13.29l-73.55 104.83s-19.43 178.6 121.36 209.64a106.987 106.987 0 0 1 30.55 11.82c9.29 5.37 22.02 11.02 33.22 9.97 5.7-.53 10.82-4.86 14.95-9.56 11-12.5 31.84-16.39 37.86-28.84l.81-243.57c-33.24-28.71-69.65-43.23-77.38-47.95z" fill="#eedf6f"/><path d="m273.08 462.17a106.987 106.987 0 0 0 -30.55-11.82c-52.8-11.64-83.062-44.031-100.27-79.972-28.267-59.039-21.637-128.889 15.959-182.473l36.5-52.025c3.23-6.73 10.05-10.43 18.34-13.29 2.247-.779 4.613-1.494 7.039-2.192a44.031 44.031 0 0 0 -17.719-2.628 37.9 37.9 0 0 0 -7.54 1.29c-4.1 1.14-8.09 2.25-11.78 3.53-8.29 2.86-15.11 6.56-18.34 13.29l-73.549 104.83s-19.43 178.6 121.36 209.64a106.987 106.987 0 0 1 30.55 11.82c9.29 5.37 22.02 11.02 33.22 9.97a17.963 17.963 0 0 0 9.047-3.932 97.232 97.232 0 0 1 -12.267-6.038z" fill="#ccbe6d"/><path d="m163 92.69a3.183 3.183 0 0 1 .91 1.9c2.08 18.9 3.76 29.61.81 41.29-3.66 14.41-14.4 30.3-40.24 64.89-7.65 10.24-15.38 19.65-22.93 28.09l-10.38 11.85-38.88 44.35a3.921 3.921 0 0 1 -6.7-1.46l-22.8-76.34a134.4 134.4 0 0 1 -5.79-37.66c-.51-102.59 125.63-81.5 144.34-77.81a3.119 3.119 0 0 1 1.66.9z" fill="#4ca987"/><path d="m367.19 184.67c70.59 0 127.81 57.04 127.81 127.41s-57.22 127.41-127.81 127.41a127.41 127.41 0 1 1 0-254.82z" fill="#d3ce56"/><path d="m462.52 299.64c12.82 20.34 8.13 57.03-13.86 64.19a11.123 11.123 0 0 0 -3.24-3.58l-63.63-43.67a13.134 13.134 0 0 0 .87-4.71 13.3 13.3 0 0 0 -.26-2.62l67.87-13.98c.02 0 .03-.01.05-.02l.61-.12c3.99-.81 9.42 1.08 11.59 4.51z" fill="#e0c863"/><path d="m427.1 235.15c30.24 6.01 47.89 53.56 23.22 60.1-.02.01-.03.02-.05.02l-67.87 13.98a13.261 13.261 0 0 0 -4.91-7.89l38.34-60.96a12.126 12.126 0 0 1 11.27-5.25z" fill="#f7df69"/><path d="m448.66 363.83a11.539 11.539 0 0 1 1.62 7.83c-6.74 33.07-51.77 43.99-62.31 28.65l-13.96-75.99a13.321 13.321 0 0 0 7.78-7.74l63.63 43.67a11.123 11.123 0 0 1 3.24 3.58z" fill="#f7df69"/><path d="m353.18 216.94c25.47-17.37 71.44.89 65.99 20.16a11.189 11.189 0 0 0 -3.34 3.3l-38.34 60.96a13.243 13.243 0 0 0 -8.18-2.8 13.066 13.066 0 0 0 -3.21.39l-17.02-70.3a10.358 10.358 0 0 1 -.26-2.76c.12-3.43 1.74-7.16 4.36-8.95z" fill="#e0c863"/><path d="m387.97 400.31c.78 3.98-1.11 9.45-4.62 11.51-18.4 10.81-74.27-4-67.97-23.01a11.518 11.518 0 0 0 3.54-3.19l43.37-62.44a13.393 13.393 0 0 0 11.72 1.14z" fill="#e0c863"/><path d="m382.4 309.25a13.367 13.367 0 0 0 -13.09-10.69 13.066 13.066 0 0 0 -3.21.39 13.338 13.338 0 0 0 -9.22 8.08 12.985 12.985 0 0 0 -.92 4.84 13.35 13.35 0 1 0 26.44-2.62z" fill="#d8a43d"/><path d="m349.08 228.65 17.02 70.3a13.338 13.338 0 0 0 -9.22 8.08l-66.06-42.61c-3.26-2.42-5.47-7.71-4.35-11.62 8.44-29.58 54.18-45.2 62.35-26.91a10.358 10.358 0 0 0 .26 2.76z" fill="#f7df69"/><path d="m362.29 323.18-43.37 62.44a11.518 11.518 0 0 1 -3.54 3.19 11.118 11.118 0 0 1 -7.95 1.57c-29.97-7.34-49.77-50.39-29.57-61.2l79.19-12.04a13.336 13.336 0 0 0 5.24 6.04z" fill="#f7df69"/><path d="m357.05 317.14-79.19 12.04-4.14.63c-4.02.63-9.01-1.72-11.37-5.02-11.45-15.94 2.55-67.91 28.47-60.37l66.06 42.61a12.985 12.985 0 0 0 -.92 4.84 13.213 13.213 0 0 0 1.09 5.27z" fill="#e0c863"/><path d="m54.821 229.722c-.153 0-.306-.006-.46-.017a6 6 0 0 1 -5.529-6.437 168.593 168.593 0 0 1 3.312-23 6 6 0 0 1 11.726 2.549 156.812 156.812 0 0 0 -3.07 21.358 6 6 0 0 1 -5.979 5.547z" fill="#36775c"/><path d="m63.815 183.3a6 6 0 0 1 -5.592-8.175c25.731-66.214 96.153-87.2 117.123-92.049a6 6 0 1 1 2.706 11.691c-19.52 4.518-85.045 23.978-108.643 84.705a6 6 0 0 1 -5.594 3.828z" fill="#36775c"/><path d="m122.318 299.725a6 6 0 0 1 -5.933-5.158c-.608-4.279-1.1-8.672-1.454-13.056a6 6 0 1 1 11.961-.974c.337 4.147.8 8.3 1.374 12.343a6.009 6.009 0 0 1 -5.948 6.845z" fill="#f4f8fc"/><path d="m163.066 389.514a5.967 5.967 0 0 1 -3.977-1.514c-1.156-1.028-28.448-25.779-39.953-78.167a6 6 0 0 1 11.72-2.574c10.614 48.331 35.964 71.555 36.218 71.783a6 6 0 0 1 -4.008 10.472z" fill="#f4f8fc"/><path d="m202.38 117.77a37.9 37.9 0 0 0 -7.54 1.29c-4.1 1.14-8.09 2.25-11.78 3.53a331.977 331.977 0 0 1 -6.36-33.67c-2.01-15.06-2.96-31.93.25-43.26l14.72-5.93s1.5 73.33 10.71 78.04z" fill="#c79a83"/></svg>