<svg id="Layer_1" height="512" viewBox="0 0 512 512" width="512" xmlns="http://www.w3.org/2000/svg" data-name="Layer 1"><path d="m380.91 225.68a372.357 372.357 0 0 0 -39.76 44.58c.87-1.63 26.61-51.11-20.74-112.11a6.846 6.846 0 0 1 2.97-10.59c19.35-7.32 35.88-2.05 49.08 7.64 23.12 16.96 36.04 47.44 36.04 47.44a261.949 261.949 0 0 0 -27.59 23.04z" fill="#f9d38f"/><path d="m30.12 332.5s26.76 16.13.07 33.01a49.825 49.825 0 0 0 -6.43-5.88c-12.58-9.27-3.75-19.42-3.75-19.42s2.29-3.21 10.11-7.71z" fill="#816640"/><path d="m70.25 409.11c2.3 11.91-16.28 18.7-17.93 19.28-2.47-1.6-4.59-3.07-6.31-4.36a10.648 10.648 0 0 1 -4.07-10.57l1.56-8.02a10.692 10.692 0 0 1 5.79-7.57c3.52-1.72 8.81-4.25 15.29-7.16 0 0 3.26 5.94 5.67 18.4z" fill="#5e493b"/><path d="m161.9 431.99c30.67 11.25 2.47 30.94 1.84 31.37-1.08-.4-2.06-.78-2.93-1.14a9.421 9.421 0 0 1 -2.48-1.51 15.236 15.236 0 0 1 -5.37-12.39l.19-4.97a15.406 15.406 0 0 1 4.26-10.12c.74-.76 2.7-1.03 4.49-1.25z" fill="#816640"/><path d="m307.74 376.24a6.519 6.519 0 0 0 9.71-3.2 98.134 98.134 0 0 1 5.35-12.11c7.94 24.12 16.96 41.56 25.98 54.16l-.03.02c-76.31 80.09-159.14 58.03-185.01 48.25.63-.43 28.83-20.12-1.84-31.37v-.01a14.56 14.56 0 0 0 3.01-.52c83.2-34.86 124.93-90.92 124.93-90.92h.01c.95 20.76 10.74 30.97 17.89 35.7z" fill="#f8d56a"/><path d="m277.04 148.65c7.53 147.84-83.85 202.24-152.91 220.21-16.76 4.36-34.3 11.02-48.63 17.09h-.01c-27.26 1.71-36.11-10.77-45.3-20.44 26.69-16.88-.07-33.01-.07-33.01 12.22-7.04 37.93-17.25 89.49-23.39 84.58-10.08 125.57-80.36 125.57-80.36s32.58-41.95 31.86-80.1z" fill="#f8d56a"/><path d="m314.25 97.49c50.15 15.78 58.21 57.71 58.21 57.71-13.2-9.69-29.73-14.96-49.08-7.64a6.846 6.846 0 0 0 -2.97 10.59c47.35 61 21.61 110.48 20.74 112.11a.109.109 0 0 1 -.02.04c-10.34-6.54-29.89-11.88-43.54 27.14-6.27 17.89-8.27 32-7.74 43.1h-.01s-41.73 56.06-124.93 90.92a14.56 14.56 0 0 1 -3.01.52c-1.79.22-3.75.49-4.49 1.25a15.406 15.406 0 0 0 -4.26 10.12l-.19 4.97c-42.13 10.84-81.76-7.79-100.64-19.93 1.65-.58 20.23-7.37 17.93-19.28-2.41-12.46-5.67-18.4-5.67-18.4 3.35-1.5 7.01-3.11 10.91-4.76h.01c14.33-6.07 31.87-12.73 48.63-17.09 69.06-17.97 160.44-72.37 152.91-220.21v-.08a52.722 52.722 0 0 0 -5.1-22.31c-4.07-8.35-8.78-13.07-13.26-15.65 0 0 4.7-7.27 15.02-13.74 14.75-9.26 15.95-20.15 14.81-26.96 0 0 8.09 22.03 25.74 27.58z" fill="#f3bc67"/><path d="m240.83 73.6a29.172 29.172 0 0 0 -3.32-4.73 12.751 12.751 0 0 1 2.26-18.45l12.98-9.6a12.892 12.892 0 0 1 13.82-.96l9.97 5.44a13.487 13.487 0 0 1 6.39 7.64l3.44 10.4a21.733 21.733 0 0 1 2.14 6.57c1.14 6.81-.06 17.7-14.81 26.96-10.32 6.47-15.02 13.74-15.02 13.74a20.175 20.175 0 0 0 -17.12-1.74s-10.79-15.94-1.39-24.6c3.25-2.99 2.73-6.87.66-10.67z" fill="#623f26"/><path d="m424.63 276.71s8.8-10.87 22.72-25.11c0 0 73.1 57.1 15.27 139.16a5.065 5.065 0 0 1 -8.59-.44c-3.35-6.19-7.87-19.72-12.11-49.2-3.29-22.82-11.95-35.2-21.96-41.6-19.55-12.48-44.27-2.15-44.27-2.15l-6.9 2.97a34.11 34.11 0 0 0 -2.83-10.16c13.14-12.09 39.57-18.71 58.67-13.47z" fill="#f9d38f"/><path d="m369.01 307.35a40.026 40.026 0 0 0 -.22-7.01l6.9-2.97s24.72-10.33 44.27 2.15c0 0-37.65 48.28-9.35 109.97a21.623 21.623 0 0 1 1.97 10.14q-.03.6-.03 1.2a21.063 21.063 0 0 0 9.25 17.43l2.87 1.96a2.3 2.3 0 0 1 .22 3.65l-15.07 13.12a2.328 2.328 0 0 1 -3.49-.51l-.02-.02a21.362 21.362 0 0 0 -14.42-9.59c-9.72-1.73-26.41-8.43-43.11-31.78-9.02-12.6-18.04-30.04-25.98-54.16 15.74-30.18 45.06-52.69 46.21-53.58z" fill="#f6c35d"/><path d="m60.12 352.5c12.22-7.04 37.93-17.25 89.49-23.39 45.71-5.448 78.682-28.476 99.34-48.494 19.333-32.415 30.975-75.327 28.09-131.966.72 38.15-31.86 80.1-31.86 80.1s-40.99 70.28-125.57 80.36c-51.56 6.14-77.27 16.35-89.49 23.39 0 0 26.76 16.13.07 33.01 7.251 7.63 14.3 17 30.336 19.781 26.115-16.8-.406-32.791-.406-32.791z" fill="#d6b761"/><path d="m380.918 231.684c-.1 0-.207 0-.312-.008a6 6 0 0 1 -5.685-6.3c1.487-29-11.185-38.643-11.314-38.731a6 6 0 0 1 6.847-9.856c.749.52 18.3 13.143 16.451 49.2a6 6 0 0 1 -5.987 5.695z" fill="#e5c493"/><path d="m114.222 410.648a6 6 0 0 1 -.407-11.986c24.852-1.714 67.992-16.23 107.779-51.5 31.729-28.128 71.911-79.311 83.149-163.411a6 6 0 0 1 11.895 1.59c-11.728 87.759-53.83 141.321-87.084 170.8-42 37.231-86.9 52.56-114.913 54.492-.141.01-.281.015-.419.015z" fill="#ce9d5b"/><path d="m218.034 447.969a6 6 0 0 1 -2.679-11.373c44.289-22.053 66.953-43.127 88.117-64.572a6 6 0 0 1 8.541 8.43c-21.032 21.309-45.406 44.027-91.309 66.884a5.972 5.972 0 0 1 -2.67.631z" fill="#d6b65c"/><path d="m251.28 80.851a50.239 50.239 0 0 1 -12.017-1.457 6 6 0 0 1 3.109-11.594c.326.086 18.316 4.641 23.562-5.8a6 6 0 1 1 10.722 5.387c-5.547 11.046-16.685 13.464-25.376 13.464z" fill="#4c311e"/><path d="m372.784 313.458.03-.133a4.592 4.592 0 0 0 -7.681-4.246l-3.594 3.45a4.652 4.652 0 0 0 -1.341 2.43c-14.295 70.608 19.363 111.292 20.83 113.02a6 6 0 0 0 9.149-7.765c-.328-.386-32.589-39.377-17.393-106.756z" fill="#d1a352"/><path d="m462.725 308.184c-.251-1.2-6.4-29.593-27.617-40.793-17.985-9.493-44.306-5.95-62.292 3.762a6 6 0 0 0 5.6 10.6c14.643-7.928 36.934-11.224 51.087-3.754 16.188 8.544 21.423 32.4 21.474 32.643a6 6 0 0 0 11.744-2.462z" fill="#e5c493"/><path d="m476.82 179.93c18.08 2.87 24.81 25 10.27 36.09a376.386 376.386 0 0 0 -39.74 35.58c-13.92 14.24-22.72 25.11-22.72 25.11-19.1-5.24-45.53 1.38-58.67 13.47-5.48-11.89-11.64-15.44-17.78-14.12l-.01-.07a38.165 38.165 0 0 0 -7.04-5.69.109.109 0 0 0 .02-.04 372.357 372.357 0 0 1 39.76-44.58 261.949 261.949 0 0 1 27.59-23.04c21.5-15.39 45.61-26.32 68.32-22.71z" fill="#e2e4ed"/><path d="m348.18 276.06c6.14-1.32 12.3 2.23 17.78 14.12a36.273 36.273 0 0 1 3.05 17.17c-1.15.89-30.47 23.4-46.21 53.58a98.134 98.134 0 0 0 -5.35 12.11 6.519 6.519 0 0 1 -9.71 3.2c-7.15-4.73-16.94-14.94-17.89-35.7-.53-11.1 1.47-25.21 7.74-43.1 13.65-39.02 33.2-33.68 43.54-27.14a38.165 38.165 0 0 1 7.04 5.69z" fill="#ffdca4"/></svg>