<svg id="Layer_1" height="512" viewBox="0 0 512 512" width="512" xmlns="http://www.w3.org/2000/svg" data-name="Layer 1"><path d="m285.09 155.51c-5.22-6.67-13.19-15.22-17.09-19.28-33.43-34.92-49.38-41.95-63.55-79.04-18.05-47.22-43.68-34.94-43.68-34.94v.01a40.447 40.447 0 0 0 -16.12-5.03 35.045 35.045 0 0 0 -25.32 6.95 34.319 34.319 0 0 0 -8.88 9.77c-1.22 0-27.2.62-23.34 49.84 3.11 39.61-8.27 52.83-23.5 98.78-11.13 33.61-27.86 132.34-2.31 202.54 15.73 43.24 31.69 70.27 88.61 86.89 11.95 3.49 23.32 8.61 34.41 14.29 8.58 4.4 30.29 5.41 47.72 5.09a60.771 60.771 0 0 0 27.41-7.15c12.35-6.59 25.21-15.14 30.21-22.32 3.37-4.83 3.72-5.62 7.64-9.99z" fill="#819848"/><path d="m442.41 241.71c11.45 19.54 61.58 134.89-45.35 202.09 0 0-20.73 9.25-22.36 32.1-.24 3.4-2.96 6.96-7.08 10.26a40.946 40.946 0 0 1 -46.15 3.21c-5.17-3.01-9.42-7.2-11.1-13.47a57.82 57.82 0 0 0 -13.07-23.98 47.11 47.11 0 0 0 -9.29-8.12c-106.93-67.2-56.79-182.55-45.34-202.09 3.37-5.75 29.65-45.49 42.42-86.2a152.623 152.623 0 0 0 6.3-28.5c5.42-48.59 50.08-43.63 50.08-43.63s46.8-4.96 52.21 43.63 44.56 107.59 48.73 114.7z" fill="#778c4f"/><path d="m423.47 258.51c9.34 15.94 49.22 110.08-38.04 164.91 0 0-24.88 14.39-31.85 30.53a10.954 10.954 0 0 1 -16.02 5.06 10.939 10.939 0 0 1 -4.03-4.65c-7.44-16.3-35.96-30.94-35.96-30.94-87.26-54.83-45.31-148.97-35.97-164.91 3.4-5.8 43.09-60.1 47.26-99.78.04-.37.08-.74.13-1.11 4.33-35.92 53.29-42.02 66.65-8.42a97.133 97.133 0 0 1 4.47 14.83c8.63 38.95 39.96 88.68 43.36 94.48z" fill="#d3844f"/><path d="m368.54 255.39c23.34 34.24 26.58 84.87-8.51 122.43 0 0-3.82 4.51-6.67 18.3a9.872 9.872 0 0 1 -19.28.34c-3.3-14.05-7.96-18.64-7.96-18.64-35.09-37.56-30.81-88.19-7.47-122.43 10.61-15.56 16.37-29.27 19.49-39.6a4.9 4.9 0 0 1 9.29-.29 190.165 190.165 0 0 0 21.11 39.89z" fill="#575666"/><path d="m179.91 472c-56.92-16.62-72.88-43.65-88.61-86.89-25.55-70.2-8.82-168.93 2.31-202.54 15.23-45.95 26.61-59.17 23.5-98.78-3.86-49.22 22.12-49.84 23.34-49.84a36 36 0 0 1 15.817-13.894 44.275 44.275 0 0 0 -11.617-2.826 35.045 35.045 0 0 0 -25.32 6.95 34.319 34.319 0 0 0 -8.88 9.77c-1.22 0-27.2.62-23.34 49.84 3.11 39.61-8.27 52.83-23.5 98.78-11.13 33.61-27.86 132.34-2.31 202.54 15.73 43.24 31.69 70.27 88.61 86.89 11.95 3.49 23.32 8.61 34.41 14.29 8.58 4.4 30.29 5.41 47.72 5.09a59.949 59.949 0 0 0 6.5-.492c-10.188-.687-19.334-2.092-24.22-4.6-11.09-5.678-22.46-10.798-34.41-14.288z" fill="#67753b"/><path d="m327.57 423.42c-87.26-54.83-45.31-148.97-35.97-164.91 3.4-5.8 43.09-60.1 47.26-99.78.04-.37.08-.74.13-1.11 1.618-13.425 9.471-22.682 19.369-27.261-19.5-9.2-46.222 1.151-49.369 27.261-.05.37-.09.74-.13 1.11-4.17 39.68-43.86 93.98-47.26 99.78-9.34 15.94-51.29 110.08 35.97 164.91 0 0 28.52 14.64 35.96 30.94a10.88 10.88 0 0 0 9.93 6.37 11.058 11.058 0 0 0 10.12-6.78 36.88 36.88 0 0 1 4.61-7.638c-10.925-12.775-30.62-22.892-30.62-22.892z" fill="#a86b42"/><path d="m103.334 194.6a6 6 0 0 1 -6-5.884c-.02-1.035-.341-25.758 12.5-61.98 9.687-27.332 2.867-40.207 2.8-40.33a6 6 0 1 1 10.355-6.062c1.022 1.744 9.649 17.983-1.84 50.4-12.116 34.187-11.814 57.509-11.809 57.741a6 6 0 0 1 -5.884 6.115z" fill="#515931"/><path d="m240.546 156.266c-.426-.943-10.736-23.4-37.855-50.57-13.816-13.84-18-25.1-19.263-30.944a6.021 6.021 0 0 0 -5.421-4.737 6.039 6.039 0 0 0 -6.363 7.3c1.678 7.945 6.887 21.168 22.555 36.862 25.445 25.486 35.317 46.823 35.409 47.023a6 6 0 0 0 10.938-4.937z" fill="#515931"/><path d="m185.751 449.8a6.007 6.007 0 0 1 -1.133-.107c-45.358-8.664-63.315-47.788-64.058-49.449a6 6 0 0 1 10.953-4.906c.2.451 16.349 35.117 55.357 42.568a6 6 0 0 1 -1.119 11.894z" fill="#f4f8fc"/><path d="m116.075 388.471a6 6 0 0 1 -5.049-2.749 64.88 64.88 0 0 1 -6.152-13.135 6 6 0 1 1 11.3-4.04 54.127 54.127 0 0 0 4.939 10.672 6 6 0 0 1 -5.037 9.252z" fill="#f4f8fc"/><g fill="#42424c"><path d="m342.894 250.482c-.174 0-.35-.007-.527-.023a6 6 0 0 1 -5.458-6.5l.263-3.021a6 6 0 0 1 11.955 1.04l-.263 3.022a6 6 0 0 1 -5.97 5.482z"/><path d="m331.1 271.114a6 6 0 0 1 -5.587-8.183l1.1-2.824a6 6 0 1 1 11.178 4.364l-1.1 2.824a6 6 0 0 1 -5.591 3.819z"/><path d="m352.59 271.192a6 6 0 0 1 -5.89-4.892l-.56-2.98a6 6 0 0 1 11.793-2.218l.56 2.98a6.007 6.007 0 0 1 -5.9 7.11z"/><path d="m340.847 292.979c-.147 0-.295 0-.445-.016a6 6 0 0 1 -5.546-6.422l.222-3.025a6 6 0 0 1 11.969.877l-.222 3.024a6 6 0 0 1 -5.978 5.562z"/><path d="m319.311 302.31a6 6 0 0 1 -5.991-5.765l-.119-3.029a6 6 0 1 1 11.99-.472l.119 3.03a6 6 0 0 1 -5.759 6.231c-.08.003-.16.005-.24.005z"/><path d="m354.489 311.635a6 6 0 0 1 -5.976-5.552l-.227-3.023a6 6 0 1 1 11.967-.9l.227 3.023a6 6 0 0 1 -5.536 6.432c-.152.014-.303.02-.455.02z"/><path d="m332.625 319.93c-.089 0-.178 0-.268-.006a6 6 0 0 1 -5.731-6.257l.133-3.03a6 6 0 0 1 11.988.526l-.133 3.029a6 6 0 0 1 -5.989 5.738z"/><path d="m365.945 291.933a6 6 0 0 1 -5.936-5.185l-.412-3a6 6 0 1 1 11.888-1.631l.412 3a6 6 0 0 1 -5.952 6.816z"/><path d="m367.746 330.294c-.1 0-.193 0-.291-.007a6 6 0 0 1 -5.707-6.279l.145-3.029a6 6 0 0 1 11.986.572l-.145 3.029a6 6 0 0 1 -5.988 5.714z"/><path d="m345.047 340.66h-.161a6 6 0 0 1 -5.84-6.157l.08-3.031a6 6 0 1 1 12 .317l-.08 3.031a6 6 0 0 1 -5.999 5.84z"/><path d="m317.8 336.39a6 6 0 0 1 -5.508-3.616l-1.2-2.78a6 6 0 1 1 11.01-4.772l1.198 2.778a6 6 0 0 1 -5.5 8.387z"/><path d="m328.454 360.033a5.989 5.989 0 0 1 -4.741-2.319l-1.858-2.391a6 6 0 1 1 9.474-7.364l1.859 2.392a6 6 0 0 1 -4.734 9.682z"/><path d="m356.929 359.214a6 6 0 0 1 -5.587-8.184l1.1-2.823a6 6 0 1 1 11.178 4.364l-1.1 2.824a6 6 0 0 1 -5.591 3.819z"/><path d="m343.14 379a6 6 0 0 1 -5.972-5.492l-.257-3.021a6 6 0 0 1 11.957-1.017l.257 3.022a6 6 0 0 1 -5.471 6.486c-.172.022-.344.022-.514.022z"/></g></svg>