<svg id="Layer_1" enable-background="new 0 0 512 512" height="512" viewBox="0 0 512 512" width="512" xmlns="http://www.w3.org/2000/svg"><path d="m216.1 108.1c-1.4 4.6-5.1 8.1-9.7 9.2-158.9 38.6-180.4-37-183.4-58.5-.4-3.1 1.7-5.9 4.7-6.5 138.8-26.6 177.3 21.4 187.8 47 1.3 2.8 1.4 5.9.6 8.8z" fill="#72af7c"/><path d="m77 70.5c-4.2 0-8.6 0-13.1 0-3.3 0-6 2.7-6 6s2.7 6 6 6h13.1c90-.1 111.4-.2 157.9 61.2l9.6-7.2c-50.1-66.2-77.3-66.1-167.5-66z" fill="#436f1e"/><path d="m255.3 139.6-13.3.9c-3.5.2-7.1.1-10.6-.5-26.2-4-151.6-14.2-163.4 160.7-7.4 109.3 75 147.6 128.3 160.9 26 6.4 53.2 6.7 79.3.7 14.9-3.4 32.3-8.3 47.6-15.2l67.7-229.9c-21.8-80.1-98.9-81-135.6-77.6z" fill="#e56a55"/><path d="m226.3 461.5c-53.3-13.3-135.8-51.6-128.4-160.9 8.8-128.6 78.9-157.1 125.8-161.6-37-3.6-144.8.2-155.7 161.6-7.4 109.3 75 147.6 128.3 160.9 18.3 4.5 37.2 6 56 4.3-8.8-.8-17.5-2.2-26-4.3z" fill="#c15b4d"/><path d="m445.3 217c-17-6.7-30.8-6.7-41.9-2.9-4.2 1.2-8.4 2.2-12.5 3.1-47.4 9.9-85.6-1.4-88.1-2.2-11.4-4.6-25.8-5.1-44.1 2.1-82.6 32.4-45.5 170.4-8 202.6 30.2 25.9 55 30 72.5 27.5 3.9-.6 7.7-1.5 11.3-2.8 11-3.9 23-4 34-.1 17.4 6.1 47.1 7.8 84.7-24.6 37.6-32.3 74.8-170.3-7.9-202.7z" fill="#f8cf69"/><path d="m288.8 217c3.4-1.3 6.9-2.5 10.4-3.4-10.8-3.3-24.1-3-40.4 3.4-82.6 32.4-45.5 170.4-8 202.6 30.2 25.9 55 30 72.5 27.5 2-.3 3.8-.7 5.6-1.1-13.8-3.1-30-10.8-48.1-26.4-37.5-32.2-74.7-170.2 8-202.6z" fill="#d3b062"/><path d="m360.7 269.6c20.4 6.3 35.7 31.5 35.7 61.7 0 34.9-20.5 63.2-45.8 63.2s-45.8-28.3-45.8-63.2c0-30.7 15.8-56.3 36.8-62 2.9-.8 5.9-1.2 8.9-1.2 3.6 0 7 .5 10.2 1.5z" fill="#7f5f47"/><path d="m334.9 331.3c0-27.7 12.9-51.2 30.8-59.7-1.6-.8-3.2-1.4-4.9-2-3.3-1-6.7-1.5-10.1-1.5-3 0-6 .4-8.9 1.2-21 5.7-36.8 31.3-36.8 62 0 34.9 20.5 63.2 45.8 63.2 5.2 0 10.3-1.2 15-3.5-18-8.5-30.9-32-30.9-59.7z" fill="#664c3b"/><path d="m390.9 217.1c4.1-.8 8.3-1.9 12.5-3.1-32.9 11-42.5 54.8-42.7 55.6-3.3-1-6.7-1.5-10.1-1.5-3 0-6 .4-8.9 1.2 0 0-8.1-42.1-38.9-54.4 2.5.8 40.8 12.1 88.1 2.2z" fill="#c14744"/><path d="m251.4 103.7c-1.3-3.2-4.8-4.8-8.1-3.7l-8.8 2.6c-.1 0-.3 0-.4.1-3.5 1.3-5.3 5.1-4 8.6 3 8.1 4.7 17.4 5.6 25.9l1 27 17.1-4.5s1.1-8.9 1.4-20.1c.3-12.2-.2-27-3.8-35.9z" fill="#6f624b"/><path d="m314.6 173.7c-.8 0-1.7-.2-2.4-.5-.3-.2-35.9-15.6-66.5-5.3-22.4 7.6-44.5 1.7-59.1-4.7-3-1.3-4.4-4.8-3.1-7.9 1.3-3 4.8-4.4 7.9-3.1 12.6 5.5 31.7 10.7 50.5 4.3 35.1-11.9 73.6 5 75.2 5.7 3 1.3 4.4 4.9 3 7.9-1 2.2-3.1 3.6-5.5 3.6z" fill="#a54a41"/></svg>