<svg id="Layer_1" height="512" viewBox="0 0 512 512" width="512" xmlns="http://www.w3.org/2000/svg" data-name="Layer 1"><path d="m279.36 110.96c-21.68.07-39.51 4.16-54.1 11.24a91.022 91.022 0 0 0 -24.69 17.46 94.422 94.422 0 0 0 -7.88 8.87c-2.84-12.58-8.22-12.92-14.59-14.41l-96.59 37.14c-.84.83-39.98 39.88-38.85 101.16 1.61 87.53 64.18 202.33 210.51 178.5v-.01c18.02 3.83 36.94 1.9 51.26-3.96 5.52-2.26 14.15-6.2 19.17-9.75l49.52-249.39c-17.28-40.24-49.86-77-93.76-76.85z" fill="#8e4964"/><path d="m373.12 187.81c21.93-9.34 85.93-26.11 116.11 78.56 24.65 85.45-32.33 173.03-120.89 181.22a15.339 15.339 0 0 1 -3.03 0 140.343 140.343 0 0 1 -41.71-10.39c-64.16-27.04-101.06-99.67-80.5-170.83 31.9-110.39 100.39-85.71 118.17-77.11a9.879 9.879 0 0 0 8.59.02c.95-.45 2.04-.95 3.26-1.47z" fill="#f1d29a"/><ellipse cx="367.69" cy="307.62" fill="#c79a83" rx="55.3" ry="70.18"/><path d="m72.66 272.42a140.313 140.313 0 0 1 2.922-31.2 114.947 114.947 0 0 1 71.489-83.63l42.969-16.522c-3-5.359-7.2-5.835-11.94-6.944l-96.59 37.136c-.84.83-39.98 39.88-38.85 101.16 1.524 82.872 57.708 190.165 187.87 181.129-108.852-8.073-156.468-104.927-157.87-181.129z" fill="#703d52"/><path d="m273.1 266.37c16.713-57.836 43.468-78.585 67.714-84.007-28.2-5.753-73.5.2-97.714 84.007-20.56 71.16 16.34 143.79 80.5 170.83a140.343 140.343 0 0 0 41.71 10.39 15.339 15.339 0 0 0 3.03 0c4.59-.425 9.09-1.074 13.5-1.914a139.185 139.185 0 0 1 -28.24-8.476c-64.16-27.04-101.06-99.67-80.5-170.83z" fill="#d3b789"/><path d="m184.58 115.03a26.083 26.083 0 0 1 -1.72 8.94 76.845 76.845 0 0 1 -4.76 10.15c-9.64 17.16-30.93 39.4-76.02 36.96a156.951 156.951 0 0 0 -20.57.18c-28.66 2.12-47.64 12.04-58.84 20.41a3.558 3.558 0 0 1 -5.61-3.51c11.36-61.34 67.39-172.31 142.43-113.69 5.2 4.06 16.58 15.86 22.68 29.08a26.072 26.072 0 0 1 2.41 11.48z" fill="#4ca987"/><path d="m342.39 307.62c0-32.159 17.051-59.245 40.3-67.545a44.443 44.443 0 0 0 -15-2.635c-30.54 0-55.3 31.42-55.3 70.18s24.76 70.18 55.3 70.18a44.443 44.443 0 0 0 15-2.635c-23.249-8.3-40.3-35.386-40.3-67.545z" fill="#a58171"/><path d="m50.992 156.457a6 6 0 0 1 -3.525-10.857c37.388-27.083 76.762-35.013 103.209-36.9 28.683-2.043 48.411 2.294 49.237 2.479a6 6 0 0 1 -2.624 11.71c-.189-.043-19.162-4.174-46.188-2.188-24.775 1.816-61.644 9.3-96.594 34.612a5.968 5.968 0 0 1 -3.515 1.144z" fill="#448e70"/><path d="m375.908 280.735a6 6 0 0 0 -10.75 5.334c21.681 43.7-2.468 88.38-2.714 88.827a5.956 5.956 0 0 0 -.733 2.489 42.9 42.9 0 0 0 13-.167c5.782-12.218 22.277-53.994 1.197-96.483z" fill="#82665b"/><path d="m221.99 71.02a6.847 6.847 0 0 1 5.64 7.61l-2.37 43.57a91.022 91.022 0 0 0 -24.69 17.46s-1.28-10.04-1.97-22.62h-.01c-.87-15.78-.82-35.55 3.82-44.58a6.818 6.818 0 0 1 7.25-3.56z" fill="#6f624b"/></svg>