<svg id="Layer_1" height="512" viewBox="0 0 512 512" width="512" xmlns="http://www.w3.org/2000/svg" data-name="Layer 1"><path d="m194.14 90.86h-.01a31.192 31.192 0 0 0 -.88 11.75l-2.57.28c-11.13 16.3-5.9 44.82-5.9 44.82-7.68-13.21-20.41-21.1-29.64-25.36 0 0-14.52 20.83-10.83 36.31l-34.03-22.99a39.716 39.716 0 0 0 -5.14-5.99l-.01.01v-.02a42.73 42.73 0 0 0 -14.9-9.07c-44.08 34.86-73.23 93.41-73.23 153.89 0 105.11 85.38 190.31 190.71 190.31a200.164 200.164 0 0 0 55.15-7.6v-.01l71.13-274.63a29.478 29.478 0 0 0 20.55-17.04c-23.31-68.52-130.05-85.4-160.4-74.66z" fill="#c14744"/><path d="m47 274.49c0-54.345 23.545-107.121 60.3-142.562-.7-.784-1.42-1.539-2.161-2.248l-.01.01v-.02a42.73 42.73 0 0 0 -14.9-9.07c-44.079 34.86-73.229 93.41-73.229 153.89 0 105.11 85.38 190.31 190.71 190.31 5.04 0 10.124-.194 15.2-.566-98.41-7.534-175.91-89.605-175.91-189.744z" fill="#963e3e"/><path d="m408.47 112.51c1.83 13.42 3.05 33.31-3.29 44.56-9.43 6.18-16.54 14.99-21.25 22.16a2.367 2.367 0 0 1 -4.32-1.76 91.359 91.359 0 0 0 .28-24.91v-.01l20.01-41.35a4.467 4.467 0 0 1 8.57 1.31z" fill="#de3c44"/><path d="m176.21 80.12c22.09-23.62 42.11-13.51 42.11-13.51-14.8 6.86-21.75 15.5-24.18 24.25h-.01a31.192 31.192 0 0 0 -.88 11.75l-2.57.28s-13.47-6.75-27.74 8.66l5.57-21.86a85.715 85.715 0 0 1 7.7-9.57z" fill="#de3c44"/><path d="m201.21 32.08s-26.36 23.1-25 48.04a85.715 85.715 0 0 0 -7.7 9.57 80.855 80.855 0 0 0 -14.83-2.35 73.616 73.616 0 0 1 -5.77-11.28s12.26-38.28 53.3-43.98z" fill="#fb6771"/><path d="m153.68 87.34c-9.89-.57-17.78 1.23-24.07 4.36a63.826 63.826 0 0 0 -8.5-11.03v-.01c-.16-.62-5.49-22.78 15.95-39.63 0 0 4.24 19.42 10.85 35.03a73.616 73.616 0 0 0 5.77 11.28z" fill="#de3c44"/><path d="m168.51 89.69-5.57 21.86v.01a59.485 59.485 0 0 0 -7.8 10.79 72.749 72.749 0 0 0 -11.3-4.22c-24.86-4.99-38.31 11.08-38.7 11.55-.01 0-.01 0-.01-.01.09-.88 2.92-27.25 24.48-37.97 6.29-3.13 14.18-4.93 24.07-4.36a80.855 80.855 0 0 1 14.83 2.35z" fill="#6f624b"/><path d="m97.63 100.18s-7.86-27.68-30.97-29.04c0 0 30.48-15.08 54.45 9.52v.01a63.826 63.826 0 0 1 8.5 11.03c-21.56 10.72-24.39 37.09-24.48 37.97a42.73 42.73 0 0 0 -14.9-9.07c-17.14-6.28-35.5-2.46-35.5-2.46s8.17-29.02 42.9-17.96z" fill="#fb6771"/><path d="m144.31 158.66-34.03-22.99a39.716 39.716 0 0 0 -5.14-5.99c.39-.47 13.84-16.54 38.7-11.55a72.749 72.749 0 0 1 11.3 4.22s-14.52 20.83-10.83 36.31z" fill="#ad2a34"/><path d="m162.94 111.55c14.27-15.41 27.74-8.66 27.74-8.66-11.13 16.3-5.9 44.82-5.9 44.82-7.68-13.21-20.41-21.1-29.64-25.36a59.485 59.485 0 0 1 7.8-10.79z" fill="#ad2a34"/><path d="m354.54 165.52a31.156 31.156 0 0 0 2.64-10.84c.75-12.3-2.87-26.08-17.83-36.63 0 0 35.06-3.72 40.54 34.5v.01a91.359 91.359 0 0 1 -.28 24.91 2.367 2.367 0 0 0 4.32 1.76c4.71-7.17 11.82-15.98 21.25-22.16 9.05-5.91 20.25-9.4 33.53-6.7 0 0-13.73 10.34-22.01 25.08-7.78 13.87-4.06 31.49 8.25 40.15-15.98 3.88-30.31 1.63-44.86-13.73-10.97-11.59-45.29-19.13-46.1-19.31a29.478 29.478 0 0 0 20.55-17.04z" fill="#cc9869"/><path d="m424.95 215.6c56.53 39.76 84.07 108.79 62.97 170.97-25.83 76.09-114.74 113.13-198.59 82.71a180.3 180.3 0 0 1 -26.47-12.09c-66.91-37.34-101.55-113.1-78.58-180.77 20.17-59.44 78.84-95.05 143.51-93.29a26.086 26.086 0 0 0 6.2-.57c.81.18 35.13 7.72 46.1 19.31 14.55 15.36 28.88 17.61 44.86 13.73z" fill="#eab76c"/><path d="m418.87 248.97c67.13 28.05 56.86 133.94 24.55 155.18-7.49 4.94-14.43 7.72-17.45-.4l-35.59-96.01z" fill="#ad2a34"/><path d="m318.01 216.07-13.28 64.3-85.82 51.96c-7.26 4.4-15.48-2.08-13.87-10.95 7.03-38.91 43.22-128.98 112.97-105.31z" fill="#de3c44"/><path d="m308.75 307.72c10.27-8.52 22.9 4.13 16.19 16.21l-35.69 97.68c-4.22 11.54-17.31 15.52-25.4 7.71l-44.16-42.56c-8.2-7.92-6.15-22.97 3.96-28.92z" fill="#ad2a34"/><path d="m405.58 425.69c4.3 11.17-3.19 24.25-14.38 25.13l-60.2 4.71c-11.04.87-18.86-10.7-15.17-22.43l31.17-99.32c2.06-13.77 19.57-15.48 22.43-2.2z" fill="#de3c44"/><path d="m398.9 245.32a6.159 6.159 0 0 1 -.87 6.41l-36.43 44.31a11.733 11.733 0 0 1 -9.02 4.4 10.808 10.808 0 0 1 -3.7-.65c-3.26-1.18-4.76-4.54-6.99-7.32-18.05-22.49-6.89-54.96-6.43-68.15a5.8 5.8 0 0 1 5.41-5.75c40.88-1.01 54.21 18.44 58.03 26.75z" fill="#ad2a34"/><path d="m292.19 245.739a6 6 0 0 1 -5.275-3.131l-1.591-2.921a6 6 0 0 1 10.539-5.739l1.591 2.921a6 6 0 0 1 -5.264 8.87z" fill="#ad323e"/><path d="m266.514 249.859a6 6 0 0 1 -4.494-9.972l2.227-2.521a6 6 0 1 1 8.992 7.945l-2.227 2.521a5.985 5.985 0 0 1 -4.498 2.027z" fill="#ad323e"/><path d="m291.444 270.7a6.006 6.006 0 0 1 -5.8-7.55l.885-3.314a6 6 0 0 1 11.594 3.1l-.886 3.315a6 6 0 0 1 -5.793 4.449z" fill="#ad323e"/><path d="m250.657 268.467a6 6 0 0 1 -5.432-3.447l-1.425-3.02a6 6 0 1 1 10.857-5.109l1.422 3.022a6 6 0 0 1 -5.425 8.556z" fill="#ad323e"/><path d="m270.927 272.083a6 6 0 0 1 -5.313-8.781l1.58-3.022a6 6 0 0 1 10.635 5.56l-1.58 3.022a6 6 0 0 1 -5.322 3.221z" fill="#ad323e"/><path d="m235.168 287.628a6 6 0 0 1 -2.686-11.369l2.928-1.463a6 6 0 0 1 5.362 10.736l-2.928 1.462a5.977 5.977 0 0 1 -2.676.634z" fill="#ad323e"/><path d="m256.27 292.269a6 6 0 0 1 -.669-11.962l3.187-.362a6 6 0 1 1 1.354 11.924l-3.188.361a6.072 6.072 0 0 1 -.684.039z" fill="#ad323e"/><path d="m227.555 310.826a6 6 0 0 1 -3.39-10.956l2.73-1.864a6 6 0 0 1 6.767 9.911l-2.729 1.863a5.974 5.974 0 0 1 -3.378 1.046z" fill="#ad323e"/><g fill="#84202c"><path d="m423.866 290.675a6 6 0 0 1 -2.31-11.54l3.006-1.253a6 6 0 0 1 4.616 11.077l-3.007 1.253a5.985 5.985 0 0 1 -2.305.463z"/><path d="m441.407 310.473a6 6 0 0 1 -5.982-5.621l-.216-3.407a6 6 0 0 1 11.976-.759l.216 3.407a6 6 0 0 1 -5.609 6.367c-.129.009-.257.013-.385.013z"/><path d="m409.358 310.641a6 6 0 0 1 -5.54-8.3l1.312-3.16a6 6 0 0 1 11.084 4.6l-1.312 3.16a6 6 0 0 1 -5.544 3.7z"/><path d="m442.557 335.247a6 6 0 0 1 -2.647-11.389l2.938-1.44a6 6 0 0 1 5.283 10.774l-2.938 1.441a5.981 5.981 0 0 1 -2.636.614z"/><path d="m424.541 324.971a6.084 6.084 0 0 1 -1.043-.091 6 6 0 0 1 -4.874-6.946l.593-3.38a6 6 0 0 1 11.82 2.073l-.593 3.38a6 6 0 0 1 -5.903 4.964z"/><path d="m443.068 360.214a6 6 0 0 1 -5.451-3.485l-1.4-3.033a6 6 0 1 1 10.893-5.033l1.4 3.033a6 6 0 0 1 -5.444 8.518z"/><path d="m423.774 350.2a5.985 5.985 0 0 1 -4.309-1.824l-2.27-2.341a6 6 0 0 1 8.617-8.353l2.27 2.342a6 6 0 0 1 -4.308 10.176z"/><path d="m434.986 383.245a6 6 0 0 1 -5.725-4.214l-1.005-3.218a6 6 0 1 1 11.455-3.576l1 3.218a6 6 0 0 1 -5.73 7.79z"/><path d="m302.822 334.76a6 6 0 0 1 -3.3-11.018l2.76-1.81a6 6 0 1 1 6.58 10.035l-2.76 1.81a5.972 5.972 0 0 1 -3.28.983z"/><path d="m275.354 354.983a6 6 0 0 1 -4.5-9.973l2.228-2.521a6 6 0 0 1 8.992 7.946l-2.227 2.521a5.985 5.985 0 0 1 -4.493 2.027z"/><path d="m296.282 364.46a6.007 6.007 0 0 1 -5.8-7.551l.886-3.314a6 6 0 0 1 11.594 3.1l-.886 3.314a6 6 0 0 1 -5.794 4.451z"/><path d="m249.387 395.973a6.005 6.005 0 0 1 -5.708-7.855l1.058-3.26a6 6 0 0 1 11.414 3.706l-1.058 3.26a6 6 0 0 1 -5.706 4.149z"/><path d="m285.242 391.933a6 6 0 0 1 -5.311-8.783l1.581-3.022a6 6 0 0 1 10.633 5.564l-1.581 3.021a6 6 0 0 1 -5.322 3.22z"/><path d="m243.429 371.309a6 6 0 0 1 -2.686-11.369l2.928-1.463a6 6 0 0 1 5.361 10.736l-2.927 1.462a5.977 5.977 0 0 1 -2.676.634z"/><path d="m265.269 377.633a6 6 0 0 1 -.669-11.962l3.187-.362a6 6 0 1 1 1.354 11.924l-3.188.362a6.07 6.07 0 0 1 -.684.038z"/><path d="m270.556 415.6a6 6 0 0 1 -3.39-10.956l2.73-1.863a6 6 0 0 1 6.767 9.91l-2.729 1.864a5.98 5.98 0 0 1 -3.378 1.045z"/></g><path d="m360.9 355.832a6 6 0 0 1 -5.693-4.111l-1.061-3.2a6 6 0 0 1 11.388-3.782l1.062 3.2a6.007 6.007 0 0 1 -5.7 7.893z" fill="#ad323e"/><path d="m370.111 389.358a6 6 0 0 1 -5.982-5.622l-.215-3.407a6 6 0 1 1 11.977-.755l.214 3.407a6 6 0 0 1 -5.61 6.366c-.129.007-.257.011-.384.011z" fill="#ad323e"/><path d="m348.053 383.242a6 6 0 0 1 -5.54-8.3l1.311-3.16a6 6 0 0 1 11.084 4.6l-1.311 3.16a6 6 0 0 1 -5.544 3.7z" fill="#ad323e"/><path d="m365.619 438.136a6 6 0 0 1 -5.656-8l1.143-3.23a6 6 0 0 1 11.313 4.006l-1.144 3.23a6 6 0 0 1 -5.656 3.994z" fill="#ad323e"/><path d="m340.068 411.817a6.093 6.093 0 0 1 -1.043-.091 6 6 0 0 1 -4.874-6.947l.593-3.38a6 6 0 0 1 11.821 2.074l-.593 3.379a6 6 0 0 1 -5.904 4.965z" fill="#ad323e"/><path d="m385.185 422.732a6 6 0 0 1 -5.452-3.485l-1.4-3.033a6 6 0 0 1 10.895-5.033l1.4 3.033a6 6 0 0 1 -5.442 8.518z" fill="#ad323e"/><path d="m364.3 413.553a5.981 5.981 0 0 1 -4.309-1.824l-2.27-2.341a6 6 0 1 1 8.615-8.354l2.271 2.342a6 6 0 0 1 -4.307 10.177z" fill="#ad323e"/><path d="m337.229 439.792a6 6 0 0 1 -5.726-4.214l-1-3.219a6 6 0 0 1 11.455-3.576l1 3.217a6 6 0 0 1 -5.729 7.79z" fill="#ad323e"/><path d="m379.734 252.335a6 6 0 0 1 -5.273-3.131l-1.591-2.92a6 6 0 0 1 10.537-5.741l1.593 2.921a6 6 0 0 1 -5.264 8.871z" fill="#84202c"/><path d="m349.63 246.355a6 6 0 0 1 -4.494-9.972l2.227-2.521a6 6 0 1 1 8.992 7.945l-2.227 2.521a5.985 5.985 0 0 1 -4.498 2.027z" fill="#84202c"/><path d="m360.88 265.061a6.006 6.006 0 0 1 -5.8-7.551l.886-3.314a6 6 0 0 1 11.594 3.1l-.886 3.314a6 6 0 0 1 -5.794 4.451z" fill="#84202c"/><path d="m353.07 286.392a6 6 0 0 1 -5.9-4.931l-.606-3.342a6 6 0 0 1 11.809-2.14l.605 3.342a6 6 0 0 1 -4.834 6.974 6.091 6.091 0 0 1 -1.074.097z" fill="#84202c"/><path d="m53.6 263.278c-.122 0-.244 0-.367-.011a6 6 0 0 1 -5.628-6.35c.294-4.867.744-9.836 1.34-14.77a6 6 0 0 1 11.914 1.438c-.568 4.7-1 9.425-1.276 14.054a6 6 0 0 1 -5.983 5.639z" fill="#f4f8fc"/><path d="m78.468 372.122a5.98 5.98 0 0 1 -4.8-2.4c-1.044-1.394-25.58-34.827-26.475-95.3a6 6 0 0 1 12-.178c.833 56.32 23.857 87.986 24.089 88.3a6 6 0 0 1 -4.813 9.583z" fill="#f4f8fc"/></svg>