<svg id="Layer_1" height="512" viewBox="0 0 512 512" width="512" xmlns="http://www.w3.org/2000/svg" data-name="Layer 1"><path d="m364.824 282.108-11.275-4.108a160.333 160.333 0 0 0 -6.594 23.56l11.863 7.811s0-.042 0-.133a57.528 57.528 0 0 1 3.3-19.577c.865-2.461 1.81-5.092 2.706-7.553z" fill="#44413c"/><path d="m442.97 374.45a59.816 59.816 0 0 0 -55.02-6.84 59.28 59.28 0 0 0 -25.92 18.83c-.78.98-1.53 2-2.26 3.04a59.506 59.506 0 0 0 15.14 82.94c13.29 9.18 32.77 12.68 47.55 10.26l22.12-9.62c5.65-3.93 9.36-9.68 13.52-15.67a59.507 59.507 0 0 0 -15.13-82.94z" fill="#624989"/><path d="m444.24 247.5a59.622 59.622 0 0 0 -72.35 43.57 60.7 60.7 0 0 0 -1.24 6.57 59.662 59.662 0 0 0 44.99 65.58c1.11.27 2.24.51 3.38.71 15.05 2.65 32.8-.8 44.83-7.79l17.05-17.11c3.87-5.69 5.35-12.31 7.1-19.38a59.624 59.624 0 0 0 -43.76-72.15z" fill="#7a6799"/><path d="m373.79 337.89a59.315 59.315 0 0 0 -20.9-35.42v-.01a59.768 59.768 0 0 0 -96.75 56.69c2.89 15.85 14.62 31.45 26.8 40.17l22.16 9.02c6.79 1.2 13.38.13 20.56-1.17a59.583 59.583 0 0 0 48.13-69.28z" fill="#534777"/><path d="m343.57 102.25a51.145 51.145 0 0 0 -.33-5.43 133.272 133.272 0 0 1 .43-35.38c30.42-28.81 79.23-41.39 151.8-14.18-62.91 149.99-164.45 88.65-165.74 87.87 8.27-8.03 14-18.71 13.84-32.88z" fill="#4ca987"/><path d="m359.18 284.06c-17.52-20.61-51.91-60.44-80.22-89.47-12.67-13-19.12-18-28.56-2.52l-38.96 51.74a59.669 59.669 0 0 0 -15.78-14.92l40.57-47.61a27.683 27.683 0 0 0 -5.05-31.58c-33.69-34.27-103.83-79.02-135.08-95.05a3.874 3.874 0 0 1 -2.1-3.44v-10.64a3.874 3.874 0 0 1 4.97-3.71c52.08 15.63 110.42 61.75 160.17 109.46 2.61 2.51 5.21 5.02 7.77 7.53 1.66 1.63 3.32 3.26 4.96 4.91a1316.09 1316.09 0 0 1 105.33 118.47 59.685 59.685 0 0 0 -5.31 13.84 60.7 60.7 0 0 0 -1.24 6.57s-4.34-5.2-11.47-13.58z" fill="#56524a"/><path d="m230.25 354.66c-2.61-14.31-11.76-27.93-22.15-36.57a59.358 59.358 0 0 1 -26.72 17.5c-6.95 2.23-15.8 4.16-22.7 3.86l-23.54-7.41a57.653 57.653 0 0 1 -8.87-5.86l-.05.06c-11.77 13.22-17.04 30.93-13.62 49.67 2.89 15.86 14.18 32.09 26.36 40.8l22.74 7.92c6.79 1.2 13.24.6 20.43-.7a59.57 59.57 0 0 0 48.12-69.27z" fill="#7a6799"/><path d="m106.15 297.06a59.372 59.372 0 0 1 8.69-53.49c-12.41-11.68-32.49-15.27-48.74-12.33a59.563 59.563 0 0 0 -48.12 69.27c2.89 15.86 14.31 31.9 26.49 40.61l22.6 8.12a68.876 68.876 0 0 0 20.43-.71 64.175 64.175 0 0 0 37.91-22.97l.04-.04a61.688 61.688 0 0 1 -19.3-28.46z" fill="#624989"/><path d="m444.58 473.06 4.85 8.85-15.15-2.35-10.52 11.11-1.3-7.99-1.15-7.1-13.86-6.55 13.64-6.98 1.96-15.15 10.88 10.77 15.06-2.81-6.91 13.64z" fill="#40375b"/><path d="m480.9 339.03 7.76 6.62-15 3.17-5.86 14.12-3.95-6.8-3.73-6.43-15.28-1.21 10.25-11.36-3.59-14.86 14.02 6.21 13.07-7.98-1.59 15.2z" fill="#433165"/><path d="m282.94 399.32 3.79-5.23-5.15-14.4 14.59 4.68 12.14-9.32.05 15.28 12.66 8.63-14.56 4.76-1.36 4.62-2.96 10.04-9.05-12.34-15.33.43z" fill="#383249"/><path d="m219.99 260.62a59.765 59.765 0 0 0 -113.84 36.44 61.688 61.688 0 0 0 19.3 28.46c.27.23.54.45.82.66a57.653 57.653 0 0 0 8.87 5.86h.01l23.53 7.41c6.9.3 15.75-1.63 22.7-3.86a59.537 59.537 0 0 0 38.61-74.97z" fill="#534777"/><path d="m130.6 383.91c-3.376-18.5 1.729-35.986 13.182-49.15l-8.642-2.72a57.653 57.653 0 0 1 -8.87-5.86l-.05.06c-11.77 13.22-17.04 30.93-13.62 49.67 2.89 15.86 14.18 32.09 26.36 40.8l14.1 4.911c-10.615-9.136-19.882-23.563-22.46-37.711z" fill="#5a4f70"/><path d="m85.1 244.24a65.009 65.009 0 0 1 28.335 1.339c.456-.678.921-1.35 1.405-2.009-12.41-11.68-32.49-15.27-48.74-12.33a59.563 59.563 0 0 0 -48.12 69.27c2.89 15.86 14.31 31.9 26.49 40.61l8.009 2.88c-7.51-8.628-13.515-19.6-15.5-30.488a59.563 59.563 0 0 1 48.121-69.272z" fill="#493a68"/><path d="m133.84 256.57a59.864 59.864 0 0 1 71.934-19.423 59.9 59.9 0 0 0 -90.934 6.423 59.372 59.372 0 0 0 -8.69 53.49 61.688 61.688 0 0 0 19.3 28.46c.27.23.54.45.82.66a57.653 57.653 0 0 0 8.87 5.86h.01l3.648 1.149a61.715 61.715 0 0 1 -13.648-23.129 59.372 59.372 0 0 1 8.69-53.49z" fill="#3d3656"/><path d="m177.48 415.72-14.56 4.76-1.22 4.15-3.1 10.52-9.05-12.34-15.32.43 4.73-6.53 4.24-5.86-5.16-14.4 14.6 4.69 12.13-9.33.05 15.28z" fill="#433165"/><path d="m82.86 340.32-14.57 4.77-1.22 4.15-3.09 10.51-9.06-12.34-15.32.43 4.87-6.72 4.1-5.67-5.16-14.4 14.6 4.69 12.14-9.33.05 15.28z" fill="#40375b"/><path d="m169.48 320.69-11.69 9.88.89 8.88.64 6.32-13.04-8.04-14.03 6.15 2.89-11.84h.01l.73-3.01-10.2-11.41 15.28-1.13 7.73-13.2 5.81 14.15z" fill="#383249"/><path d="m453.334 74.365a6.057 6.057 0 0 1 -.614-.032 104.421 104.421 0 0 0 -19.539-.06 6 6 0 0 1 -1.041-11.956 116.461 116.461 0 0 1 21.8.078 6 6 0 0 1 -.6 11.97z" fill="#448e70"/><path d="m343.57 108.253a6 6 0 0 1 -3.453-10.91c1.343-.944 33.346-23.2 72.807-32.009a6 6 0 0 1 2.613 11.712c-37.155 8.292-68.214 29.9-68.523 30.117a5.978 5.978 0 0 1 -3.444 1.09z" fill="#448e70"/><path d="m266.91 153.85c-2.56-2.51-5.16-5.02-7.77-7.53 0 0-1.02-129.89 102.72-124.85 0 0-13.73 11.44-18.19 39.97a133.272 133.272 0 0 0 -.43 35.38 51.145 51.145 0 0 1 .33 5.43c.16 14.17-5.57 24.85-13.84 32.88-20.85 20.21-57.85 23.62-57.85 23.62l-.01.01c-1.64-1.65-3.3-3.28-4.96-4.91z" fill="#5fcda4"/><g fill="#56a585"><path d="m310.35 89.864a6 6 0 0 1 -5.342-8.724c6.384-12.541 7.026-18.716 7.032-18.777a5.947 5.947 0 0 1 6.36-5.563 6.04 6.04 0 0 1 5.605 6.414c-.053.825-.731 8.483-8.309 23.369a6 6 0 0 1 -5.346 3.281z"/><path d="m310.754 105.253a6 6 0 0 0 -11.205-4.3c-6.9 18-19.152 34.224-36.42 48.236a6 6 0 0 0 -.516.476q2.161 2.09 4.3 4.18 2.151 2.112 4.285 4.242c18.649-15.258 31.963-33.029 39.556-52.834z"/></g></svg>