<svg id="Layer_1" height="512" viewBox="0 0 512 512" width="512" xmlns="http://www.w3.org/2000/svg" data-name="Layer 1"><path d="m362.83 246.39c15.8-11.17 69.32-37.43 105.68 6.23 39.48 47.4 12.38 109.67 12.29 109.88a99.845 99.845 0 0 1 -112.79 57.19c-10.66-2.37-20.01-5.89-27.18-10.33-32.88-20.38-55.03-57.38-51-95.93 8.34-79.8 72.61-66.77 72.61-66.77z" fill="#cc443a"/><path d="m201.72 307.64s10.7 8.62 35.4 7.26c30.81-1.68 56.18 33.82 46.98 87.83a113.728 113.728 0 0 1 -73.12 87.54c-12.83 4.67-25.23 5.77-40.61 3.79a136.113 136.113 0 0 1 -49.35-16.33c-12.38-6.96-22.11-15.05-29.15-25.1a114.084 114.084 0 0 1 -9.74-113.77c23.4-49.52 64.5-63.98 88.76-44.87 19.45 15.32 30.83 13.65 30.83 13.65z" fill="#e25240"/><path d="m274.62 53.09a10.4 10.4 0 0 1 .45 5.09c-22.43 139.23-222.07 99.24-251.63 91.97a1.847 1.847 0 0 1 -.01-3.58c13.19-3.44 47-11.23 94.77-63.36 66.15-72.17 131.57-46.31 151.53-35.8a10.275 10.275 0 0 1 4.89 5.68z" fill="#8ead6d"/><path d="m366.1 249.08c10.17 8.07 21.74 8.47 21.74 16.31a27.462 27.462 0 0 1 -15.45 9.04h-.01c-.3-.1-11.76-3.84-7.81-26.34l.13-.15c.46.39.93.77 1.4 1.14z" fill="#b63830"/><path d="m216.87 334.7c-16.36 6.48-28.62-1.92-35.72-9.51h.01s22.33-24.82 35.71 9.51z" fill="#b63830"/><path d="m398.01 419.69c-10.66-2.37-20.01-5.89-27.18-10.33-32.88-20.38-55.03-57.38-51-95.93 5.438-52.036 34.655-64.6 54.329-67.04h-11.329l-.39.27s-64.27-13.03-72.61 66.77c-4.03 38.55 18.12 75.55 51 95.93 7.17 4.44 16.52 7.96 27.18 10.33a98.7 98.7 0 0 0 36.545 1.206c-2.182-.335-4.365-.72-6.545-1.206z" fill="#aa3835"/><path d="m121.87 452.63a114.084 114.084 0 0 1 -9.74-113.77c12.978-27.464 31.4-44.125 49.373-50.275-24.469-9.725-58.776 6.686-79.373 50.275a114.084 114.084 0 0 0 9.74 113.77c7.04 10.05 16.77 18.14 29.15 25.1a136.113 136.113 0 0 0 49.35 16.33 89.148 89.148 0 0 0 27.826-.306 136.047 136.047 0 0 1 -47.176-16.024c-12.38-6.96-22.11-15.05-29.15-25.1z" fill="#bc443b"/><path d="m319.454 40.267c-2.33.115-57.563 3.12-102.083 27.217-11.836 6.407-21.186 14.25-30.228 21.835-13.063 10.959-24.345 20.423-40.256 23.266a6 6 0 0 0 1.048 11.907 5.925 5.925 0 0 0 1.065-.092c19.061-3.4 32.077-14.324 45.858-25.884 8.584-7.2 17.46-14.648 28.228-20.476 42.074-22.774 96.425-25.759 96.967-25.786z" fill="#51663d"/><path d="m117.159 135.3a6 6 0 0 1 -1.219-11.875 42.188 42.188 0 0 0 13.26-4.625 6 6 0 0 1 5.493 10.67 53.718 53.718 0 0 1 -16.3 5.706 6.033 6.033 0 0 1 -1.234.124z" fill="#51663d"/><path d="m375.45 248.021a38.306 38.306 0 0 1 -5.619-3.641c-37.177-29.5-51.551-74.776-57.063-107.563a278.743 278.743 0 0 1 -3.275-62.691 5.991 5.991 0 0 1 .944-2.826c19.675-30.522 34.4-50.424 34.626-50.722a6 6 0 0 0 -9.633-7.156 1171.977 1171.977 0 0 0 -68.366 106.178c-45.934 80.71-70.13 147-71.916 197.039a6 6 0 0 0 5.783 6.21h.217a6 6 0 0 0 5.993-5.787c1.69-47.376 26-113.567 70.285-191.413q4.608-8.1 9.187-15.827a6 6 0 0 1 11.147 2.61c.6 8 1.574 16.785 3.119 26.046 8.368 50.146 29.632 90.015 61.493 115.3a50.114 50.114 0 0 0 7.344 4.784 6 6 0 0 0 5.734-10.543z" fill="#6f624b"/><g fill="#f4f8fc"><path d="m104.906 413.368a6 6 0 0 1 -5.663-4.018c-8.534-24.37-1.331-49.089.2-53.8a6 6 0 1 1 11.412 3.711c-1.321 4.064-7.545 25.389-.285 46.119a6 6 0 0 1 -5.663 7.985z"/><path d="m112.17 347.062a6 6 0 0 1 -5.155-9.06 54.326 54.326 0 0 1 5.275-7.571 6 6 0 0 1 9.052 7.877 45.092 45.092 0 0 0 -4 5.813 6 6 0 0 1 -5.172 2.941z"/><path d="m355.476 390.554a5.972 5.972 0 0 1 -2.838-.718c-22.7-12.216-34.025-35.339-36.065-39.85a6 6 0 0 1 10.935-4.943c1.76 3.893 11.516 23.841 30.817 34.227a6 6 0 0 1 -2.849 11.284z"/><path d="m316.221 336.7a6 6 0 0 1 -5.869-4.787 54.778 54.778 0 0 1 -1.2-9.153 6 6 0 0 1 12-.277 45.291 45.291 0 0 0 .957 7 6.005 6.005 0 0 1 -5.883 7.215z"/></g></svg>