<svg id="Layer_1" height="512" viewBox="0 0 512 512" width="512" xmlns="http://www.w3.org/2000/svg" data-name="Layer 1"><path d="m191.13 49.43a105.683 105.683 0 0 0 -71.82 11.1q-3.135 1.725-6.17 3.69c-46.67 30.12-117.77 100.42-89.82 240.16 0 0 4.26 27.38 19.29 60.49 43.34 95.51 150.13 121.16 227.83 82.42v-.01l36.25-333.64c-36.47-39.55-83.67-57.87-115.56-64.21z" fill="#917d58"/><path d="m72.61 364.87c-15.03-33.11-19.29-60.49-19.29-60.49-27.95-139.74 43.15-210.04 89.82-240.16q3.03-1.965 6.17-3.69a105.439 105.439 0 0 1 36.014-12.072 105.4 105.4 0 0 0 -66.014 12.072q-3.135 1.725-6.17 3.69c-46.67 30.12-117.77 100.42-89.82 240.16 0 0 4.26 27.38 19.29 60.49 32.966 72.648 102.64 104.867 168.3 99.086-55.943-4.921-110.333-37.456-138.3-99.086z" fill="#63553e"/><path d="m167.51 66.96a6.173 6.173 0 0 1 -3.9 10.82l-7.7.22a6.188 6.188 0 0 0 -5.44 3.59l-2.43 5.26a6.211 6.211 0 0 1 -11.38-.27 6.188 6.188 0 0 0 -6.27-3.84l-6.39.54a6.182 6.182 0 0 1 -6.46-7.92l1.77-14.83a105.481 105.481 0 0 1 39.66-12.54l1.16 9.05a6.181 6.181 0 0 0 2.08 5.29z" fill="#7c705d"/><path d="m391.36 114.49c44.47 22.1 115.28 77.05 102.01 199.9 0 0-5.46 33.89-24.92 70.98-27.74 52.86-77.81 77.74-127.89 78.13a151.539 151.539 0 0 1 -19.28-1.06l35.74-357.61a95.922 95.922 0 0 1 34.34 9.66z" fill="#8f6033"/><path d="m289.96 455.41a150.5 150.5 0 0 1 -19.52-8.13c-38.41-19.25-68.89-55.23-77.39-105.74-5.22-31.02-2.6-54.76-2.6-54.76 7.31-110.17 69.85-154.99 116.24-173.14 5.24-2.05 10.26-3.76 14.98-5.18a93.851 93.851 0 0 1 35.35-3.63l-35.74 357.61a154.168 154.168 0 0 1 -31.31-7.02z" fill="#a16b38"/><path d="m310.11 245.54c5.8 13.78 11.31 38.32-6.07 63.94a6.6 6.6 0 0 1 -11.6-1.21c-9.21-23.59-.9-48.85 5.6-62.96a6.6 6.6 0 0 1 12.07.23z" fill="#463225"/><path d="m384.08 254.92c5.8 13.79 11.31 38.33-6.07 63.94a6.606 6.606 0 0 1 -11.6-1.2c-9.21-23.6-.9-48.86 5.6-62.97a6.6 6.6 0 0 1 12.07.23z" fill="#463225"/><path d="m319.96 455.41a150.5 150.5 0 0 1 -19.52-8.13c-38.41-19.25-68.89-55.23-77.39-105.74-5.22-31.02-2.6-54.76-2.6-54.76 7.31-110.17 69.85-154.99 116.24-173.14 5.24-2.05 10.26-3.76 14.98-5.18 1.7-.512 3.408-.96 5.124-1.373l.226-2.257a93.851 93.851 0 0 0 -35.35 3.63c-4.72 1.42-9.74 3.13-14.98 5.18-46.39 18.15-108.93 62.97-116.24 173.14 0 0-2.62 23.74 2.6 54.76 8.5 50.51 38.98 86.49 77.39 105.74a150.5 150.5 0 0 0 19.52 8.13l.01.01a154.168 154.168 0 0 0 31.31 7.02l.639-6.392c-.65-.209-1.3-.41-1.949-.628z" fill="#7f5532"/><g fill="#684429"><path d="m295.3 452.652a380.081 380.081 0 0 1 -29.262-84.607c-6.041-27.9-8.1-54.177-6.114-78.1 2.454-29.589 11.143-55.644 25.827-77.44a290.177 290.177 0 0 0 26.991-49.589 6 6 0 1 0 -11.064-4.644 278.213 278.213 0 0 1 -25.884 47.528c-15.871 23.559-25.241 51.592-27.848 83.319-2.065 25.145.095 52.651 6.422 81.754a396.986 396.986 0 0 0 27.442 81.508c2.691 1.08 5.4 2.1 8.15 3.028l.01.01c1.895.638 3.806 1.226 5.723 1.79a5.979 5.979 0 0 0 -.393-4.557z"/><path d="m312.265 147.748a5.992 5.992 0 0 0 7.561-3.85c6.9-21.211 7.794-34.508 7.829-35.064a5.971 5.971 0 0 0 -.187-1.9c-1.943.453-3.879.945-5.8 1.524-2.024.609-4.114 1.283-6.242 2a164.7 164.7 0 0 1 -7.014 29.724 6 6 0 0 0 3.853 7.566z"/><path d="m371.477 428.16a6 6 0 0 0 -8.425 1.01 301.931 301.931 0 0 1 -26.609 29.966 5.97 5.97 0 0 0 -1.876 4.285c2 .062 4 .1 5.993.079q4.417-.035 8.83-.331a342.82 342.82 0 0 0 23.1-26.584 6 6 0 0 0 -1.013-8.425z"/><path d="m385.386 115.005c.054.628 5.668 63.517 27.584 128.4 21.3 63.052-7.854 125.547-36.06 166.871a6 6 0 1 0 9.912 6.765c29.743-43.577 60.4-109.741 37.517-177.476-18.376-54.4-25.047-107.37-26.611-121.773q-3.258-1.761-6.368-3.3c-1.8-.892-3.621-1.7-5.459-2.477a5.967 5.967 0 0 0 -.515 2.99z"/></g></svg>