<svg id="Layer_1" height="512" viewBox="0 0 512 512" width="512" xmlns="http://www.w3.org/2000/svg" data-name="Layer 1"><path d="m418.47 463.88c-29.9 16.46-55.22-8.47-55.22-8.47-6.47 9.14 3.47 21.36 3.47 21.36-13.12-1.66-29.36-5.87-31.23-16.52-3.19-18.17-31.5-17.64-31.5-17.64s8.52 10-6.45 15.34c-13.51 4.81-9.04 13.97-8.05 15.71-.65-.51-3.53-1.67-15.9-3.38-16.97-2.33-7.98-17.67-7.98-17.67l7.06-8.8 9.72-12.1c-27.13.89-33.56-17.26-33.56-17.26 12.88 1.39 11.73-11.1 11.73-11.1-17.97-4.46-32.63-36.85-32.63-36.85 13.2-.18 16.86 2.77 29.69 14.67 4.33 4.01 4.65-1.49 3.46-9.61a91.3 91.3 0 0 0 -16.68-40.27c-.97-1.34-1.97-2.64-3-3.93-31.8-39.5-6.59-65.65-6.59-65.65-4.8 24.08 10.89 47.47 18.88 54.8a2.1 2.1 0 0 0 3.52-1.59c-.05-4.5-.21-12.42-.71-21.41-.42-7.43 2.84-17.15 6.39-26.49 3.07-8.08 6.36-15.87 7.68-21.69 2.85-12.55-15.01-29.51-15.01-29.51 4.41-2.87 12.41.47 17.77 3.36a34.346 34.346 0 0 1 5.65 3.85c.67.54 1.31 1.11 1.94 1.7 4.63 4.32 15.75 11.52 23.07-9.74 9.46-27.43 13.86-22.53 21.89-28.27 0 0 14.75-6.54 15.5-26.96a27.377 27.377 0 0 1 3.36-12.33c4.37-7.85 12.07-19.6 18.51-18.48 0 0 1.74 45.79 18.51 57.77 8.03 5.74 12.43.84 21.88 28.27 7.33 21.26 18.44 14.06 23.08 9.74a36.527 36.527 0 0 1 7.59-5.55c5.36-2.89 13.36-6.23 17.77-3.36 0 0-17.86 16.96-15.01 29.51s14.85 34.32 14.07 48.18c-.5 8.99-.66 16.91-.71 21.41a2.1 2.1 0 0 0 3.52 1.59c7.99-7.33 23.68-30.72 18.88-54.8 0 0 25.21 26.15-6.59 65.65a92.1 92.1 0 0 0 -19.68 44.2c-1.19 8.12-.87 13.62 3.45 9.61 12.84-11.9 16.5-14.85 29.7-14.67 0 0-14.66 32.39-32.63 36.85 0 0-1.16 12.49 11.73 11.1 0 0-6.44 18.15-33.56 17.26l16.78 20.9s8.99 15.34-7.98 17.67c-12.37 1.71-15.25 2.87-15.9 3.38.66-1.15 2.83-5.55.32-9.78z" fill="#d85269"/><path d="m282.39 431.71-9.72 12.1c-16.4-.02-39.47-.02-47.23 13.17-15.96 27.14-55.54 13.64-55.54 13.64h-.01a17.669 17.669 0 0 0 -.15-10c41.63-3.5 52.72-45.9 55.65-66.17a5.012 5.012 0 0 0 -7.46-5.08c-6.31 3.69-15.42 8.11-24.82 9.61 0 0 22.47-23.18 7.12-55.78a74.677 74.677 0 0 1 -3.89-10.27c18.15 3.73 35.52 2.92 48.06-1.64a91.3 91.3 0 0 1 16.68 40.27c1.19 8.12.87 13.62-3.46 9.61-12.83-11.9-16.49-14.85-29.69-14.67 0 0 14.66 32.39 32.63 36.85 0 0 1.15 12.49-11.73 11.1 0 0 6.43 18.15 33.56 17.26z" fill="#af4650"/><path d="m272.14 67.26a5.11 5.11 0 0 1 7.4 5.8c-3.62 13.98-8.73 39.79-6.52 68.13 3 38.4-10.34 50.26 5.96 81.84a34.346 34.346 0 0 0 -5.65-3.85c-5.36-2.89-13.36-6.23-17.77-3.36 0 0 17.86 16.96 15.01 29.51-1.32 5.82-4.61 13.61-7.68 21.69-7.97-12.19-22.7-26.02-22.06-43.04 1.02-27.51-5.93-54.1-14.56-76 0 0 2.49-26.37 14.56-50.47 7.4-14.79 21.51-24.75 31.31-30.25z" fill="#e8575e"/><path d="m201.39 127.5a177.992 177.992 0 0 0 -2.23-23.85 2.085 2.085 0 0 1 3.82-1.45 275.5 275.5 0 0 1 23.29 45.78c8.63 21.9 15.58 48.49 14.56 76-.64 17.02 14.09 30.85 22.06 43.04-3.55 9.34-6.81 19.06-6.39 26.49.5 8.99.66 16.91.71 21.41a2.1 2.1 0 0 1 -3.52 1.59c-7.99-7.33-23.68-30.72-18.88-54.8 0 0-25.21 26.15 6.59 65.65 1.03 1.29 2.03 2.59 3 3.93-12.54 4.56-29.91 5.37-48.06 1.64-5.99-19.88-5.45-44.23-.3-60.82a4 4 0 0 0 -6.46-4.21c-7.05 6.2-16.44 14.07-25.92 20.93a311.174 311.174 0 0 0 -12.46-33.28s-2.86-30.75 30.6-43.94c27.17-10.7 10.94-33.58 16.9-56.72a103.268 103.268 0 0 0 2.69-27.39z" fill="#ea7076"/><path d="m217.93 389.37a5.012 5.012 0 0 1 7.46 5.08c-2.93 20.27-14.02 62.67-55.65 66.17-1.31-4.26-4.35-8.69-9.81-13.18-11.64-9.55-20.98-16.61-28.51-22.64l.01-.01s10.89-24.35 5.5-40.99c0 0 12.45.54 37.06 12.88 5.95 2.99 12.61 3.35 19.12 2.3 9.4-1.5 18.51-5.92 24.82-9.61z" fill="#739937"/><path d="m201.39 127.5a103.268 103.268 0 0 1 -2.69 27.39c-5.96 23.14 10.27 46.02-16.9 56.72-33.46 13.19-30.6 43.94-30.6 43.94-6.63-14.97-15.52-31.26-25.68-40.25a80.543 80.543 0 0 1 -15.01-17.61c.44-17.83 6.99-28.12 12.72-33.74a56.766 56.766 0 0 0 4.5-4.95 53.807 53.807 0 0 0 12.42-33.22c.14-10.85-2.1-23.83-9.4-37.99-15.54-30.13-19.15-55.24-19.99-65.61a4.792 4.792 0 0 1 5.41-5.14c22.4 3.03 50.9 41.1 58.65 69.63 8.22 30.26 25.75 40.38 26.57 40.83z" fill="#d0393c"/><path d="m200.23 343.2c15.35 32.6-7.12 55.78-7.12 55.78-6.51 1.05-13.17.69-19.12-2.3-24.61-12.34-37.06-12.88-37.06-12.88-2.72-8.43-9.62-14.89-24.24-15.2 0 0 21.22-13.34-17.84-44.92l.01-.01c2.92-10.75 26.91-14.99 43.57-20.43 7.22-2.35 16.27-7.92 25.23-14.41 9.48-6.86 18.87-14.73 25.92-20.93a4 4 0 0 1 6.46 4.21c-5.15 16.59-5.69 40.94.3 60.82a74.677 74.677 0 0 0 3.89 10.27z" fill="#d0393c"/><path d="m169.74 460.62a17.669 17.669 0 0 1 .15 10c-1.76 6.6-6.87 12.38-11.91 16.7a31.781 31.781 0 0 1 -24.94 7.4c-24.46-3.25-34.44-17.21-37.26-33.58-1.67-9.63-.86-20.1.93-29.7a151.956 151.956 0 0 1 4.65-18.2c1.35-4.24 2.69-7.84 3.74-10.51a2.547 2.547 0 0 1 4.58-.34c4.74 8 11.6 14.28 21.74 22.41 7.53 6.03 16.87 13.09 28.51 22.64 5.46 4.49 8.5 8.92 9.81 13.18z" fill="#c6474e"/><path d="m151.2 255.55a311.174 311.174 0 0 1 12.46 33.28c-8.96 6.49-18.01 12.06-25.23 14.41-16.66 5.44-40.65 9.68-43.57 20.43l-.01.01a235.52 235.52 0 0 0 -24.63-17.17.01.01 0 0 1 -.01-.01c-24.63-17.18-7.39-73.57-1.48-83.45a94.929 94.929 0 0 0 7.54-15.31c7.22-19.35 1.01-28.89 4.59-42.81 1.85-7.21 5.8-10.54 9.75-11.98a7.425 7.425 0 0 1 9.9 7.72c-1.03 10.69 1.92 24.13 10 37.02a80.543 80.543 0 0 0 15.01 17.61c10.16 8.99 19.05 25.28 25.68 40.25z" fill="#e8575e"/><path d="m136.93 383.8c5.39 16.64-5.5 40.99-5.5 40.99l-.01.01c-10.14-8.13-17-14.41-21.74-22.41a2.547 2.547 0 0 0 -4.58.34c-1.05 2.67-2.39 6.27-3.74 10.51h-.01c-7.39-6.52-16.44-9.62-25.34-10.83-12.61-5.85-11.34-16.73-11.34-16.73s.87-3.43 5.46-7.22c5.92-4.89 18.06-10.38 42.56-9.86 14.62.31 21.52 6.77 24.24 15.2z" fill="#e8747d"/><path d="m106.15 118.86c24.24 17.47 21.58 40.14 21.58 40.14a56.766 56.766 0 0 1 -4.5 4.95c-5.73 5.62-12.28 15.91-12.72 33.74-8.08-12.89-11.03-26.33-10-37.02a7.425 7.425 0 0 0 -9.9-7.72c-3.95 1.44-7.9 4.77-9.75 11.98-3.58 13.92 2.63 23.46-4.59 42.81-23.73-114.83-7.44-138.29-.23-143.07a1.625 1.625 0 0 1 2.5 1.34c.16 6.25 5.19 18.37 6.1 22.53 3.08 14.12 11.19 22.87 21.51 30.32z" fill="#739937"/><path d="m94.85 323.68c39.06 31.58 17.84 44.92 17.84 44.92-24.5-.52-36.64 4.97-42.56 9.86a108.359 108.359 0 0 1 -10.25-19.34c-10.02-24.46-9.5-47.68-8.6-57.85a3.562 3.562 0 0 1 5.29-2.8q7.365 4.155 13.64 8.03a.01.01 0 0 0 .01.01 235.52 235.52 0 0 1 24.63 17.17z" fill="#ea7076"/><path d="m76.01 402.41c8.9 1.21 17.95 4.31 25.34 10.83h.01a151.956 151.956 0 0 0 -4.65 18.2c-4.38.82-11.14.42-18.86-1.59a77.776 77.776 0 0 1 -38.93-24.01 93.085 93.085 0 0 1 16.56-3.41 81.791 81.791 0 0 1 20.53-.02z" fill="#b53e44"/><path d="m95.78 461.14h-.01l-4.53 21.09a4.807 4.807 0 0 1 -6.13 1.29l-21.15-11.57a4.842 4.842 0 0 1 -2.38-5.35c1.98-8.5 4.2-29.41 16.27-36.75 7.72 2.01 14.48 2.41 18.86 1.59-1.79 9.6-2.6 20.07-.93 29.7z" fill="#5c776c"/><path d="m76.01 402.41a81.791 81.791 0 0 0 -20.53.02v-.01c-16.73-5.46-23.46-28.69-25.73-39.61a2.444 2.444 0 0 1 3.56-2.64c12.49 6.42 26.57-1.05 26.57-1.05a108.359 108.359 0 0 0 10.25 19.34c-4.59 3.79-5.46 7.22-5.46 7.22s-1.27 10.88 11.34 16.73z" fill="#739937"/><ellipse cx="354.75" cy="329.58" fill="#d0e4e7" rx="78.5" ry="105"/><path d="m155.52 215.3a80.543 80.543 0 0 1 -15.01-17.61c.44-17.83 6.99-28.12 12.72-33.74a56.766 56.766 0 0 0 4.5-4.95 53.807 53.807 0 0 0 12.42-33.22c.14-10.85-2.1-23.83-9.4-37.99a187.464 187.464 0 0 1 -18.725-55.39c-8.553-8.378-17.616-14.242-25.855-15.357a4.792 4.792 0 0 0 -5.41 5.14c.84 10.37 4.45 35.48 19.99 65.61 7.3 14.16 9.54 27.14 9.4 37.99a53.807 53.807 0 0 1 -12.42 33.217 56.766 56.766 0 0 1 -4.5 4.95c-5.73 5.62-12.28 15.91-12.72 33.74a80.543 80.543 0 0 0 15.01 17.61c10.16 8.99 19.05 25.28 25.68 40.25a43.948 43.948 0 0 1 12.021-31.831 60.9 60.9 0 0 0 -7.701-8.419z" fill="#9e3237"/><path d="m125.78 461.14c-1.67-9.63-.86-20.1.93-29.7.574-3.062 1.247-6.031 1.968-8.864-8.649-7.087-14.7-12.932-19-20.186a2.547 2.547 0 0 0 -4.58.34c-1.05 2.67-2.39 6.27-3.74 10.51a151.956 151.956 0 0 0 -4.65 18.2c-1.79 9.6-2.6 20.07-.93 29.7 2.82 16.37 12.8 30.33 37.26 33.58a31.81 31.81 0 0 0 17.937-2.83c-15.818-5.637-22.893-17.39-25.195-30.75z" fill="#9e444d"/><path d="m100.21 306.5c-24.63-17.18-7.39-73.57-1.48-83.45a94.929 94.929 0 0 0 7.54-15.31 57.7 57.7 0 0 0 3.121-11.914c-7.225-12.313-9.861-24.98-8.881-35.156a7.425 7.425 0 0 0 -9.9-7.72c-3.95 1.44-7.9 4.77-9.75 11.98-3.58 13.92 2.63 23.46-4.59 42.81a94.929 94.929 0 0 1 -7.54 15.31c-5.91 9.88-23.15 66.27 1.48 83.45a.01.01 0 0 0 .01.01 235.52 235.52 0 0 1 24.63 17.17l.01-.01c1.329-4.892 7.027-8.434 14.407-11.356-2.826-1.885-5.822-3.815-9.047-5.8a.01.01 0 0 1 -.01-.014z" fill="#c14f5b"/><path d="m93.88 107.706a44.158 44.158 0 0 1 -9.24-19.166c-.91-4.16-5.94-16.28-6.1-22.53a1.625 1.625 0 0 0 -2.5-1.34c-7.21 4.78-23.5 28.24.23 143.07 7.22-19.35 1.01-28.89 4.59-42.81 1.85-7.21 5.8-10.54 9.75-11.98a7.3 7.3 0 0 1 6.377.649c-2.441-19.03-3.287-34.049-3.107-45.893z" fill="#627c31"/><path d="m80.846 313.367q-4.9-3.32-10.626-6.857a.01.01 0 0 1 -.01-.01q-6.285-3.87-13.64-8.03a3.562 3.562 0 0 0 -5.29 2.8c-.9 10.17-1.42 33.39 8.6 57.85a108.359 108.359 0 0 0 10.25 19.34c4.246-3.507 11.694-7.323 24.607-9.009a109.512 109.512 0 0 1 -4.857-10.331 125.774 125.774 0 0 1 -9.034-45.753z" fill="#bf6673"/><path d="m68.92 405.84a86.717 86.717 0 0 1 11.451-2.674q-2.179-.458-4.361-.756a81.791 81.791 0 0 0 -20.53.02 93.085 93.085 0 0 0 -16.56 3.41 77.776 77.776 0 0 0 38.93 24.01c7.72 2.01 14.48 2.41 18.86 1.59q.477-2.541 1.034-4.992a76.641 76.641 0 0 1 -28.824-20.608z" fill="#89333c"/><path d="m60.475 360.533c-.2-.471-.4-.943-.595-1.413 0 0-14.08 7.47-26.57 1.05a2.444 2.444 0 0 0 -3.56 2.64c2.27 10.92 9 34.15 25.73 39.61v.01a81.791 81.791 0 0 1 20.53-.02c-12.61-5.85-11.34-16.73-11.34-16.73a10.8 10.8 0 0 1 1.541-3.014 91.274 91.274 0 0 1 -6.461-19.856 2.364 2.364 0 0 1 .725-2.277z" fill="#627c31"/><path d="m306.25 329.58c0-51.127 27.325-93.711 63.5-103.077a59.719 59.719 0 0 0 -15-1.923c-43.35 0-78.5 47.01-78.5 105s35.15 105 78.5 105a59.719 59.719 0 0 0 15-1.923c-36.175-9.366-63.5-51.95-63.5-103.077z" fill="#b5c2c4"/><g fill="#515956"><path d="m323.892 263.884a6 6 0 0 1 -5.52-3.642l-1.807-4.228a6 6 0 0 1 11.035-4.714l1.807 4.227a6 6 0 0 1 -5.513 8.361z"/><path d="m308.681 301.32a6 6 0 0 1 -3.271-11.034l5.122-3.322a6 6 0 0 1 6.529 10.069l-5.121 3.321a5.975 5.975 0 0 1 -3.259.966z"/><path d="m313.445 336.745h-4.669a6 6 0 1 1 0-12h4.669a6 6 0 1 1 0 12z"/><path d="m359.439 368.5a6 6 0 0 1 -6-6v-5.628a6 6 0 0 1 12 0v5.628a6 6 0 0 1 -6 6z"/><path d="m371.944 328.8a6 6 0 0 1 -2.371-11.514l4.218-1.812a6 6 0 0 1 4.736 11.027l-4.217 1.811a5.981 5.981 0 0 1 -2.366.488z"/><path d="m320.073 401.066a6 6 0 0 1 -6-6v-5.974a6 6 0 0 1 12 0v5.974a6 6 0 0 1 -6 6z"/><path d="m299.787 358.935h-3.642a6 6 0 0 1 0-12h3.642a6 6 0 0 1 0 12z"/><path d="m397 292.32a6 6 0 0 1 -6-6v-5.31a6 6 0 0 1 12 0v5.31a6 6 0 0 1 -6 6z"/><path d="m413.492 358.371a6 6 0 0 1 -5.5-8.4l2.319-5.31a6 6 0 1 1 11 4.8l-2.318 5.311a6 6 0 0 1 -5.501 3.599z"/><path d="m336.544 322.955a6 6 0 0 1 -5.6-8.141l1.466-3.844a6 6 0 0 1 11.211 4.279l-1.467 3.843a6 6 0 0 1 -5.61 3.863z"/><path d="m373.648 259.762a6 6 0 0 1 -5.838-4.638l-1.044-4.478a6 6 0 0 1 11.685-2.727l1.049 4.481a6.008 6.008 0 0 1 -5.848 7.366z"/><path d="m352.164 293.968a5.984 5.984 0 0 1 -4.383-1.9l-4.025-4.3a6 6 0 1 1 8.764-8.2l4.025 4.3a6 6 0 0 1 -4.381 10.1z"/><path d="m358.44 340.765a6.01 6.01 0 0 1 -1.054-.094l-4.6-.815a6 6 0 1 1 2.094-11.815l4.6.815a6 6 0 0 1 -1.039 11.909z"/><path d="m389.566 374.218a6 6 0 0 1 -5.915-7.044l.979-5.542a6 6 0 1 1 11.816 2.087l-.978 5.542a6 6 0 0 1 -5.902 4.957z"/><path d="m409.68 332.071a6 6 0 0 1 -1.365-11.843l4.468-1.047a6 6 0 1 1 2.739 11.683l-4.468 1.048a6.008 6.008 0 0 1 -1.374.159z"/><path d="m339.812 386.286a6.067 6.067 0 0 1 -1.05-.092 6 6 0 0 1 -4.865-6.952l1.039-5.883a6 6 0 1 1 11.817 2.087l-1.039 5.883a6 6 0 0 1 -5.902 4.957z"/><path d="m331.68 363.056a6.022 6.022 0 0 1 -1.055-.094l-3.588-.636a6 6 0 1 1 2.1-11.815l3.588.636a6 6 0 0 1 -1.041 11.909z"/><path d="m347.221 252.731a6.07 6.07 0 0 1 -1.051-.092 6 6 0 0 1 -4.864-6.953l.923-5.229a6 6 0 1 1 11.817 2.088l-.924 5.229a6 6 0 0 1 -5.901 4.957z"/><path d="m365.115 306.216a6 6 0 0 1 -3.629-10.782l4.507-3.416a6 6 0 0 1 7.248 9.563l-4.507 3.419a5.977 5.977 0 0 1 -3.619 1.216z"/><path d="m372.479 280.748a6 6 0 0 1 -4.075-10.4l4.494-4.158a6 6 0 0 1 8.149 8.81l-4.494 4.157a5.979 5.979 0 0 1 -4.074 1.591z"/><path d="m314.347 283.592a6 6 0 0 1 -5.76-4.33l-.9-3.118a6 6 0 1 1 11.525-3.343l.9 3.118a6 6 0 0 1 -5.765 7.673z"/><path d="m345.821 270.971a6 6 0 0 1 -2.178-11.593l2.455-.956a6 6 0 0 1 4.353 11.183l-2.451.955a5.979 5.979 0 0 1 -2.179.411z"/><path d="m297.2 316.834a5.986 5.986 0 0 1 -2.483-.541l-4.23-1.926a6 6 0 0 1 4.975-10.921l4.23 1.926a6 6 0 0 1 -2.492 11.462z"/><path d="m348.138 416.629a6 6 0 0 1 -6-6v-5.394a6 6 0 0 1 12 0v5.394a6 6 0 0 1 -6 6z"/><path d="m377.382 412.32a6 6 0 0 1 -5.512-3.623l-1.969-4.56a6 6 0 0 1 11.018-4.757l1.969 4.56a6 6 0 0 1 -5.506 8.38z"/><path d="m393.326 321.033a6 6 0 0 1 -5.615-3.887l-2.308-6.125a6 6 0 0 1 11.229-4.23l2.308 6.125a6 6 0 0 1 -5.614 8.117z"/><path d="m377.943 349.584a6 6 0 0 1 -4.442-10.031l3.845-4.238a6 6 0 0 1 8.888 8.062l-3.844 4.239a5.989 5.989 0 0 1 -4.447 1.968z"/><path d="m370.927 387.094h-3.461a6 6 0 0 1 0-12h3.461a6 6 0 0 1 0 12z"/><path d="m308.25 375.39a6.009 6.009 0 1 1 4.24-1.76 6.012 6.012 0 0 1 -4.24 1.76z"/><path d="m333.05 294.13a6.009 6.009 0 1 1 4.24-1.76 6.029 6.029 0 0 1 -4.24 1.76z"/><path d="m409.37 309.42a5.994 5.994 0 1 1 4.239-1.75 6.044 6.044 0 0 1 -4.239 1.75z"/><path d="m354.99 318.98a5.992 5.992 0 1 1 4.25-1.76 6.01 6.01 0 0 1 -4.25 1.76z"/><path d="m316.83 318.03a5.992 5.992 0 1 1 4.25-1.76 6.047 6.047 0 0 1 -4.25 1.76z"/><path d="m334.96 342.88a5.992 5.992 0 1 1 4.24-1.75 6.062 6.062 0 0 1 -4.24 1.75z"/><path d="m399.83 389.73a6.011 6.011 0 1 1 4.239-1.76 6.052 6.052 0 0 1 -4.239 1.76z"/><path d="m391.24 264.49a5.992 5.992 0 1 1 4.25-1.76 6.029 6.029 0 0 1 -4.25 1.76z"/><path d="m397.92 345.75a6.009 6.009 0 1 1 4.24-1.76 6.029 6.029 0 0 1 -4.24 1.76z"/></g></svg>