<svg id="Layer_1" height="512" viewBox="0 0 512 512" width="512" xmlns="http://www.w3.org/2000/svg" data-name="Layer 1"><path d="m262.95 104.1c-1.24 0-2.48.01-3.73.04l-126.71 43.82v.06c-34.78 31.55-51.02 78.26-51.02 128.28 0 96.36 73.74 176.54 183.67 174.49 0 0 24.95.04 40.24-7.84l111.68-238.39c-18.19-59.67-77.68-100.59-154.13-100.46z" fill="#c14744"/><path d="m121.49 276.3a226.765 226.765 0 0 1 4.987-48.511 127.542 127.542 0 0 1 83.561-93.235l83.036-28.289a202.879 202.879 0 0 0 -30.124-2.165c-1.24 0-2.48.01-3.73.04l-126.71 43.82v.06c-34.78 31.55-51.02 78.26-51.02 128.28 0 96.36 73.74 176.54 183.67 174.49a133.584 133.584 0 0 0 14.757-1.012c-95.828-9.65-158.427-84.695-158.427-173.478z" fill="#a53f3f"/><path d="m262.4 73.77.55 30.33c-1.24 0-2.48.01-3.73.04a28.851 28.851 0 0 1 -2.2 6.02l-.01-.01-19.38-37.11z" fill="#937051"/><path d="m257.01 110.15.01.01s-56.58 31.56-119.88 37.51c-1.55.14-3.09.24-4.63.29-60.94 2.09-114.68-66.84-115.5-67.9.29.18 13.24 7.79 77.6-18.41 64.7-26.32 161.12 47.52 162.4 48.5z" fill="#4ca987"/><path d="m417.08 204.56a131.494 131.494 0 0 1 77.92 119.96c0 72.62-59.15 131.5-132.11 131.5a131.857 131.857 0 0 1 -132.11-131.5c0-72.62 59.15-131.5 132.11-131.5a132.049 132.049 0 0 1 54.19 11.54z" fill="#cc9869"/><path d="m461.42 311.69c13.26 20.98 8.41 58.85-14.31 66.24a11.676 11.676 0 0 0 -3.36-3.7l-65.77-45.06a13.629 13.629 0 0 0 .63-7.57l70.16-14.43.68-.14c4.12-.83 9.73 1.11 11.97 4.66z" fill="#de3c44"/><path d="m424.81 245.12c31.28 6.21 49.53 55.35 23.96 62.05l-70.16 14.43a13.682 13.682 0 0 0 -5.07-8.14l39.63-62.91a11.691 11.691 0 0 1 3.45-3.41 11.52 11.52 0 0 1 8.19-2.02z" fill="#ad2a34"/><path d="m447.11 377.93a11.974 11.974 0 0 1 1.67 8.08c-6.97 34.14-53.51 45.4-64.41 29.57l-14.43-78.43a13.76 13.76 0 0 0 8.04-7.98l65.77 45.06a11.676 11.676 0 0 1 3.36 3.7z" fill="#ad2a34"/><path d="m348.41 226.33c26.33-17.93 73.84.92 68.21 20.81a11.691 11.691 0 0 0 -3.45 3.41l-39.63 62.91a13.845 13.845 0 0 0 -11.77-2.49l-17.6-72.56a10.161 10.161 0 0 1 -.26-2.84c.12-3.54 1.79-7.39 4.5-9.24z" fill="#de3c44"/><path d="m384.37 415.58c.81 4.11-1.15 9.76-4.77 11.88-19.02 11.16-76.77-4.12-70.26-23.75a11.69 11.69 0 0 0 3.66-3.29l44.82-64.44v-.01a13.838 13.838 0 0 0 12.12 1.18z" fill="#de3c44"/><path d="m378.61 321.6a13.629 13.629 0 0 1 -.63 7.57 13.79 13.79 0 0 1 -26.69-4.87 13.581 13.581 0 0 1 .94-4.99 13.813 13.813 0 0 1 26.38 2.29z" fill="#7f3d32"/><path d="m344.17 238.41 17.6 72.56a13.785 13.785 0 0 0 -9.54 8.34l-68.27-43.98c-3.38-2.5-5.65-7.96-4.5-11.99 8.72-30.53 56-46.65 64.45-27.77a10.161 10.161 0 0 0 .26 2.84z" fill="#ad2a34"/><path d="m357.82 335.97v.01l-44.82 64.44a11.69 11.69 0 0 1 -3.66 3.29 11.537 11.537 0 0 1 -8.22 1.62c-30.97-7.58-51.44-52-30.56-63.16l81.85-12.43a13.838 13.838 0 0 0 5.41 6.23z" fill="#ad2a34"/><path d="m352.41 329.74-81.85 12.43-4.28.65c-4.15.65-9.31-1.77-11.76-5.18-11.82-16.45 2.65-70.09 29.44-62.31l68.27 43.98a13.744 13.744 0 0 0 .18 10.43z" fill="#de3c44"/><path d="m101.431 103.967c-8.464 0-15.067-1.6-20.781-5.048a6 6 0 0 1 6.195-10.277c3.764 2.268 8.4 3.325 14.586 3.325a6 6 0 0 1 0 12z" fill="#438e6f"/><path d="m114.772 242.965a6.091 6.091 0 0 1 -1.035-.09 6 6 0 0 1 -4.883-6.94c.764-4.4 1.681-8.862 2.723-13.272a6 6 0 1 1 11.678 2.76c-.987 4.178-1.855 8.407-2.579 12.569a6 6 0 0 1 -5.904 4.973z" fill="#f4f8fc"/><path d="m126.273 344.065a6 6 0 0 1 -5.177-2.958c-.808-1.374-19.746-34.284-14.393-89.321a6 6 0 0 1 11.943 1.162c-4.979 51.193 12.614 81.769 12.792 82.072a6 6 0 0 1 -5.165 9.045z" fill="#f4f8fc"/><path d="m257.01 110.15c-.239-.183-3.8-2.912-9.861-7.056-29.121 2.546-98.207 2.111-126.015-8.4a6 6 0 1 0 -4.243 11.225c20.688 7.821 61 10.48 94.031 10.48 14.192 0 27.025-.492 36.4-1.275 6.209-3.015 9.7-4.961 9.7-4.961z" fill="#438e6f"/></svg>