<svg id="Layer_1" height="512" viewBox="0 0 512 512" width="512" xmlns="http://www.w3.org/2000/svg" data-name="Layer 1"><path d="m463.29 99.89c-32.19-45.21-96.09-49.92-96.09-49.92 7.25-4.93 16.68-7.96 22.3-9.46a2.06 2.06 0 0 0 .58-3.78c-87.7-52.51-128.71 16.41-128.71 16.41-3.99-3.3-3.03-10.37-1.73-15.26a2.137 2.137 0 0 0 -3.27-2.26c-26.13 16.9-35.71 57.99-35.71 57.99l-.05.04c27.31 30.37 33.98 59.67 34.13 60.34l78.77 7.96h.01a49.122 49.122 0 0 1 5.23-3.25c16.07-22.7 36.62-19.73 62.87-10.74a2.109 2.109 0 0 0 2.64-2.89c-5.67-11.26-23.74-38.81-61.45-29.67 14.97-16.82 98.61-13.34 118.57-12.26a2.084 2.084 0 0 0 1.91-3.25z" fill="#4ca987"/><path d="m226.35 158.18a183.661 183.661 0 0 0 -24.78-47.81s-31.3-23.41-59.22-21.42c-1.75.12-2.17 2.35-.66 3.41 4.02 2.83 9.21 7.42 8.76 11.98 0 0-71.26-27.53-94.25 58.1a2.129 2.129 0 0 0 2.82 2.42c4.62-1.97 12.72-4.91 20.61-5.29 0 0-38.47 38.14-30.11 88.32a2.083 2.083 0 0 0 3.34 1.31c12.27-11.63 64.37-59.6 84.98-55.59-30.41 13.89-25.34 36.16-21.73 47.38a54.142 54.142 0 0 1 39.05-16.81l75.52-51.19a133.29 133.29 0 0 0 -4.33-14.81z" fill="#5fcda4"/><path d="m344.81 427.1a47.6 47.6 0 0 1 4.11 19.75c0 26.59-22.31 48.15-49.82 48.15s-49.82-21.56-49.82-48.15a46.526 46.526 0 0 1 3.29-17.25 51.4 51.4 0 0 0 13.05 1.67 50.382 50.382 0 0 0 38.78-17.92 51.235 51.235 0 0 0 35.27 14c1.74 0 3.45-.09 5.14-.25z" fill="#8e76b5"/><path d="m305.54 354.3a46.9 46.9 0 0 1 -1.14 59.05 50.382 50.382 0 0 1 -38.78 17.92 51.4 51.4 0 0 1 -13.05-1.67c-21.18-5.54-36.77-24.25-36.77-46.48a46.594 46.594 0 0 1 3.46-17.66 48.5 48.5 0 0 1 15.57-20.2 50.993 50.993 0 0 0 70.71 9.04z" fill="#6e5099"/><path d="m385.8 360.59a48.157 48.157 0 0 1 3.69 18.61c0 24.91-19.57 45.41-44.68 47.9-1.69.16-3.4.25-5.14.25a51.235 51.235 0 0 1 -35.27-14 46.9 46.9 0 0 0 1.14-59.05 49.177 49.177 0 0 0 8.56-8.31 50.171 50.171 0 0 0 42.82 23.52 50.707 50.707 0 0 0 28.88-8.92z" fill="#7e5faa"/><path d="m402.45 230.18a46.961 46.961 0 0 1 -4.35 63.58 48.264 48.264 0 0 0 -28.85-19.26 46.8 46.8 0 0 0 7.05-24.72c0-.87-.02-1.73-.08-2.58h.01a49.907 49.907 0 0 0 26.21-17.03z" fill="#8e76b5"/><path d="m398.1 293.76a47.657 47.657 0 0 1 -12.3 66.83 50.707 50.707 0 0 1 -28.88 8.92 50.171 50.171 0 0 1 -42.82-23.52 46.891 46.891 0 0 0 6.56-48.28l.01-.11a50.8 50.8 0 0 0 48.58-23.1 48.264 48.264 0 0 1 28.85 19.26z" fill="#6e5099"/><path d="m314.1 345.99a49.177 49.177 0 0 1 -8.56 8.31 50.993 50.993 0 0 1 -70.71-9.04c-.16-.2-.31-.41-.47-.62a46.833 46.833 0 0 1 -7.5-41.49 51.927 51.927 0 0 0 8.33.67c20.64 0 40.51-12.78 48.08-30.05a49.919 49.919 0 0 0 37.4 23.83l-.01.11a46.891 46.891 0 0 1 -6.56 48.28z" fill="#8e76b5"/><path d="m234.36 344.64c.16.21.31.42.47.62a48.5 48.5 0 0 0 -15.57 20.2 57.13 57.13 0 0 1 -22.62 5.03c-27.51 0-49.82-21.79-49.82-50.38a53.1 53.1 0 0 0 6.21.37c21.23 0 39.54-12.9 46.71-30.98.07.07.15.14.22.21a50.253 50.253 0 0 0 26.9 13.43v.01a46.833 46.833 0 0 0 7.5 41.49z" fill="#7e5faa"/><path d="m185.45 258.31c0 13.18 5.41 22.54 14.29 31.19-7.17 18.08-25.48 30.98-46.71 30.98a53.1 53.1 0 0 1 -6.21-.37c-24.59-2.95-43.61-23.21-43.61-47.78a45.661 45.661 0 0 1 12.9-31.34 54.142 54.142 0 0 1 39.05-16.81 48.729 48.729 0 0 0 30.29 34.13z" fill="#8e76b5"/><path d="m279.44 233.89a46.825 46.825 0 0 0 3.83 39.88c-7.57 17.27-27.44 30.05-48.08 30.05a51.927 51.927 0 0 1 -8.33-.67v-.01a50.253 50.253 0 0 1 -26.9-13.43c-.07-.07-.15-.14-.22-.21-8.88-8.65-14.29-18.01-14.29-31.19a51.21 51.21 0 0 0 18.29 3.35c25.68 0 46.81-18.77 49.52-42.89h.01a50.576 50.576 0 0 0 26.17 15.12z" fill="#6e5099"/><path d="m283.27 273.77a46.825 46.825 0 0 1 -3.83-39.88 51.673 51.673 0 0 0 11.54 1.3c21.76 0 40.25-13.47 47.04-32.26 21.12 4.83 37.03 22.66 38.2 44.27.06.85.08 1.71.08 2.58a46.8 46.8 0 0 1 -7.05 24.72 50.731 50.731 0 0 1 -85.98-.73z" fill="#7e5faa"/><path d="m412.82 200.76a46.88 46.88 0 0 1 -10.38 29.41 49.907 49.907 0 0 1 -26.21 17.03h-.01c-1.17-21.61-17.08-39.44-38.2-44.27a46.848 46.848 0 0 0 -4.5-40.98 49.122 49.122 0 0 1 5.23-3.25 50.882 50.882 0 0 1 24.25-6.09c27.52 0 49.82 21.56 49.82 48.15z" fill="#6e5099"/><path d="m254.74 153.99a50.858 50.858 0 0 1 78.77 7.96h.01a46.848 46.848 0 0 1 4.5 40.98c-6.79 18.79-25.28 32.26-47.04 32.26a51.673 51.673 0 0 1 -11.54-1.3 50.576 50.576 0 0 1 -26.17-15.12h-.01a45.723 45.723 0 0 0 .3-5.26 47.072 47.072 0 0 0 -12.13-31.49 47.347 47.347 0 0 1 13.31-28.03z" fill="#8e76b5"/><path d="m185.45 258.31a48.729 48.729 0 0 1 -30.29-34.13 46.361 46.361 0 0 1 -1.23-10.67c0-26.6 22.3-48.16 49.81-48.16a50.817 50.817 0 0 1 26.94 7.64 49.394 49.394 0 0 1 10.75 9.03 47.072 47.072 0 0 1 12.13 31.49 45.723 45.723 0 0 1 -.3 5.26c-2.71 24.12-23.84 42.89-49.52 42.89a51.21 51.21 0 0 1 -18.29-3.35z" fill="#7e5faa"/><path d="m89.02 164.86a2.129 2.129 0 0 1 -2.82-2.42c11.184-41.655 33.789-56.528 54.058-60.823-20.541-3.965-66.453-4.751-84.058 60.823a2.129 2.129 0 0 0 2.82 2.42c4.62-1.97 12.72-4.91 20.61-5.29 0 0-38.47 38.14-30.11 88.32a2.083 2.083 0 0 0 3.34 1.31c4.463-4.23 14.2-13.269 25.767-22.864 3.156-39.149 31-66.766 31-66.766-7.887.38-15.987 3.32-20.607 5.29z" fill="#499b7a"/><path d="m277.28 442.85a46.668 46.668 0 0 1 1.96-13.413 51.667 51.667 0 0 1 -26.67.163 46.526 46.526 0 0 0 -3.29 17.25c0 26.59 22.3 48.15 49.82 48.15a51.047 51.047 0 0 0 20.991-4.484c-24.198-3.294-42.811-23.376-42.811-47.666z" fill="#7a6a99"/><path d="m245.8 383.12a46.594 46.594 0 0 1 3.46-17.66 47.334 47.334 0 0 1 3-6.041 49.628 49.628 0 0 1 -17.43-14.159 48.5 48.5 0 0 0 -15.57 20.2 46.594 46.594 0 0 0 -3.46 17.66c0 22.23 15.59 40.94 36.77 46.48a51.59 51.59 0 0 0 28.024-.56c-20.166-6.157-34.794-24.387-34.794-45.92z" fill="#564577"/><path d="m174.945 315.584a51.239 51.239 0 0 1 -21.915 4.9 53.1 53.1 0 0 1 -6.21-.37c0 28.59 22.31 50.38 49.82 50.38a57.13 57.13 0 0 0 22.62-5.03c.435-1.066.914-2.11 1.424-3.137a49.5 49.5 0 0 1 -45.739-46.743z" fill="#685289"/><path d="m133.21 272.33a45.661 45.661 0 0 1 12.9-31.34 53.282 53.282 0 0 1 11.558-9.2 46.57 46.57 0 0 1 -2.508-7.612 54.142 54.142 0 0 0 -39.05 16.81 45.661 45.661 0 0 0 -12.9 31.34c0 24.57 19.02 44.83 43.61 47.78a53.1 53.1 0 0 0 6.21.37 51.45 51.45 0 0 0 14.991-2.224c-20.183-6.149-34.811-24.378-34.811-45.924z" fill="#7a6a99"/><path d="m185.16 224.18a46.361 46.361 0 0 1 -1.23-10.67c0-21.544 14.631-39.779 34.808-45.933a51.379 51.379 0 0 0 -15-2.227c-27.51 0-49.81 21.56-49.81 48.16a46.361 46.361 0 0 0 1.23 10.67 48.729 48.729 0 0 0 30.29 34.13 51.548 51.548 0 0 0 33.294 1.115c-1.114-.339-2.216-.7-3.294-1.115a48.729 48.729 0 0 1 -30.288-34.13z" fill="#685289"/><g fill="#3e7c61"><path d="m404.492 86.843a6.015 6.015 0 0 1 -1.374-.159 296.435 296.435 0 0 0 -39.859-6.714 6 6 0 1 1 1.109-11.948 308.334 308.334 0 0 1 41.488 6.978 6 6 0 0 1 -1.364 11.843z"/><path d="m250.327 146.608c-.1 0-.206 0-.31-.008a5.992 5.992 0 0 1 -5.687-6.267c.036-.762 1.041-18.866 14.1-36.986 21.6-29.968 58.693-36.272 86.009-36.283a6 6 0 0 1 0 12c-83.782.034-87.991 59.337-88.129 61.861a6.009 6.009 0 0 1 -5.983 5.683z"/><path d="m109.376 169.894a6 6 0 0 1 -3.851-10.6c32.382-27.066 64.516-27.248 85.767-22.637a107.118 107.118 0 0 1 38.677 16.733 6 6 0 0 1 -7.218 9.587 96.837 96.837 0 0 0 -34.451-14.692c-26.945-5.706-52.2 1.094-75.078 20.213a5.977 5.977 0 0 1 -3.846 1.396z"/></g><path d="m226.35 158.18a183.661 183.661 0 0 0 -24.78-47.81c-14.61-19.98-35.93-39.42-66.49-49.19a2.451 2.451 0 0 1 -1.41-3.59l7.9-13.28a2.618 2.618 0 0 1 3.15-1.09c35.05 13.08 59.28 31.95 75.89 50.43 27.31 30.37 33.98 59.67 34.13 60.34a47.347 47.347 0 0 0 -13.31 28.03 49.394 49.394 0 0 0 -10.75-9.03 133.29 133.29 0 0 0 -4.33-14.81z" fill="#6f624b"/></svg>