<svg id="Layer_1" height="512" viewBox="0 0 512 512" width="512" xmlns="http://www.w3.org/2000/svg" data-name="Layer 1"><path d="m180.83 105.84a4.53 4.53 0 0 1 -1.75 2.89c-14.06 10.69-66.47 48.07-109.43 46.05-46.54-2.18-52.05 7.77-52.6 9.19 1-3.98 20.59-78.04 85.21-81.56 50.31-2.74 70.55 12.16 77.41 19.55a4.534 4.534 0 0 1 1.16 3.88z" fill="#49c160"/><path d="m272.88 126.3c-18.7-3.1-28.42 6.67-38.95 16.14a101 101 0 0 1 -9.37 7.68q-3.675-1.035-7.06-1.97c-42.37-11.63-52.63-10.79-69.35-1.76-50.32 27.15-62.39 89.44-55.36 146.37 7.43 60.16 53.62 106.87 109.97 119.74 7.88 1.8 14.52 4.13 18.06 11.36 4.79 9.77 12.56 13.55 19.13 9.55 21.01-12.8 20.4.23 28.46-1.17 15.34-2.67 11.88-8.33 14.03-16.62.88-3.4 1.69-3.99 3.8-6.71v-.01l43.28-249.08c-15.32-16.61-35.88-30.07-56.64-33.52z" fill="#87d770"/><path d="m487.54 243.61c28.24 81.97-25.93 222.6-125.05 177.11a37.8 37.8 0 0 0 -21.44-3c-22.2 3.4-40.38-.25-54.81-8.82-55.68-33.05-55.62-139.26-16.03-195.69 22.77-32.45 42.89-47.52 59.31-53.39 20.76-7.43 35.62-.18 42.49 5.24 8.68 6.84 22.15 10.58 31.02 4.34 10.49-6.29 55.32-10.54 84.51 74.21z" fill="#70ae6a"/><path d="m463.23 255.18c23.04 66.88-21.16 181.61-102.02 144.5a30.786 30.786 0 0 0 -17.5-2.45c-87.99 13.49-98.46-108.88-57.78-166.85 42.05-59.93 73-47.21 83.05-39.29 7.07 5.59 18.16 8.59 25.3 3.54 8.56-5.13 45.13-8.59 68.95 60.55z" fill="#e27988"/><g fill="#6d6653"><path d="m412.99 229.81a8.666 8.666 0 1 1 -9.84 7.37 8.668 8.668 0 0 1 9.84-7.37z"/><path d="m422.99 266.88a8.666 8.666 0 1 1 -9.84 7.38 8.677 8.677 0 0 1 9.84-7.38z"/><path d="m416.81 310.62a8.665 8.665 0 1 1 -9.84 7.37 8.662 8.662 0 0 1 9.84-7.37z"/><path d="m393.05 351.89a8.665 8.665 0 1 1 -9.83 7.37 8.668 8.668 0 0 1 9.83-7.37z"/><path d="m322.73 342.05a8.665 8.665 0 1 1 -9.83 7.38 8.677 8.677 0 0 1 9.83-7.38z"/><path d="m311.33 295.86a8.666 8.666 0 1 1 -9.84 7.38 8.677 8.677 0 0 1 9.84-7.38z"/><path d="m317.51 252.13a8.666 8.666 0 1 1 -9.84 7.37 8.677 8.677 0 0 1 9.84-7.37z"/><path d="m337.39 219.23a8.67 8.67 0 1 1 -9.83 7.38 8.677 8.677 0 0 1 9.83-7.38z"/></g><path d="m232.76 412.5c-56.35-12.87-102.54-59.58-109.97-119.74-7.03-56.93 5.04-119.22 55.36-146.37a62.9 62.9 0 0 1 11.378-5c-20.374-3.819-29.158-1.6-41.378 5-50.32 27.15-62.39 89.44-55.36 146.37 7.43 60.16 53.62 106.87 109.97 119.74 7.88 1.8 14.52 4.13 18.06 11.36 4.79 9.77 12.56 13.55 19.13 9.55 5.887-3.587 10.076-5.144 13.234-5.56a29.129 29.129 0 0 1 -2.364-3.99c-3.54-7.23-10.18-9.56-18.06-11.36z" fill="#78b763"/><path d="m315.93 230.38c17.911-25.527 33.806-37.867 46.932-43.018-13.76-6.388-41.377-7.655-76.932 43.018-40.68 57.97-30.21 180.34 57.78 166.85a30.826 30.826 0 0 1 3.343-.306c-63.029-12.797-67.253-115.061-31.123-166.544z" fill="#ba6777"/><path d="m44.484 146.773a6 6 0 0 1 -3.417-10.936 179.45 179.45 0 0 1 17.2-10.491 6 6 0 0 1 5.668 10.576 167.342 167.342 0 0 0 -16.039 9.786 5.974 5.974 0 0 1 -3.412 1.065z" fill="#3c994c"/><path d="m73.646 130.517a6 6 0 0 1 -2.428-11.489c63.412-28.028 129.715-17.681 132.507-17.228a6 6 0 0 1 -1.925 11.844c-.65-.1-65.67-10.2-125.731 16.357a5.975 5.975 0 0 1 -2.423.516z" fill="#3c994c"/><path d="m350.933 349.36a6 6 0 0 1 -5.943-5.227c-.819-6.309-3.1-13.947-6.779-22.7-18.357-43.67 9.678-73.82 10.881-75.082a6 6 0 0 1 8.7 8.265c-1.017 1.083-23.747 25.942-8.519 62.167 4.1 9.747 6.66 18.429 7.618 25.805a6 6 0 0 1 -5.178 6.723 6.065 6.065 0 0 1 -.78.049z" fill="#8e4f5e"/><path d="m366.385 353.306a6 6 0 0 1 -5.5-8.391c2.963-6.827 7.831-14.468 14.469-22.712 24.87-30.888 9.209-61.768 9.048-62.077a6 6 0 0 1 10.637-5.557c.806 1.543 19.4 38.221-10.338 75.16-5.964 7.406-10.273 14.123-12.808 19.964a6 6 0 0 1 -5.508 3.613z" fill="#8e4f5e"/><path d="m118.562 252.115c-.122 0-.244 0-.367-.011a6 6 0 0 1 -5.628-6.351c.294-4.865.744-9.833 1.34-14.765a6 6 0 0 1 11.914 1.439c-.567 4.7-1 9.422-1.275 14.049a6 6 0 0 1 -5.984 5.639z" fill="#f4f8fc"/><path d="m132.569 340.727a6 6 0 0 1 -5.519-3.642c-6.519-15.237-14.394-40.415-14.888-73.835a6 6 0 0 1 5.91-6.088h.091a6 6 0 0 1 6 5.911c.466 31.464 7.828 55.049 13.923 69.293a6 6 0 0 1 -5.514 8.362z" fill="#f4f8fc"/><path d="m213.36 77.71 20.57 64.73a101 101 0 0 1 -9.37 7.68q-3.675-1.035-7.06-1.97l-14.74-40.43-11.19-30.71z" fill="#5e493b"/></svg>