<svg id="Layer_1" height="512" viewBox="0 0 512 512" width="512" xmlns="http://www.w3.org/2000/svg" data-name="Layer 1"><path d="m254.55 31.93c-.2 9.96-21.53 18.01-47.8 18.01-26.4 0-49.41-11.75-45.71-23.5-82.36 22.94-144.04 117.01-144.04 229.56 0 129.74 81.96 234.91 183.06 234.91 29.13 0 59.41-9.64 83.86-25.18l89.36-285.92c-19.13-69.63-63.42-125.34-118.73-147.88z" fill="#8e5b44"/><path d="m373.28 179.81c69.02 11.71 121.72 74.56 121.72 150.33 0 84.09-64.93 152.27-145.02 152.27a138.911 138.911 0 0 1 -66.06-16.68c-46.88-25.23-78.97-76.48-78.97-135.59 0-84.1 64.93-152.28 145.03-152.28a140 140 0 0 1 23.3 1.95z" fill="#623f26"/><path d="m349.98 201.9c66.94 0 121.21 57.42 121.21 128.24s-54.27 128.23-121.21 128.23-121.22-57.41-121.22-128.23 54.27-128.24 121.22-128.24z" fill="#90ba65"/><path d="m47 256c0-100 48.691-185.4 117.313-219.3-3.073-3.21-4.384-6.735-3.273-10.263-82.36 22.943-144.04 117.013-144.04 229.563 0 129.74 81.96 234.91 183.06 234.91a139.007 139.007 0 0 0 14.732-.82c-93.955-9.957-167.792-110.95-167.792-234.09z" fill="#6b4637"/><path d="m258.76 330.14c0-65.446 46.348-119.444 106.219-127.263a115.745 115.745 0 0 0 -15-.977c-66.95 0-121.22 57.42-121.22 128.24s54.27 128.23 121.22 128.23a115.922 115.922 0 0 0 15-.977c-59.871-7.817-106.219-61.807-106.219-127.253z" fill="#799657"/><path d="m254.55 31.93c-.2 9.96-21.53 18.01-47.8 18.01-26.4 0-49.41-11.75-45.71-23.5a145.138 145.138 0 0 1 39.02-5.35 143.461 143.461 0 0 1 54.49 10.84z" fill="#5b412f"/><g fill="#739937"><path d="m312.829 339.71h-50.1a6 6 0 0 1 0-12h50.1a6 6 0 0 1 0 12z"/><path d="m438.783 339.71h-50.1a6 6 0 0 1 0-12h50.1a6 6 0 0 1 0 12z"/><path d="m350.755 299.208a6 6 0 0 1 -6-6v-53.508a6 6 0 0 1 12 0v53.506a6 6 0 0 1 -6 6.002z"/><path d="m350.755 433.719a6 6 0 0 1 -6-6v-53.507a6 6 0 0 1 12 0v53.507a6 6 0 0 1 -6 6z"/><path d="m377.571 311.071a6 6 0 0 1 -4.379-10.1l35.429-37.835a6 6 0 0 1 8.76 8.2l-35.429 37.835a5.985 5.985 0 0 1 -4.381 1.9z"/><path d="m288.509 406.185a6 6 0 0 1 -4.379-10.1l35.428-37.835a6 6 0 0 1 8.759 8.2l-35.427 37.836a5.988 5.988 0 0 1 -4.381 1.899z"/><path d="m413 406.185a5.986 5.986 0 0 1 -4.381-1.9l-35.429-37.835a6 6 0 0 1 8.76-8.2l35.429 37.835a6 6 0 0 1 -4.379 10.1z"/><path d="m323.939 311.071a5.981 5.981 0 0 1 -4.381-1.9l-35.428-37.834a6 6 0 1 1 8.76-8.2l35.427 37.835a6 6 0 0 1 -4.378 10.1z"/></g><path d="m330.129 292.4a6 6 0 0 1 -5.586-3.805l-3.3-8.378a6 6 0 0 1 11.168-4.392l3.3 8.377a6 6 0 0 1 -5.582 8.2z" fill="#a6d175"/><path d="m370.543 396.493a6 6 0 0 1 -5.586-3.805l-3.3-8.378a6 6 0 0 1 11.168-4.392l3.3 8.377a6 6 0 0 1 -5.582 8.2z" fill="#a6d175"/><path d="m393.5 320.438a6 6 0 0 1 -2.459-11.476l7.845-3.519a6 6 0 0 1 4.91 10.95l-7.845 3.518a5.969 5.969 0 0 1 -2.451.527z" fill="#a6d175"/><path d="m296.033 363.6a6 6 0 0 1 -2.459-11.476l7.845-3.519a6 6 0 1 1 4.91 10.949l-7.845 3.519a5.979 5.979 0 0 1 -2.451.527z" fill="#a6d175"/><path d="m367.249 292.4a6 6 0 0 1 -5.6-8.144l3.216-8.412a6 6 0 0 1 11.209 4.286l-3.216 8.412a6 6 0 0 1 -5.609 3.858z" fill="#a6d175"/><path d="m326.9 396.526a6.006 6.006 0 0 1 -5.6-8.145l3.217-8.412a6 6 0 0 1 11.209 4.286l-3.217 8.412a6 6 0 0 1 -5.609 3.859z" fill="#a6d175"/><path d="m401.371 363.519a5.97 5.97 0 0 1 -2.395-.5l-7.877-3.435a6 6 0 1 1 4.8-11l7.876 3.435a6 6 0 0 1 -2.4 11.5z" fill="#a6d175"/><path d="m303.872 320.434a5.975 5.975 0 0 1 -2.4-.5l-7.872-3.434a6 6 0 1 1 4.8-11l7.876 3.435a6 6 0 0 1 -2.4 11.5z" fill="#a6d175"/><path d="m334.74 333.72a6.009 6.009 0 1 1 4.24-1.76 6.051 6.051 0 0 1 -4.24 1.76z" fill="#434349"/><path d="m369.9 331.63a6.007 6.007 0 1 1 4.241-1.76 6.009 6.009 0 0 1 -4.241 1.76z" fill="#434349"/><path d="m364.4 353.53a5.992 5.992 0 1 1 4.25-1.76 6.025 6.025 0 0 1 -4.25 1.76z" fill="#434349"/><path d="m351.22 321.2a5.992 5.992 0 1 1 4.24-1.75 6.044 6.044 0 0 1 -4.24 1.75z" fill="#434349"/><path d="m339.13 354.58a6.009 6.009 0 1 1 4.24-1.76 6.012 6.012 0 0 1 -4.24 1.76z" fill="#434349"/><path d="m280.89 310.77a5.992 5.992 0 1 1 4.24-1.75 6.049 6.049 0 0 1 -4.24 1.75z" fill="#a6d175"/><path d="m416.05 369.18a6.009 6.009 0 1 1 4.24-1.76 6.054 6.054 0 0 1 -4.24 1.76z" fill="#a6d175"/><path d="m320.4 270.15a6.007 6.007 0 1 1 4.241-1.76 6.009 6.009 0 0 1 -4.241 1.76z" fill="#a6d175"/><path d="m377.64 410.84a5.992 5.992 0 1 1 4.24-1.75 6.049 6.049 0 0 1 -4.24 1.75z" fill="#a6d175"/><path d="m376.55 268.84a6.009 6.009 0 1 1 4.24-1.76 6.012 6.012 0 0 1 -4.24 1.76z" fill="#a6d175"/><path d="m320.39 410.07a6.009 6.009 0 1 1 4.24-1.76 6.033 6.033 0 0 1 -4.24 1.76z" fill="#a6d175"/><path d="m416.859 310.81a5.992 5.992 0 1 1 4.25-1.76 6.009 6.009 0 0 1 -4.25 1.76z" fill="#a6d175"/><path d="m281.18 369.14a6.009 6.009 0 1 1 4.24-1.76 6.012 6.012 0 0 1 -4.24 1.76z" fill="#a6d175"/></svg>