<svg id="Layer_1" enable-background="new 0 0 512 512" height="512" viewBox="0 0 512 512" width="512" xmlns="http://www.w3.org/2000/svg"><path d="m405.6 192.7c-19.3-16.1-40.9-18.2-57.8-16.2-4.7.6-9.4 1.4-13.9 2.7-10.7 2.8-21.9 2.9-32.6.1-.9-.2-1.9-.5-2.8-.7-17.8-4.1-45.2-5.5-69.2 14.2-34 27.8-86.1 118.2 0 174.5 21.4 14 45.4 24 70.6 25.9l140.6-141.8c-6.9-24.3-23.5-49.3-34.9-58.7z" fill="#c09e68"/><path d="m315.6 137.4c-185.2 97.5-310.2 7.7-297.8 9.4 12.5 1.7 95.4-73.1 205.9-51 30.3 6.1 55.8 19.6 69.6 26 8 4.4 15.5 9.6 22.3 15.6z" fill="#5fcda4"/><path d="m259.2 192.7c9.5-7.9 20.9-13.2 33.1-15.4-17.6-2.9-41.7-2.1-63.1 15.4-34 27.8-86.1 118.2 0 174.5 21.4 14 45.4 24 70.6 25.9l4.6-4.6c-16-4.8-31.3-11.9-45.2-21.2-86.2-56.4-34-146.8 0-174.6z" fill="#997d55"/><path d="m440.4 251.2c58 26.8 48.9 97.3 48.9 97.3-7.8 4.2-22.5 8.5-36.1 12-16.6 4.3-34.1 2.5-49.5-5.1-13.4-6.6-32.4-13.5-53.8-13.5-31 0-45-29.8-50-44.4 0 0 18.3-63.4 83.9-58.4 4.4.3 8.8 1.7 12.6 3.9l4.8 2.8c6.3 3.7 13.8 4.8 20.9 3.3 2-.4 4.1-.7 6.2-.6 4.2.1 8.3 1 12.1 2.7z" fill="#f0d2a9"/><path d="m353.6 259.7c10.1-9.8 22.9-16.5 36.8-19.3-2.1-.7-4.4-1.1-6.6-1.3-65.6-5-83.9 58.4-83.9 58.4 5 14.6 19 44.4 50 44.4 3 0 6 .2 8.9.4-1.8-1.3-3.6-2.6-5.3-4.1-22.9-20.9-22.4-57 .1-78.5z" fill="#d3b897"/><path d="m489.4 347.5c2.6-1.4 5.7.5 5.6 3.4-.7 24.1-11.7 90.7-112.3 88.3-3-.1-6.1-.4-9-1-39.5-7.8-61.9-25-73.9-45.1-21.1-35.1-10.6-79-5-96.5.8-2.4 4.2-2.5 5-.1v.1c5 14.6 19 44.4 50 44.4 21.4 0 40.4 6.9 53.8 13.5 15.4 7.5 32.9 9.4 49.5 5.1 13.7-3.5 28.5-7.8 36.3-12.1-.1.1 0 .1 0 0z" fill="#dfbb6c"/><path d="m329.8 393c-12.7-21.2-13.9-45.7-11.6-65.6-9.8-9.8-15.5-22.7-18.3-30.9v-.1c-.8-2.4-4.3-2.4-5 0-5.6 17.5-16.1 61.4 5 96.5 12 20.1 34.4 37.3 73.9 45.1 3 .6 6 .9 9 1 7.5.2 15.1 0 22.6-.7-.5-.1-1.1-.2-1.6-.3-39.6-7.6-62-24.9-74-45z" fill="#b7985a"/><g fill="#a89079"><path d="m324 304c-3.3 0-6-2.7-6-6 0-.5.1-1 .2-1.5 7.5-28.2 32.8-38.7 33.9-39.2 3.1-1.3 6.6.2 7.8 3.3s-.2 6.6-3.3 7.8c-.3.1-20.9 8.9-26.8 31.2-.7 2.6-3.1 4.4-5.8 4.4z"/><path d="m464.3 341.2c-3.3 0-6-2.7-6-6 0-.4 0-.7.1-1 .3-1.6.5-3.2.6-4.9.2-3.3 3.1-5.8 6.4-5.5 3.3.2 5.8 3.1 5.5 6.4-.1 2.1-.4 4.1-.8 6.1-.4 2.8-2.9 4.9-5.8 4.9z"/><path d="m464.2 322.3c-2.9 0-5.3-2-5.9-4.9-1.6-8.4-5.4-16.3-10.9-22.8-2.2-2.5-2-6.3.5-8.5 2.4-2.1 6.1-2 8.3.3 7 8.2 11.8 18.1 13.8 28.7.6 3.3-1.5 6.4-4.8 7-.3.1-.6.2-1 .2z"/><path d="m396.6 303.5c-3.3 0-6-2.7-6-6 0-.7.1-1.3.3-2 .9-2.5 1.5-5 1.9-7.6.1-.8.2-1.7.2-2.5 0-3.3 2.7-5.9 6-6 3.3 0 6 2.7 6 6 0 1.4-.1 2.8-.3 4.1-.5 3.4-1.3 6.7-2.4 9.9-.9 2.5-3.1 4.1-5.7 4.1z"/></g><path d="m97.8 150.9c-7.6 0-15.3-.5-22.9-1.5-3.3-.4-5.7-3.3-5.3-6.6s3.3-5.7 6.6-5.3h.1c9.7 1.2 19.6 1.6 29.4 1.2 3.3-.2 6.1 2.4 6.3 5.7s-2.4 6.1-5.7 6.3c-2.7.1-5.5.2-8.5.2z" fill="#4ca987"/><path d="m214 281.1c-.1 0-.2 0-.4 0-3.3-.2-5.8-3-5.6-6.3.8-12.7 4.8-24.9 11.6-35.6 1.8-2.8 5.5-3.6 8.3-1.8s3.6 5.5 1.8 8.3c-5.8 8.9-9.2 19.2-9.8 29.8-.1 3.2-2.7 5.6-5.9 5.6z" fill="#f4f8fc"/><path d="m233.9 235.1c-3.3 0-6-2.7-6-6 0-1.5.5-2.9 1.5-4 1.8-2 3.7-3.9 5.8-5.7 2.6-2.1 6.4-1.6 8.4 1s1.6 6.3-.9 8.3c-1.6 1.4-3.1 2.8-4.4 4.4-1.1 1.3-2.7 2-4.4 2z" fill="#f4f8fc"/><path d="m150.9 129.7c-10.6 2.9-20.6 5.7-29.4 7.2-3.3.5-5.5 3.6-4.9 6.9.5 3.3 3.6 5.5 6.9 4.9 9.4-1.6 19.6-4.5 30.5-7.5 44-12.2 98.8-27.5 170.8 11.4.9.5 1.8.7 2.8.7l2.9-11.2c-76.2-41.1-136-24.5-179.6-12.4z" fill="#4ca987"/><path d="m360.2 72.8c2.1-.4 4.1 1 4.5 3 .1.6.1 1.1 0 1.7-1 4.1-2.5 9.8-4.1 15.7-4.7 17.4-8 35.1-9.7 53.1l-3 30.2c-4.7.6-9.4 1.4-13.9 2.7-10.7 2.8-21.9 2.9-32.6.1-.9-.2-1.9-.5-2.8-.7 0 0 2.2-8.4 17.1-15.3 6.1-2.8 10.6-8.4 12-15l15.7-69.8c.3-1.5 1.5-2.6 3-2.9z" fill="#6f624b"/></svg>