<svg id="Layer_1" height="512" viewBox="0 0 512 512" width="512" xmlns="http://www.w3.org/2000/svg" data-name="Layer 1"><path d="m188.43 26.85c-90.72 0-164.26 102.09-164.26 228.02s73.54 228.02 164.26 228.02c23.17 0 45.47-8.14 65.47-20.16v-.01l78.93-316.03c-28.13-69.53-82.87-119.84-144.4-119.84z" fill="#c14744"/><path d="m481.68 331.18-285.89-51.06a10.844 10.844 0 0 0 -12.45 9.64c-8.85 71.84 20.14 138.77 70.56 172.96a136.468 136.468 0 0 0 52.85 21.59c81.54 14.57 161.46-47.37 183.26-139.78a10.825 10.825 0 0 0 -8.33-13.35z" fill="#d8514b"/><path d="m366.69 147.29c68.75 12.28 114.19 91.5 111.45 183.26l-279.4-49.9v-.01c24.21-73.52 77-125.96 134.09-133.95a107.548 107.548 0 0 1 33.86.6z" fill="#d0e4e7"/><ellipse cx="384.07" cy="213.81" fill="#badadd" rx="15.86" ry="15.9"/><path d="m416.08 246.87a11.12 11.12 0 1 1 -11.09 11.12 11.111 11.111 0 0 1 11.09-11.12z" fill="#badadd"/><path d="m362.83 152.69a108.581 108.581 0 0 1 20.688-.9 104.245 104.245 0 0 0 -16.828-4.5 107.548 107.548 0 0 0 -33.86-.6c-57.09 7.99-109.88 60.43-134.09 133.95v.01l30.2 5.394c24.3-73.206 76.96-125.386 133.89-133.354z" fill="#b2bfc1"/><path d="m283.9 462.72c-50.42-34.19-79.41-101.12-70.56-172.96a11.415 11.415 0 0 1 2.646-6.033l-20.2-3.607a10.844 10.844 0 0 0 -12.45 9.64c-8.85 71.84 20.14 138.77 70.56 172.96a136.071 136.071 0 0 0 91.775 22.87c-2.971-.33-5.947-.748-8.925-1.28a136.468 136.468 0 0 1 -52.846-21.59z" fill="#aa3f3f"/><path d="m54.17 254.87c0-118.819 65.473-216.4 149.07-227.041a113.233 113.233 0 0 0 -14.81-.979c-90.72 0-164.26 102.09-164.26 228.02s73.54 228.02 164.26 228.02a102.653 102.653 0 0 0 14.336-1.038c-83.366-10.952-148.596-108.387-148.596-226.982z" fill="#993d3d"/><g fill="#7f3333"><path d="m196.749 39.6a6 6 0 0 1 -5.957-6.778l1.824-13.951a6 6 0 0 1 11.9 1.556l-1.826 13.956a6 6 0 0 1 -5.941 5.217z"/><path d="m184.986 495.233h-.142a6 6 0 0 1 -5.859-6.138l.348-14.9a6 6 0 1 1 12 .281l-.348 14.9a6 6 0 0 1 -5.999 5.857z"/><path d="m222.224 44.812a6 6 0 0 1 -5.792-7.581l3.725-13.65a6 6 0 1 1 11.576 3.159l-3.725 13.651a6 6 0 0 1 -5.784 4.421z"/><path d="m156.843 491.059a6.008 6.008 0 0 1 -5.946-6.867l2.09-14.328a6 6 0 1 1 11.875 1.731l-2.09 14.329a6 6 0 0 1 -5.929 5.135z"/><path d="m247.075 56.2a6 6 0 0 1 -5.547-8.285l5.631-13.68a6 6 0 0 1 11.1 4.567l-5.631 13.68a6 6 0 0 1 -5.553 3.718z"/><path d="m128.22 481.811a6.006 6.006 0 0 1 -5.739-7.762l5.631-18.348a6 6 0 0 1 11.473 3.521l-5.631 18.348a6 6 0 0 1 -5.734 4.241z"/><path d="m267.086 71.189a6 6 0 0 1 -4.786-9.609l10.275-13.647a6 6 0 1 1 9.586 7.217l-10.277 13.65a5.99 5.99 0 0 1 -4.798 2.389z"/><path d="m102.3 462.836a6 6 0 0 1 -5.227-8.936l7.284-12.984a6 6 0 1 1 10.465 5.871l-7.284 12.984a6 6 0 0 1 -5.238 3.065z"/><path d="m286.018 88.593a6 6 0 0 1 -3.663-10.757l13.354-10.272a6 6 0 0 1 7.316 9.512l-13.353 10.272a5.978 5.978 0 0 1 -3.654 1.245z"/><path d="m78.675 441.137a6 6 0 0 1 -4.909-9.444l9.371-13.376a6 6 0 0 1 9.828 6.886l-9.371 13.376a5.994 5.994 0 0 1 -4.919 2.558z"/><path d="m303.082 110.072a6 6 0 0 1 -3.092-11.147l12.856-7.709a6 6 0 0 1 6.172 10.292l-12.856 7.709a5.978 5.978 0 0 1 -3.08.855z"/><path d="m59.964 416.315a6 6 0 0 1 -4.529-9.932l10.44-12.029a6 6 0 1 1 9.063 7.865l-10.438 12.029a5.986 5.986 0 0 1 -4.536 2.067z"/><path d="m317.87 133.185a6 6 0 0 1 -2.407-11.5l11.387-4.979a6 6 0 0 1 4.808 10.995l-11.386 4.98a5.988 5.988 0 0 1 -2.402.504z"/><path d="m45.214 384.729a6 6 0 0 1 -3.677-10.746l10.632-8.229a6 6 0 0 1 7.346 9.49l-10.632 8.229a5.978 5.978 0 0 1 -3.669 1.256z"/><path d="m31.868 354.619a6 6 0 0 1 -3.1-11.139l11.6-7a6 6 0 1 1 6.2 10.275l-11.6 7a5.975 5.975 0 0 1 -3.1.864z"/><path d="m23.332 319.743a6 6 0 0 1 -2.07-11.634l12.026-4.419a6 6 0 1 1 4.139 11.263l-12.027 4.42a5.979 5.979 0 0 1 -2.068.37z"/><path d="m19.688 280.887a6 6 0 0 1 -.674-11.962l12.167-1.391a6 6 0 0 1 1.363 11.923l-12.167 1.391a6.174 6.174 0 0 1 -.689.039z"/><path d="m31.607 245.953c-.2 0-.4-.01-.6-.03l-14.6-1.449a6 6 0 1 1 1.186-11.941l14.6 1.448a6 6 0 0 1 -.586 11.972z"/><path d="m36.44 206.6a6 6 0 0 1 -2.13-.392l-14.119-5.364a6 6 0 0 1 4.262-11.218l14.119 5.364a6 6 0 0 1 -2.132 11.61z"/><path d="m44.748 171.635a5.963 5.963 0 0 1 -2.778-.686l-13.186-6.9a6 6 0 1 1 5.567-10.63l13.185 6.9a6 6 0 0 1 -2.788 11.317z"/><path d="m59.086 134.243a5.963 5.963 0 0 1 -3.021-.821l-11.55-6.75a6 6 0 1 1 6.054-10.36l11.55 6.75a6 6 0 0 1 -3.033 11.181z"/><path d="m76.535 104.6a5.976 5.976 0 0 1 -4.034-1.56l-9.601-8.74a6 6 0 0 1 8.073-8.879l9.6 8.731a6 6 0 0 1 -4.038 10.448z"/><path d="m98.164 79.637a5.989 5.989 0 0 1 -4.471-2l-9.18-10.237a6 6 0 0 1 8.937-8.009l9.181 10.245a6 6 0 0 1 -4.467 10z"/><path d="m123.656 59.368a6 6 0 0 1 -5.438-3.458l-5.778-12.345a6 6 0 0 1 10.869-5.088l5.778 12.346a6 6 0 0 1 -5.431 8.545z"/><path d="m238.682 484.583a6 6 0 0 1 -5.867-4.773l-2.823-13.492a6 6 0 0 1 11.746-2.457l2.822 13.492a6 6 0 0 1 -4.644 7.1 6.071 6.071 0 0 1 -1.234.13z"/><path d="m147.8 47.023a6.006 6.006 0 0 1 -5.7-4.119l-4.363-13.2a6 6 0 0 1 11.4-3.766l4.363 13.2a6.006 6.006 0 0 1 -5.7 7.885z"/><path d="m213.668 492.434a6 6 0 0 1 -5.963-5.4l-1.478-14.772a6 6 0 1 1 11.939-1.195l1.479 14.772a6 6 0 0 1 -5.373 6.568c-.203.017-.405.027-.604.027z"/><path d="m172.654 41.3a6 6 0 0 1 -5.927-5.127l-2.137-14.51a6 6 0 1 1 11.871-1.748l2.137 14.51a6 6 0 0 1 -5.062 6.81 6.14 6.14 0 0 1 -.882.065z"/><path d="m181.17 77.466a6.01 6.01 0 0 1 -5.944-6.871l1.459-9.959a6 6 0 1 1 11.874 1.74l-1.46 9.959a6 6 0 0 1 -5.929 5.131z"/><path d="m224.965 92.234a6 6 0 0 1 -5.929-5.13l-1.46-9.959a6 6 0 0 1 11.873-1.745l1.46 9.959a6 6 0 0 1 -5.066 6.807 6.083 6.083 0 0 1 -.878.068z"/><path d="m150.988 95.946a6.107 6.107 0 0 1 -.879-.064 6 6 0 0 1 -5.065-6.808l1.461-9.959a6 6 0 0 1 11.873 1.742l-1.461 9.959a6 6 0 0 1 -5.929 5.13z"/><path d="m112.071 133.184a6.107 6.107 0 0 1 -.879-.064 6 6 0 0 1 -5.065-6.808l1.461-9.959a6 6 0 0 1 11.873 1.742l-1.461 9.959a6 6 0 0 1 -5.929 5.13z"/><path d="m269.544 132.829a6 6 0 0 1 -5.929-5.131l-1.46-9.959a6 6 0 0 1 11.873-1.739l1.46 9.96a6.01 6.01 0 0 1 -5.944 6.871z"/><path d="m236.02 155.89a6 6 0 0 1 -5.929-5.131l-1.46-9.959a6 6 0 0 1 11.873-1.74l1.46 9.959a6 6 0 0 1 -5.944 6.871z"/><path d="m191.11 137.488a6.083 6.083 0 0 1 -.878-.064 6 6 0 0 1 -5.066-6.807l1.46-9.959a6 6 0 0 1 11.874 1.742l-1.46 9.959a6 6 0 0 1 -5.93 5.129z"/><path d="m154.332 179.464a6.107 6.107 0 0 1 -.879-.064 6 6 0 0 1 -5.065-6.808l1.461-9.959a6 6 0 0 1 11.873 1.743l-1.461 9.958a6 6 0 0 1 -5.929 5.13z"/><path d="m71.95 179.03a6.083 6.083 0 0 1 -.878-.064 6 6 0 0 1 -5.066-6.807l1.46-9.959a6 6 0 0 1 11.873 1.74l-1.46 9.959a6 6 0 0 1 -5.929 5.131z"/><path d="m204.43 207.767a6 6 0 0 1 -5.929-5.131l-1.46-9.959a6 6 0 0 1 11.873-1.74l1.46 9.959a6 6 0 0 1 -5.066 6.807 6.083 6.083 0 0 1 -.878.064z"/><path d="m63.034 252.873a6.083 6.083 0 0 1 -.878-.064 6 6 0 0 1 -5.066-6.809l1.46-9.959a6 6 0 0 1 11.873 1.741l-1.46 9.959a6 6 0 0 1 -5.929 5.132z"/><path d="m108.729 216.505a6.01 6.01 0 0 1 -5.945-6.871l1.46-9.959a6 6 0 1 1 11.873 1.74l-1.46 9.959a6 6 0 0 1 -5.928 5.131z"/><path d="m159.121 253.316a6.083 6.083 0 0 1 -.878-.064 6 6 0 0 1 -5.066-6.807l1.46-9.959a6 6 0 0 1 11.873 1.741l-1.46 9.958a6 6 0 0 1 -5.929 5.131z"/><path d="m112.071 289.914a6.009 6.009 0 0 1 -5.944-6.872l1.461-9.959a6 6 0 1 1 11.873 1.742l-1.461 9.959a6 6 0 0 1 -5.929 5.13z"/><path d="m137.705 349.936a6.083 6.083 0 0 1 -.878-.064 6 6 0 0 1 -5.066-6.807l1.46-9.959a6 6 0 0 1 11.873 1.74l-1.46 9.959a6 6 0 0 1 -5.929 5.131z"/><path d="m71.95 339.827a6.083 6.083 0 0 1 -.878-.064 6 6 0 0 1 -5.066-6.807l1.46-9.956a6 6 0 0 1 11.873 1.74l-1.46 9.959a6 6 0 0 1 -5.929 5.128z"/><path d="m177.208 451.864a6.107 6.107 0 0 1 -.879-.064 6 6 0 0 1 -5.065-6.808l1.461-9.959a6 6 0 0 1 11.873 1.742l-1.461 9.959a6 6 0 0 1 -5.929 5.13z"/><path d="m152.193 403.971a6.01 6.01 0 0 1 -5.944-6.871l1.46-9.959a6 6 0 1 1 11.873 1.74l-1.46 9.959a6 6 0 0 1 -5.929 5.131z"/><path d="m102.378 400.8a6.083 6.083 0 0 1 -.878-.064 6 6 0 0 1 -5.066-6.807l1.46-9.959a6 6 0 0 1 11.873 1.741l-1.46 9.959a6 6 0 0 1 -5.929 5.13z"/></g><path d="m302.965 496.878a6.006 6.006 0 0 1 -5.933-6.946l2.533-15.87a6 6 0 1 1 11.849 1.891l-2.532 15.869a6 6 0 0 1 -5.917 5.056z" fill="#8c3737"/><path d="m278.873 490.278a6 6 0 0 1 -5.541-8.3l5.873-14.178a6 6 0 1 1 11.086 4.592l-5.873 14.178a6 6 0 0 1 -5.545 3.708z" fill="#8c3737"/><path d="m260.762 479.787a6 6 0 0 1 -5.456-8.489l4.772-10.475a6 6 0 0 1 10.922 4.977l-4.772 10.476a6 6 0 0 1 -5.466 3.511z" fill="#8c3737"/><path d="m210.48 436.33a6 6 0 0 1 -4.19-10.294l10.95-10.686a6 6 0 1 1 8.381 8.588l-10.95 10.686a5.98 5.98 0 0 1 -4.191 1.706z" fill="#8c3737"/><path d="m197.088 412.481a6 6 0 0 1 -3.557-10.836l11.135-8.178a6 6 0 0 1 7.1 9.672l-11.135 8.178a5.981 5.981 0 0 1 -3.543 1.164z" fill="#8c3737"/><path d="m186.448 385.92a6 6 0 0 1 -2.615-11.4l12.046-5.822a6 6 0 1 1 5.223 10.8l-12.046 5.822a5.992 5.992 0 0 1 -2.608.6z" fill="#8c3737"/><path d="m179.155 358.939a6 6 0 0 1 -1.72-11.749l11.8-3.536a6 6 0 0 1 3.446 11.5l-11.8 3.536a6.007 6.007 0 0 1 -1.726.249z" fill="#8c3737"/><path d="m175.263 330.288a6 6 0 0 1 -.722-11.956l12.64-1.548a6 6 0 0 1 1.459 11.916l-12.64 1.543a6.137 6.137 0 0 1 -.737.045z" fill="#8c3737"/><path d="m189.673 300.084c-.164 0-.328-.006-.494-.02l-13.476-1.1a6 6 0 1 1 .975-11.96l13.475 1.1a6 6 0 0 1 -.48 11.98z" fill="#8c3737"/><path d="m495 356.151a5.992 5.992 0 0 1 -1.688-.243l-13.329-3.9a6 6 0 1 1 3.369-11.517l13.33 3.9a6 6 0 0 1 -1.682 11.76z" fill="#8c3737"/><path d="m488.514 379.849a5.973 5.973 0 0 1 -2.592-.593l-12.33-5.917a6 6 0 1 1 5.191-10.818l12.33 5.917a6 6 0 0 1 -2.6 11.411z" fill="#8c3737"/><path d="m478.2 403.477a5.973 5.973 0 0 1 -3.191-.924l-11.94-7.518a6 6 0 0 1 6.395-10.154l11.936 7.519a6 6 0 0 1 -3.2 11.079z" fill="#8c3737"/><path d="m449 446.825a5.983 5.983 0 0 1 -4.3-1.81l-10.855-11.127a6 6 0 0 1 8.589-8.38l10.866 11.127a6 6 0 0 1 -4.3 10.19z" fill="#8c3737"/><path d="m429.25 464.065a6 6 0 0 1 -5.02-2.7l-8.622-13.112a6 6 0 0 1 10.028-6.592l8.622 13.112a6 6 0 0 1 -5.008 9.3z" fill="#8c3737"/><path d="m404.943 480.946a6 6 0 0 1 -5.489-3.572l-6.064-13.694a6 6 0 1 1 10.972-4.859l6.065 13.694a6 6 0 0 1 -5.484 8.431z" fill="#8c3737"/><path d="m379.2 491.756a6 6 0 0 1 -5.844-4.665l-3.356-14.706a6 6 0 0 1 11.7-2.673l3.36 14.706a6.006 6.006 0 0 1 -5.856 7.338z" fill="#8c3737"/><path d="m354.641 497.482a6 6 0 0 1 -5.976-5.543l-1.155-15.126a6 6 0 1 1 11.965-.914l1.155 15.126a6 6 0 0 1 -5.525 6.439c-.156.013-.311.018-.464.018z" fill="#8c3737"/><path d="m330.611 498.346h-.011a6 6 0 0 1 -5.988-6.012l.03-14.242a6 6 0 0 1 6-5.988h.012a6 6 0 0 1 5.988 6.013l-.03 14.241a6 6 0 0 1 -6.001 5.988z" fill="#8c3737"/><path d="m464.785 425.4a5.97 5.97 0 0 1 -3.538-1.158l-11.247-8.231a6 6 0 1 1 7.086-9.685l11.243 8.226a6 6 0 0 1 -3.548 10.843z" fill="#8c3737"/><path d="m453.19 338.141h-.025a6 6 0 0 1 -5.976-6.024l.031-8.047a6 6 0 0 1 6-5.977h.024a6 6 0 0 1 5.977 6.024l-.031 8.047a6 6 0 0 1 -6 5.977z" fill="#8c3737"/><path d="m266.329 304.321a6 6 0 0 1 -5.635-8.061l2.763-7.56a6 6 0 0 1 11.272 4.119l-2.763 7.56a6.006 6.006 0 0 1 -5.637 3.942z" fill="#8c3737"/><path d="m410.441 366.586h-.022a6 6 0 0 1 -5.978-6.022l.031-8.047a6 6 0 0 1 6-5.978h.023a6 6 0 0 1 5.978 6.022l-.031 8.048a6 6 0 0 1 -6.001 5.977z" fill="#8c3737"/><path d="m379.369 323.806h-.024a6 6 0 0 1 -5.977-6.023l.031-8.048a6 6 0 0 1 6-5.976h.025a6 6 0 0 1 5.976 6.023l-.031 8.048a6 6 0 0 1 -6 5.976z" fill="#8c3737"/><path d="m314.791 400.21a6 6 0 0 1 -5.635-8.061l2.763-7.56a6 6 0 0 1 11.271 4.119l-2.762 7.56a6 6 0 0 1 -5.637 3.942z" fill="#8c3737"/><path d="m276.287 356.868a6 6 0 0 1 -5.634-8.061l2.764-7.559a6 6 0 1 1 11.269 4.12l-2.763 7.559a6 6 0 0 1 -5.636 3.941z" fill="#8c3737"/><path d="m221.022 341.059a6.006 6.006 0 0 1 -5.635-8.059l2.762-7.56a6 6 0 0 1 11.272 4.119l-2.763 7.56a6 6 0 0 1 -5.636 3.94z" fill="#8c3737"/><path d="m432.752 404.226h-.024a6 6 0 0 1 -5.977-6.023l.031-8.048a6 6 0 0 1 6-5.976h.025a6 6 0 0 1 5.976 6.023l-.031 8.047a6 6 0 0 1 -6 5.977z" fill="#8c3737"/><path d="m371.5 391.816h-.023a6 6 0 0 1 -5.978-6.022l.03-8.047a6 6 0 0 1 12 .045l-.03 8.047a6 6 0 0 1 -5.999 5.977z" fill="#8c3737"/><path d="m334.654 457.528a6 6 0 0 1 -5.634-8.061l2.762-7.559a6 6 0 0 1 11.272 4.119l-2.763 7.559a6 6 0 0 1 -5.637 3.942z" fill="#8c3737"/><path d="m330.134 352.435h-.025a6 6 0 0 1 -5.976-6.024l.031-8.047a6 6 0 0 1 6-5.977h.025a6 6 0 0 1 5.976 6.024l-.031 8.047a6 6 0 0 1 -6 5.977z" fill="#8c3737"/><path d="m280.685 440.481a6 6 0 0 1 -5.634-8.061l2.763-7.56a6 6 0 0 1 11.271 4.119l-2.763 7.56a6 6 0 0 1 -5.637 3.942z" fill="#8c3737"/><path d="m247.674 408.53a6 6 0 0 1 -5.635-8.061l2.763-7.559a6 6 0 1 1 11.271 4.119l-2.763 7.559a6 6 0 0 1 -5.636 3.942z" fill="#8c3737"/><path d="m393.7 442.081h-.022a6 6 0 0 1 -5.978-6.022l.031-8.048a6 6 0 0 1 6-5.977h.023a6 6 0 0 1 5.978 6.022l-.032 8.044a6 6 0 0 1 -6 5.981z" fill="#8c3737"/><path d="m230.423 456.344a6 6 0 0 1 -5.145-9.078l6.2-10.374a6 6 0 1 1 10.3 6.155l-6.2 10.374a6 6 0 0 1 -5.155 2.923z" fill="#8c3737"/><path d="m157.833 301.3a6 6 0 0 1 -6-6v-8.175a6 6 0 0 1 12 0v8.175a6 6 0 0 1 -6 6z" fill="#7f3333"/></svg>