<svg id="Layer_1" enable-background="new 0 0 512 512" height="512" viewBox="0 0 512 512" width="512" xmlns="http://www.w3.org/2000/svg"><path d="m437.9 219.9c-13.1-119.5-105.4-133.2-142-133.8-5-.1-9.9 0-14.8.5-6.7-2.5-13.6-4.3-20.6-5.3-17.4-2.6-38.8-1.4-63.6 8.4l-103.2 101.6c-.3.8-20.5 48.6 15.6 126.9 35.1 75.9 22.4 115.5 14.2 127.1-1.7 2.4-2.2 5.4-1.3 8.2 3.5 10.8 18.6 35.5 84.8 41.3 25.1 2.2 89.5-12.3 100.1-24.2l125.3-148.8c11.8-38.8 8.7-72.3 5.5-101.9z" fill="#64bc73"/><path d="m152.1 453.5c-.9-2.8-.4-5.8 1.4-8.2 8.2-11.6 20.9-51.2-14.2-127.1-7.6-16.1-13.3-33.1-17.1-50.5-8-38.3 4-78 31.7-105.5l49.2-49c15.5-15.5 34.9-26.6 56.1-32.2-17.2-2.4-38.1-1-62.4 8.5l-103.1 101.8c-.3.8-20.5 48.6 15.6 126.9 35.1 75.9 22.4 115.5 14.2 127.1-1.7 2.4-2.2 5.4-1.3 8.2 3.5 10.8 18.6 35.5 84.8 41.3 5.6.5 13.3.1 21.8-.8-59.4-7.1-73.4-30.2-76.7-40.5z" fill="#94eaa0"/><path d="m481.7 306.1c9.4 10.8 22.8 122.1-96 155.9-27.5 7.8-54 10.5-78.6 8.6-59.2-4.5-107.7-35.1-132.7-82.9-2.6-4.9-1.3-10.2 4.1-12.8 11.9-5.9 30.7-10.3 54.1-9 2.6.1 5.2.3 7.9.6 106.2 11 132.7 4.7 189.4-39.1 7.4-5.8 15.1-11.2 23.1-16.1.1-.1.3-.2.4-.2 11.4-6.8 23-11.1 28.3-5z" fill="#e8ae5c"/><path d="m432.4 321.8c7.1-3.3 14-6.8 20.5-10.5-8 4.9-15.7 10.3-23.1 16.1-56.6 43.8-83.2 50-189.4 39.1-2.7-.3-5.3-.5-7.9-.6 35.5-2.1 130.4-12.4 199.9-44.1z" fill="#e19541"/><path d="m389.4 184.7c-2.4 0-4.6-1.5-5.6-3.7-1.5-3.6-3.1-7.3-4.9-10.9-1.4-3-.2-6.6 2.8-8s6.6-.2 8 2.8c1.8 3.8 3.6 7.7 5.1 11.6 1.3 3.1-.2 6.6-3.3 7.8-.6.2-1.4.4-2.1.4z" fill="#f4f8fc"/><path d="m399.2 279.2c-3.3 0-6-2.7-6-6 0-.6.1-1.2.3-1.8.1-.5 9.8-32-4.9-77.2-1-3.2.7-6.5 3.9-7.6 3.2-1 6.5.7 7.6 3.9 16 49.2 5.3 83.2 4.9 84.6-.9 2.4-3.2 4.1-5.8 4.1z" fill="#f4f8fc"/><path d="m226.2 54.8c-.7.3-21.2 11.4-29.4 34.9-.4 1.2-.8 2.4-1.2 3.7-11.4 40.9-44.6 51.4-79 78.2-8 6.2-15.7 12.9-23 19.9-17.4 16.6-32.4 35.7-44.6 56.5l-21 36.3c-10.5-44 4.9-99.4 11.4-111.6 5.7-10.4 10.6-21.4 14.5-32.6 40.1-121.2 172.3-85.4 172.3-85.3 0-.1 0-.1 0 0z" fill="#508153"/><path d="m47.2 215.3c-3.3 0-6-2.7-6-6 0-.8.2-1.6.5-2.4 3.2-7.3 6.1-13.8 9-20 1.4-3 4.9-4.4 7.9-3s4.4 4.9 3 7.9v.1c-2.8 6.1-5.7 12.5-8.8 19.7-1 2.3-3.2 3.7-5.6 3.7z" fill="#406641"/><path d="m224.4 49c-92.5 29.8-128.2 46.9-166.3 122.7-1.5 3-.3 6.6 2.7 8.1.9.4 1.8.6 2.7.6 2.2 0 4.3-1.2 5.4-3.3 34.6-68.8 63.3-85.7 159.2-116.6l38.3-12.2 2.6-12.9z" fill="#406641"/><path d="m297.4 33.2c1.8 1.5 2.7 3.7 2.6 6l-4.1 46.9c-5-.1-9.9 0-14.8.5-6.7-2.5-13.6-4.3-20.6-5.3l4.1-38.7 2-18.5c.6-6.5 9.5-9.4 14.8-4.9z" fill="#8c6238"/></svg>