<svg id="Layer_1" height="512" viewBox="0 0 512 512" width="512" xmlns="http://www.w3.org/2000/svg" data-name="Layer 1"><path d="m299.68 162.48c-9.16-14.56-21.36-21.55-32.83-25.51a20.429 20.429 0 0 1 -4.7-2.34 32.219 32.219 0 0 0 -12.6 5.49 72.1 72.1 0 0 0 -20.36-2.54c-17.73.26-42.04 7.3-51.65 41.21-11.31 39.94-.85 58.37-24.19 90.88-24.66 34.37-83.8 152.34 26.23 195.21 33.36 12.99 60.68 12.49 82.91 7.75a174.99 174.99 0 0 1 29.41-3.44c8.71-.36 15.22-.49 25.26-2.42l35.08-219.45c-31.1-25.25-30.45-49.69-52.56-84.84z" fill="#e0ae55"/><path d="m197.49 86.2c.16.51.24.78.24.78s-5.58 104.03-182.35 13.19a4.394 4.394 0 0 1 -.95-7.15c139.85-127.269 179.68-17.239 183.06-6.82z" fill="#8ead6d"/><path d="m390.06 235.96c1.94-3.28 11.66-10.32 19.55-11.2a12.134 12.134 0 0 1 3.19.02c17.14 2.51 18.16 12.17 22.2 29.15 12.13 50.93 12.4 29.96 41.05 83.49 19.21 35.9 52.88 151.37-73.28 143.55-8.63-.53-17.29-.67-25.93-.57-26.51.3-45.85-4.93-59.68-13.63-48.02-30.21-29.55-102.21-13.56-129.35 27.69-47.02 34.52-32.56 46.65-83.49a56.567 56.567 0 0 1 1.99-6.61c4.68-12.71 12.78-19.65 20.22-22.54 3.18-1.24 5.79-1.46 7.88-.92a7.815 7.815 0 0 1 4.83 3.78c1.57 2.67 2.95 5.74 4.89 8.32z" fill="#fbe7b7"/><path d="m401.22 215.31c1.13 4.27 4.45 7.47 8.39 9.45-7.89.88-17.61 7.92-19.55 11.2-1.94-2.58-3.32-5.65-4.89-8.32a7.815 7.815 0 0 0 -4.83-3.78c-3.52-29.09 11.84-66.34 11.84-66.34l10.65 7.27s-7.79 27.4-1.61 50.52z" fill="#4a6d51"/><path d="m414.74 379.89s23.24 24 5.74 27.8c-19.08 2.59-5.74-27.8-5.74-27.8z" fill="#6f624b"/><path d="m368.27 379.89s13.34 30.39-5.74 27.8c-17.5-3.8 5.74-27.8 5.74-27.8z" fill="#6f624b"/><path d="m183.35 269.67c23.34-32.51 12.88-50.94 24.19-90.88 7.332-25.872 23.22-36.094 38.215-39.606a75.771 75.771 0 0 0 -16.565-1.6c-17.73.26-42.04 7.3-51.65 41.21-11.31 39.94-.85 58.37-24.19 90.88-24.66 34.37-83.8 152.34 26.23 195.21 26.882 10.468 49.84 12.173 69.375 9.961a156.073 156.073 0 0 1 -39.375-9.961c-110.03-42.874-50.89-160.844-26.23-195.214z" fill="#b78d4b"/><path d="m406.84 480.4c-26.51.3-45.85-4.93-59.68-13.63-48.02-30.21-29.55-102.21-13.56-129.35 27.69-47.02 34.52-32.56 46.65-83.49a56.567 56.567 0 0 1 1.99-6.61 44.076 44.076 0 0 1 7-12.575c-1.518-2.3-2.735-4.838-4.068-7.105a7.815 7.815 0 0 0 -4.83-3.78c-2.09-.54-4.7-.32-7.88.92-7.44 2.89-15.54 9.83-20.22 22.54a56.567 56.567 0 0 0 -1.99 6.61c-12.13 50.93-18.96 36.47-46.65 83.49-15.99 27.14-34.46 99.14 13.56 129.35 13.83 8.7 33.17 13.93 59.68 13.63 8.64-.1 17.3.04 25.93.57a168.055 168.055 0 0 0 25.571-.223c-7.164-.333-14.343-.43-21.503-.347z" fill="#d8c5a0"/><path d="m47.865 95.1a6 6 0 0 1 -1.437-11.826c6.05-1.5 12.091-2.88 17.955-4.111a6 6 0 1 1 2.466 11.744c-5.726 1.2-11.626 2.553-17.538 4.016a6.054 6.054 0 0 1 -1.446.177z" fill="#728956"/><path d="m226.321 102.967a5.974 5.974 0 0 1 -3.944-1.481c-.582-.492-37.532-30.747-137.538-13.98a6 6 0 0 1 -1.984-11.835c106.745-17.895 145.831 15.376 147.445 16.801a6 6 0 0 1 -3.977 10.5z" fill="#728956"/><path d="m170.331 327.141a6 6 0 0 1 -5.494-8.407c1.979-4.522 4.188-9.176 6.566-13.834a6 6 0 0 1 10.688 5.457c-2.27 4.446-4.377 8.884-6.261 13.188a6 6 0 0 1 -5.499 3.596z" fill="#f4f8fc"/><path d="m165.33 420.566a6.038 6.038 0 0 1 -4.66-2.188c-.89-1.075-21.584-26.987-2.16-83.49a6 6 0 1 1 11.348 3.9c-8.95 26.037-8.412 44.28-6.385 55 2.164 11.44 6.437 16.932 6.48 16.986a5.988 5.988 0 0 1 -4.623 9.792z" fill="#f4f8fc"/><path d="m390.672 306.9a6 6 0 0 1 -6-6v-14.456a6 6 0 1 1 12 0v14.456a6 6 0 0 1 -6 6z" fill="#bcaa8a"/><path d="m390.672 456.29a6 6 0 0 1 -6-6v-111.819a6 6 0 0 1 12 0v111.819a6 6 0 0 1 -6 6z" fill="#bcaa8a"/><path d="m254.98 125.91a19.576 19.576 0 0 0 7.17 8.72 32.219 32.219 0 0 0 -12.6 5.49 72.1 72.1 0 0 0 -20.36-2.54v-.01c-9.43-36.35 4.45-83.53 4.45-83.53l14.76 7.43s-5.2 36.12 6.58 64.44z" fill="#6f624b"/></svg>