<svg id="Layer_1" height="512" viewBox="0 0 512 512" width="512" xmlns="http://www.w3.org/2000/svg" data-name="Layer 1"><path d="m242.21 457.2a70.8 70.8 0 0 0 6.18 19.42c-46.99 23.61-67.86-23.2-69.85-28.01 7.8 2.18 17.76 1.94 30.48-2.09 11.15 1.06 18.43-5.67 22.45-15.67h.01c1.3 10.48 5.16 19.72 10.73 26.35z" fill="#e6736b"/><path d="m206.592 447.252c-11.568 3.318-20.756 3.4-28.052 1.358 1.858 4.49 20.17 45.567 60.818 31.812-14.951-4.67-26.65-22.078-32.766-33.17z" fill="#c45f5c"/><path d="m411.76 353.16c2.23 18.33-2.16 40.71-27.82 58.23h-.01c-.14-7.63-2.61-15.77-8.48-24.03 6.51-19.47-1.8-43.62-1.8-43.62 11.52-1.7 21.27-11.26 26.16-24.58a88.63 88.63 0 0 1 11.95 34z" fill="#a54a4a"/><path d="m355.85 453.26a40.309 40.309 0 0 0 7-3.92c-16.34 63.97-56.32 26.46-56.32 26.46 9.58-2.09 20.44-8.49 31.59-22.89 4.18 2.22 10.2 3.57 17.73.35z" fill="#d85445"/><path d="m383.93 411.39c.3 16.42-10.22 30.44-21.08 37.94v.01a40.309 40.309 0 0 1 -7 3.92c-7.53 3.22-13.55 1.87-17.73-.35a21.3 21.3 0 0 1 -6.77-5.61c10.07-7.61 12.86-21.96 8.23-35.91 21.73-1.32 31.75-11.74 35.87-24.03 5.87 8.26 8.34 16.4 8.48 24.03z" fill="#cc4339"/><path d="m339.58 411.39c4.63 13.95 1.84 28.3-8.23 35.91-10.77 8.14-28.52 8.9-38.16-3.82a56.469 56.469 0 0 0 3.54-19.95s.49-6.35-2.67-15.56v-.01c11.64-.3 21.67-8.94 26.62-21.43a48.953 48.953 0 0 1 18.9 24.86z" fill="#a54a4a"/><path d="m375.45 387.36c-4.12 12.29-14.14 22.71-35.87 24.03a48.953 48.953 0 0 0 -18.9-24.86 47.971 47.971 0 0 0 3.27-17.6 43.929 43.929 0 0 0 -2.95-15.77c9.91-.01 19.95-8.67 26.68-20.61 5.9 7.12 13.71 11.46 22.28 11.46a25.045 25.045 0 0 0 3.69-.27s8.31 24.15 1.8 43.62z" fill="#d85445"/><path d="m321 353.16a43.929 43.929 0 0 1 2.95 15.77 47.971 47.971 0 0 1 -3.27 17.6c-4.95 12.49-14.98 21.13-26.62 21.43-.21.01-.43.01-.64.01-14.24 0-26.82-14.06-30.2-30.92a50.18 50.18 0 0 0 .66-8.12 44.78 44.78 0 0 0 -4.96-21.34 24.637 24.637 0 0 0 4.56.42c11.37 0 21.41-7.63 27.4-19.26 12.53 0 24.7 10.28 30.12 24.41z" fill="#cc4339"/><path d="m263.88 368.93a50.18 50.18 0 0 1 -.66 8.12c-2.79 16.84-14.07 29.68-27.84 30.83-.67.06-1.35.09-2.03.09-13.47 0-24.91-11.17-28.96-26.65a57.108 57.108 0 0 0 2.77-17.75c0-5.2-.24-10.95-1.46-15.58 12.33-.45 22.98-9.87 28.43-23.54 4.9 12.31 14.02 21.17 24.79 23.14a44.78 44.78 0 0 1 4.96 21.34z" fill="#a54a4a"/><path d="m272.69 466.21a25.4 25.4 0 0 1 -9.21 1.73c-8.28 0-15.65-4.04-21.27-10.74-5.57-6.63-9.43-15.87-10.73-26.35h-.01c2.68-6.63 3.92-14.69 3.92-22.88l-.01-.09c13.77-1.15 25.05-13.99 27.84-30.83 3.38 16.86 15.96 30.92 30.2 30.92.21 0 .43 0 .64-.01v.01c3.16 9.21 2.67 15.56 2.67 15.56a56.469 56.469 0 0 1 -3.54 19.95c-4.12 10.94-11.53 19.29-20.5 22.73z" fill="#d85445"/><path d="m331.35 447.3a21.3 21.3 0 0 0 6.77 5.61c-11.15 14.4-22.01 20.8-31.59 22.89-19.3 4.2-33.35-9.12-33.84-9.59 8.97-3.44 16.38-11.79 20.5-22.73 9.64 12.72 27.39 11.96 38.16 3.82z" fill="#e6736b"/><path d="m272.69 466.21c.49.47 14.54 13.79 33.84 9.59-5.29 6.88-15.91 15.37-22.61 17.5-19.11 6.07-29.78-5.18-35.53-16.68a70.8 70.8 0 0 1 -6.18-19.42c5.62 6.7 12.99 10.74 21.27 10.74a25.4 25.4 0 0 0 9.21-1.73z" fill="#cc4339"/><path d="m178.54 448.61c-18.28-5.09-24.67-23.45-26.85-37.22h-.01a85.237 85.237 0 0 1 -1.05-16.14c6 7.87 14.22 12.72 23.29 12.72a25.271 25.271 0 0 0 7.47-1.13c0 20.54 11.05 38.09 27.63 39.68-12.72 4.03-22.68 4.27-30.48 2.09z" fill="#a54a4a"/><path d="m235.38 407.88.01.09c0 8.19-1.24 16.25-3.92 22.88-4.02 10-11.3 16.73-22.45 15.67-16.58-1.59-27.63-19.14-27.63-39.68 10.34-3.17 18.84-12.79 23-25.52 4.05 15.48 15.49 26.65 28.96 26.65.68 0 1.36-.03 2.03-.09z" fill="#cc4339"/><path d="m143.17 346.5c4.92-16.05 16.62-27.34 30.45-27.34 4.72 16.85 16.89 28.85 31.15 28.85.31 0 .62-.01.93-.02 1.22 4.63 1.46 10.38 1.46 15.58a57.108 57.108 0 0 1 -2.77 17.75c-4.16 12.73-12.66 22.35-23 25.52a25.271 25.271 0 0 1 -7.47 1.13c-9.07 0-17.29-4.85-23.29-12.72v-.01c-6.15-8.05-9.96-19.27-9.96-31.67a58.341 58.341 0 0 1 2.5-17.07z" fill="#d85445"/><path d="m150.63 395.24v.01a85.237 85.237 0 0 0 1.05 16.14c-31.89-14.76-39.53-36.74-38.95-55.47.62-19.9 10.53-36.13 10.53-36.13h.01c3.73 12.06 11.29 22.12 19.9 26.71a58.341 58.341 0 0 0 -2.5 17.07c0 12.4 3.81 23.62 9.96 31.67z" fill="#cc4339"/><path d="m126.55 277.51.01.01a58.626 58.626 0 0 0 -5.79 26.08 54.472 54.472 0 0 0 2.5 16.19h-.01s-9.91 16.23-10.53 36.13c-21.81-25.11-20.02-62.56-11.51-78.72 6.78-12.86 16.67-11.48 17.96-11.24a42.391 42.391 0 0 0 7.37 11.55z" fill="#d85445"/><path d="m174.19 286.13a58.586 58.586 0 0 0 -.57 33.03c-13.83 0-25.53 11.29-30.45 27.34-8.61-4.59-16.17-14.65-19.9-26.71a54.472 54.472 0 0 1 -2.5-16.19 58.626 58.626 0 0 1 5.79-26.08c5.63-11.3 14.95-18.71 26.06-18.71h.01c3.55 13.06 11.56 23.26 21.56 27.32z" fill="#a54a4a"/><path d="m174.19 286.13c4.31-13.46 13.46-23.48 24.52-26.2 4.87 16.46 16.89 28.11 30.94 28.11a26.223 26.223 0 0 0 2.67-.14l.02.14a57.571 57.571 0 0 0 -2.1 15.56 56.405 56.405 0 0 0 3.89 20.85c-5.45 13.67-16.1 23.09-28.43 23.54-.31.01-.62.02-.93.02-14.26 0-26.43-12-31.15-28.85a58.586 58.586 0 0 1 .57-33.03z" fill="#cc4339"/><path d="m348.45 274.48a56.662 56.662 0 0 1 7.4 28.38 61.98 61.98 0 0 1 -8.17 29.69c-6.73 11.94-16.77 20.6-26.68 20.61-5.42-14.13-17.59-24.41-30.12-24.41a51.581 51.581 0 0 0 4.54-12.78 49.038 49.038 0 0 0 -.5-22.63c-.67-2.62-1.55-5.05-2.65-6.3a25.111 25.111 0 0 0 7.04 1c14.3 0 26.49-12.06 31.18-28.98 7.08 2.03 13.4 7.67 17.96 15.42z" fill="#a54a4a"/><path d="m403.21 299.6a56.553 56.553 0 0 1 -3.4 19.56c-4.89 13.32-14.64 22.88-26.16 24.58a25.045 25.045 0 0 1 -3.69.27c-8.57 0-16.38-4.34-22.28-11.46a61.98 61.98 0 0 0 8.17-29.69 56.662 56.662 0 0 0 -7.4-28.38c8.6-2.48 15.69-10.28 19.35-20.58 10.65.02 20.86 7.16 27.56 17.94a52.869 52.869 0 0 1 7.85 27.76z" fill="#cc4339"/><path d="m423.37 277.2c8.51 16.16 10.21 50.84-11.6 75.96h-.01a88.63 88.63 0 0 0 -11.95-34 56.553 56.553 0 0 0 3.4-19.56 52.869 52.869 0 0 0 -7.85-27.76 29.078 29.078 0 0 0 7.85-6.72s12.9-1.7 20.16 12.08z" fill="#d85445"/><path d="m412.32 237.92c0 10.76-3.51 20.44-9.11 27.2a29.078 29.078 0 0 1 -7.85 6.72c-6.7-10.78-16.91-17.92-27.56-17.94a47.385 47.385 0 0 0 2.72-15.98c0-9.95-2.99-18.97-7.89-25.62l.01-.01c5.11-6.69 13.63-11.36 21.43-11.36 15.6 0 28.25 16.56 28.25 36.99z" fill="#a54a4a"/><path d="m367.8 253.9c-3.66 10.3-10.75 18.1-19.35 20.58-4.56-7.75-10.88-13.39-17.96-15.42a57.865 57.865 0 0 0 2.06-15.43c0-12.55-3.9-23.89-10.17-31.97 5.1-6.63 12.13-10.73 19.89-10.73a22.216 22.216 0 0 1 8.29 1.62 28.161 28.161 0 0 1 12.07 9.75c4.9 6.65 7.89 15.67 7.89 25.62a47.385 47.385 0 0 1 -2.72 15.98z" fill="#d85445"/><path d="m294.92 293.34a49.038 49.038 0 0 1 .5 22.63 51.581 51.581 0 0 1 -4.54 12.78c-5.99 11.63-16.03 19.26-27.4 19.26a24.637 24.637 0 0 1 -4.56-.42c-10.77-1.97-19.89-10.83-24.79-23.14a56.405 56.405 0 0 1 -3.89-20.85 57.571 57.571 0 0 1 2.1-15.56l-.02-.14c17.11-1.82 30.57-20.94 30.57-44.27 0-16.41-6.66-30.74-16.57-38.44a58.61 58.61 0 0 1 19.07-3.36 41.973 41.973 0 0 1 17.25 3.36c-9.91 7.7-16.58 22.03-16.58 38.44 0 21.3 11.23 39.1 26.21 43.41 1.1 1.25 1.98 3.68 2.65 6.3z" fill="#d85445"/><path d="m322.38 211.66c6.27 8.08 10.17 19.42 10.17 31.97a57.865 57.865 0 0 1 -2.06 15.43c-4.69 16.92-16.88 28.98-31.18 28.98a25.111 25.111 0 0 1 -7.04-1c-14.98-4.31-26.21-22.11-26.21-43.41 0-16.41 6.67-30.74 16.58-38.44a27.116 27.116 0 0 1 16.67-5.97 25.675 25.675 0 0 1 9.1 1.68 32.594 32.594 0 0 1 13.97 10.76z" fill="#cc4339"/><path d="m246.32 205.19c9.91 7.7 16.57 22.03 16.57 38.44 0 23.33-13.46 42.45-30.57 44.27a26.223 26.223 0 0 1 -2.67.14c-14.05 0-26.07-11.65-30.94-28.11a57.631 57.631 0 0 1 -2.31-16.3c0-12.7 4-24.16 10.41-32.26a33.956 33.956 0 0 1 10.2-8.82 25.993 25.993 0 0 1 12.64-3.33 27.116 27.116 0 0 1 16.67 5.97z" fill="#a54a4a"/><path d="m397.38 127.83s18.91 55.79-46.82 74.72a22.216 22.216 0 0 0 -8.29-1.62c-7.76 0-14.79 4.1-19.89 10.73a32.594 32.594 0 0 0 -13.97-10.76c.09-.85 2.28-19.07 28.64-28.38 7.45-2.63 16.83-4.55 28.64-5.16 0 0 26.88-4.43 31.69-39.53z" fill="#5fcda4"/><path d="m273.72 182.23a84.782 84.782 0 0 1 10-13.14 102.343 102.343 0 0 1 28.91-21.53c37.16-19 59.8-53.32 50.65-85.69 7.84 22.69 19.13 74.99-26.23 110.65-26.36 9.31-28.55 27.53-28.64 28.38a25.675 25.675 0 0 0 -9.1-1.68 27.116 27.116 0 0 0 -16.67 5.97 41.973 41.973 0 0 0 -17.25-3.36s1.48-8.47 8.33-19.6z" fill="#4ca987"/><path d="m285.63 17 11.07 3.57s-24.46 107.47-13 148.5l.02.02a84.782 84.782 0 0 0 -10 13.14 65.867 65.867 0 0 1 -15.86-10.19l.01-.01s-8.22-83.96 27.76-155.03z" fill="#795940"/><path d="m273.72 182.23c-6.85 11.13-8.33 19.6-8.33 19.6a58.61 58.61 0 0 0 -19.07 3.36 27.116 27.116 0 0 0 -16.67-5.97 25.993 25.993 0 0 0 -12.64 3.33c-.39-.11-11.25-3.28-15.85-26.65a.031.031 0 0 0 -.01-.02c-1.7-8.63-2.55-20.01-1.71-35 3.12-55.58-12.58-78.36-13.03-79 .82.74 36.08 33.1 46.24 70.33a78.561 78.561 0 0 0 25.21 39.83 65.867 65.867 0 0 0 15.86 10.19z" fill="#5fcda4"/><path d="m217.01 202.55a33.956 33.956 0 0 0 -10.2 8.82c-5.96-7.5-14.11-12.15-22.94-12.15-15.32-3.11-28.89-16.54-49.09-15.06-57.26 4.2-51.9-34.76-51.9-34.76s39.99 22.64 67.75 3.58c32.78-22.5 50.09 21.79 50.52 22.9a.031.031 0 0 1 .01.02c4.6 23.37 15.46 26.54 15.85 26.65z" fill="#4ca987"/><path d="m206.81 211.37c-6.41 8.1-10.41 19.56-10.41 32.26a57.631 57.631 0 0 0 2.31 16.3c-11.06 2.72-20.21 12.74-24.52 26.2-10-4.06-18.01-14.26-21.56-27.32a57.442 57.442 0 0 1 -2-15.18c0-15.71 6.11-29.52 15.32-37.41h.01a27.363 27.363 0 0 1 17.91-7c8.83 0 16.98 4.65 22.94 12.15z" fill="#d85445"/><path d="m119.18 265.96a56.141 56.141 0 0 1 -4.38-22.33c0-24.52 14.88-44.41 33.24-44.41a27.394 27.394 0 0 1 17.91 7c-9.21 7.89-15.32 21.7-15.32 37.41a57.442 57.442 0 0 0 2 15.18h-.01c-11.11 0-20.43 7.41-26.06 18.71l-.01-.01a42.391 42.391 0 0 1 -7.37-11.55z" fill="#cc4339"/><path d="m126.55 277.51.01.01a58.626 58.626 0 0 0 -5.79 26.08 54.472 54.472 0 0 0 2.5 16.19h-.01s-9.91 16.23-10.53 36.13c-21.81-25.11-20.02-62.56-11.51-78.72 6.78-12.86 16.67-11.48 17.96-11.24a42.391 42.391 0 0 0 7.37 11.55z" fill="#aa4841"/><path d="m163.044 204a26.563 26.563 0 0 0 -15-4.78c-18.36 0-33.24 19.89-33.24 44.41a56.141 56.141 0 0 0 4.38 22.33 42.391 42.391 0 0 0 7.37 11.55l.01.01c4.636-9.3 11.777-15.96 20.355-18.025a58.944 58.944 0 0 1 -2.119-15.865c0-17.312 7.422-32.305 18.244-39.63z" fill="#aa3835"/><path d="m123.27 319.79h-.01s-9.91 16.23-10.53 36.13c-.58 18.73 7.06 40.71 38.95 55.47a85.237 85.237 0 0 1 -1.05-16.14v-.01c-6.15-8.05-9.96-19.27-9.96-31.67a60.1 60.1 0 0 1 .719-9.271 68.864 68.864 0 0 1 -11.254-20.115 54.339 54.339 0 0 1 -6.865-14.394z" fill="#9b3634"/><path d="m192.871 438.555c-6.353-6.469-10.416-16.25-11.3-27.215-2.361-1.1-4.576-2.236-6.678-3.407-.326.013-.65.037-.978.037-9.07 0-17.29-4.85-23.29-12.72a85.237 85.237 0 0 0 1.05 16.14h.01c2.18 13.77 8.57 32.13 26.85 37.22 7.049 1.97 15.869 1.953 26.888-1.04a31.344 31.344 0 0 1 -12.552-9.015z" fill="#7a3737"/></svg>