<svg id="Layer_1" height="512" viewBox="0 0 512 512" width="512" xmlns="http://www.w3.org/2000/svg" data-name="Layer 1"><path d="m329.54 197.83-13.55-24.57a254.046 254.046 0 0 0 -33.4-42.57l-79.13 5.69-41.65 20.49-32.81-3.49-92.16 54.6s-10.95 45.53 7.39 97.67l8.27 19.67c20.67 41.92 62.66 84.94 145.68 110l15.37 4.3q20.4 5.295 43.92 9.15a21.41 21.41 0 0 0 3.48.29 18.08 18.08 0 0 0 4.74-.61c4.41-1.2 7.78-4.31 10.68-7.84 1.8-2.19 4.17-5.27 5.89-7.44h.01l26.16-212.19 26.95-9.63c-1.81-4.65-3.77-9.16-5.84-13.52z" fill="#d8514b"/><path d="m243.55 439.62-15.37-4.3c-83.02-25.06-125.01-68.08-145.68-110l-8.27-19.67q-.49-1.4-.955-2.787c-16.1-48.262 4.234-101.2 48.005-127.136l33.154-19.642-25.434-2.705-92.16 54.6s-10.95 45.53 7.39 97.67l8.27 19.67c20.67 41.92 62.66 84.94 145.68 110l15.37 4.3q20.4 5.295 43.92 9.15a21.41 21.41 0 0 0 3.48.29 18.08 18.08 0 0 0 4.74-.61 16.343 16.343 0 0 0 5.315-2.623q-14.37-2.805-27.455-6.207z" fill="#a83f3f"/><g fill="#ad2a34"><path d="m329.54 197.83c-4.68 1.61-14.93-1.97-17.12-8.31s-1.1-14.64 3.57-16.26a238.34 238.34 0 0 1 13.55 24.57z"/><path d="m239.07 367.29c1.88 6.44-.45 12.78-5.2 14.17s-10.13-2.72-12.01-9.16.44-12.77 5.19-14.16 10.13 2.71 12.02 9.15z"/><path d="m228.91 219.89c2.19 6.34.17 12.79-4.51 14.4s-10.25-2.22-12.44-8.56-.17-12.78 4.5-14.4 10.25 2.22 12.45 8.56z"/><path d="m216.04 427.7c1.14 4.75.04 9.34-2.49 11.92q-7.92-2.055-15.37-4.3c-1.53-6.52.29-15.93 6.33-17.36 4.82-1.14 9.98 3.22 11.53 9.74z"/><path d="m207.78 276.09c1.88 6.44-.45 12.78-5.2 14.16s-10.13-2.71-12.01-9.15.45-12.78 5.2-14.16 10.13 2.71 12.01 9.15z"/><path d="m183.9 332.88c1.55 6.52-1.1 12.74-5.92 13.88s-9.97-3.22-11.53-9.75 1.1-12.74 5.91-13.88 9.98 3.22 11.54 9.75z"/><path d="m163.56 384.66c2.19 6.34.17 12.79-4.51 14.4s-10.25-2.22-12.44-8.56-.17-12.79 4.51-14.4 10.25 2.22 12.44 8.56z"/><path d="m156.74 239.68c.2 6.7-3.64 12.26-8.59 12.41s-9.12-5.17-9.33-11.87 3.64-12.26 8.59-12.41 9.13 5.16 9.33 11.87z"/><path d="m132.27 293.46c2.19 6.34.18 12.79-4.5 14.4s-10.25-2.22-12.44-8.56-.18-12.79 4.5-14.4 10.25 2.22 12.44 8.56z"/><path d="m111.23 349.94c1.55 6.53-1.1 12.74-5.91 13.89s-9.98-3.23-11.54-9.75 1.1-12.74 5.92-13.88 9.97 3.22 11.53 9.74z"/><path d="m76.11 244.91c4.94.41 8.49 6.16 7.93 12.84s-5 11.77-9.93 11.37-8.48-6.16-7.93-12.84 5-11.77 9.93-11.37z"/><path d="m52.13 301.34c4.93.41 8.49 6.16 7.93 12.84-.47 5.67-3.56 10.14-7.56 11.14a178.023 178.023 0 0 1 -8.27-19.67 7.869 7.869 0 0 1 7.9-4.31z"/><path d="m248.5 306.59a205.648 205.648 0 0 0 .95 27.95c-4.54-.51-9.59-5.1-11.63-11-2.58-7.47-.21-15.06 5.3-16.96 2.06-.71 3.29-.9 5.38.01z"/></g><path d="m494.5 289.59a.549.549 0 0 1 .12 1.07c-11.39 3.97-37.52-7.45-38.36-7.82a.031.031 0 0 0 -.02-.01c-17.43-14.44-46.25-14.84-59.13-14.75-.37 0-.73 0-1.08-.02a19.213 19.213 0 0 1 -7.68-1.61l.06-.13a130.042 130.042 0 0 0 3.73-12.71h.01s29.73-16 50.97 2.65c15.45 13.57 41.01 32.36 51.38 33.33z" fill="#4ca987"/><path d="m398.31 293.03a97.563 97.563 0 0 0 -2.28-24.96v-.01c.35.02.71.02 1.08.02 12.88-.09 41.7.31 59.13 14.75a.031.031 0 0 1 .02.01c12.27 10.16 18.89 27.28 10.32 56.07-17.72 59.56-107.1 112.41-157.32 113.28a24.3 24.3 0 0 1 -6.71-.83c22.78-17.92 23.73-56.47 51.87-81.87v-.01a74.325 74.325 0 0 1 7.04-5.65 87.172 87.172 0 0 0 20.94-20.78c12.04-17.02 15.49-35.61 15.91-50.02z" fill="#de3c44"/><path d="m434.68 233.58c17.63 7.01 22.15 4.81 22.37 4.7-.51.36-18.96 13.69-13.93 17.98-21.24-18.65-50.97-2.65-50.97-2.65h-.01c.8-3.24 1.62-6.99 2.34-11.09 0 0 22.11-16.13 40.2-8.94z" fill="#5fcda4"/><path d="m386.63 178.21-12.3 9.34s13.39 13.02 4.49 47.97v.01c-.95 3.7-2.14 7.65-3.63 11.86-1.15 3.25-2.47 6.66-3.99 10.22l17.15 8.84.06-.13a130.042 130.042 0 0 0 3.73-12.71c.8-3.24 1.62-6.99 2.34-11.09 3.25-18.56 4.4-44.44-7.85-64.31z" fill="#7f3d32"/><path d="m378.82 235.52v.01c-.95 3.7-2.14 7.65-3.63 11.86 0 0-10.21-33.75-38.42-35.93-.44-.03-.89-.07-1.35-.11 2.19-.07 2.29-23.36 2.29-23.36s1.2 4.81 18.98 12.74c17.56 7.82 22.02 34.14 22.13 34.79z" fill="#5fcda4"/><path d="m375.19 247.39c-1.15 3.25-2.47 6.66-3.99 10.22-3.02 0-6.49-1.17-10.1-4.7-9.3-9.08-29.97-29.79-52.67-31.93 0 0-27.09-11.26-32.28-22.35a.558.558 0 0 1 .86-.67c7.74 6.59 37.86 11.69 58.37 13.39h.04c.46.04.91.08 1.35.11 28.21 2.18 38.42 35.93 38.42 35.93z" fill="#4ca987"/><path d="m249.45 334.54a205.648 205.648 0 0 1 -.95-27.95c.75-20.06 4.84-38.85 13.3-53.94 14.48-25.85 31.03-33.14 46.63-31.67 22.7 2.14 43.37 22.85 52.67 31.93 0 0-55.24 30.62-45.79 91.48a76.968 76.968 0 0 1 .9 10.3c.73 37.07-25.52 63.74-22.53 92.2a24.369 24.369 0 0 1 -3.06-2.87 98.454 98.454 0 0 1 -8.35-10.85c-16.2-24.03-29.11-61.57-32.82-98.63z" fill="#de3c44"/><path d="m282.59 130.69c-14.49 10.2-39.1 16.4-79.13 5.69-1.3-.63-2.6-1.21-3.88-1.73a59.357 59.357 0 0 0 -30.9-3.67s-2.16-5-6.3-12.42a120.031 120.031 0 0 1 30.98-21.82l.02-.02c17.02-8.14 38.93-12.6 60.14.51 20.79 12.86 34.28 5.85 40.42.71a4.319 4.319 0 0 1 7.02 2.64c.75 4.88-3.45 19.62-18.37 30.11z" fill="#57bf80"/><path d="m256.81 170.06a.693.693 0 0 1 .47 1.25c-18.17 13.44-50.48 5.15-66.1-7.03-16.41-12.8-29.37-7.41-29.37-7.41.75-8.57.03-18-4.89-23.64a9.487 9.487 0 0 0 3.74-.2l8.02-2.05a59.357 59.357 0 0 1 30.9 3.67c1.28.52 2.58 1.1 3.88 1.73a69.331 69.331 0 0 1 17.38 12.3c20.32 19.42 31.17 21.79 35.97 21.38z" fill="#5fcda4"/><path d="m198.4 67.96c8.31 16.31-4.41 28.2-5.02 28.76l-.02.02a120.031 120.031 0 0 0 -30.98 21.82c-2.09-3.75-4.68-8.14-7.76-12.8.72-12.49 13.68-23.56 23.05-24.8 12.9-1.71 20.73-13 20.73-13z" fill="#4ca987"/><path d="m168.68 130.98-8.02 2.05a9.61 9.61 0 0 1 -10.46-4.12c-.03-.05-.07-.11-.1-.16-2.07-3.37-4.98-7.9-8.6-12.88-9.65-13.29-24.29-29.83-41.03-36.48a6.75 6.75 0 0 1 -4.29-5.93l-.33-6.59a6.742 6.742 0 0 1 9.31-6.55c21.71 8.82 38.58 28.92 49.46 45.44 3.08 4.66 5.67 9.05 7.76 12.8 4.14 7.42 6.3 12.42 6.3 12.42z" fill="#6f624b"/><path d="m129 153.38c8.04-19.72 21.2-24.47 21.2-24.47a9.571 9.571 0 0 0 6.72 4.32c4.92 5.64 5.64 15.07 4.89 23.64a83.251 83.251 0 0 1 -2.91 15.49c-15.45 52.09-56.71 43.28-56.71 43.28 4.38-1.22 8.49-6.38 11.88-12.23a78.127 78.127 0 0 0 9.76-29.49 81.335 81.335 0 0 1 5.17-20.54z" fill="#4ca987"/><path d="m100.94 129.11v-.01s-19.43-2.25-23.12-20.63a19.288 19.288 0 0 0 20.54.08c8.13-4.82 29.59-2.68 43.14 7.32 3.62 4.98 6.53 9.51 8.6 12.88.03.05.07.11.1.16 0 0-13.16 4.75-21.2 24.47-34.12 54.85-70.48 59.88-92.16 54.6-10.56-2.57-17.64-7.58-19.28-10.47a4.313 4.313 0 0 1 3.88-6.42c8 .24 22.94-2.61 31.28-25.56 9.5-26.14 30.68-34.39 48.22-36.42z" fill="#57bf80"/><path d="m278.5 306.59c.75-20.06 4.84-38.85 13.3-53.94 8.932-15.945 18.652-24.822 28.45-28.943a48.624 48.624 0 0 0 -11.82-2.727c-15.6-1.47-32.15 5.82-46.63 31.67-8.46 15.09-12.55 33.88-13.3 53.94a205.648 205.648 0 0 0 .95 27.95c3.71 37.06 16.62 74.6 32.82 98.63a98.454 98.454 0 0 0 8.35 10.85 24.369 24.369 0 0 0 3.06 2.87c-1.208-11.5 2.356-22.7 6.984-34.412-10.555-22.378-18.446-50.288-21.214-77.938a205.648 205.648 0 0 1 -.95-27.95z" fill="#c13846"/><path d="m206.885 161.286a5.973 5.973 0 0 1 -3.91-1.452 104.93 104.93 0 0 0 -8.74-6.424c-8.835-5.933-20-3.8-20.1-3.777a6 6 0 1 1 -2.473-11.742c.652-.138 16.129-3.264 29.266 5.556a112.782 112.782 0 0 1 9.877 7.291 6 6 0 0 1 -3.916 10.548z" fill="#4fa884"/><path d="m65.968 183a6 6 0 0 1 -5.308-8.782c.64-1.218 15.947-29.874 44.782-38.118a6 6 0 1 1 3.3 11.537c-23.818 6.812-37.326 31.909-37.46 32.162a6.006 6.006 0 0 1 -5.314 3.201z" fill="#479362"/><path d="m138.885 187.01a6 6 0 0 1 -4.6-9.846c5.681-6.8 6.339-19.968 6.114-24.467a6 6 0 1 1 11.985-.6c.043.851.933 21-8.889 32.759a5.989 5.989 0 0 1 -4.61 2.154z" fill="#4fa884"/><path d="m250.23 120.432a5.968 5.968 0 0 1 -2.432-.518c-.262-.116-26.444-11.465-49.374-2.079a6 6 0 0 1 -4.546-11.106c27.749-11.361 57.545 1.663 58.8 2.222a6 6 0 0 1 -2.448 11.481z" fill="#479362"/><path d="m318.4 279.263a77.484 77.484 0 0 1 -36.319-9.027 6 6 0 0 1 6.044-10.367c.339.195 26.128 14.7 54.509 2.337a6 6 0 1 1 4.791 11 72.174 72.174 0 0 1 -29.025 6.057z" fill="#9e3241"/><path d="m287.785 330.584a39.551 39.551 0 0 1 -10.176-1.135 6 6 0 0 1 3.279-11.543c.707.19 15.333 3.893 34.467-7.607a6 6 0 0 1 6.181 10.285c-13.622 8.188-25.715 10-33.751 10z" fill="#9e3241"/><path d="m289.322 375.056c-1.094 0-1.761-.059-1.9-.073a6 6 0 0 1 1.14-11.946c.675.053 14.154.928 26.334-12.518a6 6 0 0 1 8.894 8.055c-13.645 15.066-29.133 16.482-34.468 16.482z" fill="#9e3241"/><path d="m439.99 338.833a6.012 6.012 0 0 1 -1.349-.154c-1.454-.335-35.743-8.585-48.953-43.54a6 6 0 1 1 11.224-4.242c10.964 29.008 40.124 36.019 40.417 36.086a6 6 0 0 1 -1.339 11.85z" fill="#9e3241"/><path d="m401.977 383.908a5.974 5.974 0 0 1 -3.061-.844c-.772-.46-19-11.566-25.352-38.646a6 6 0 0 1 11.682-2.742c5.205 22.17 19.659 30.988 19.8 31.075a6 6 0 0 1 -3.073 11.157z" fill="#9e3241"/><path d="m363.328 409.27a5.946 5.946 0 0 1 -4.014-1.554c-.631-.574-15.434-14.325-13.886-38.617a6 6 0 0 1 11.975.763c-1.168 18.341 9.554 28.573 10.011 29a6.008 6.008 0 0 1 -4.086 10.408z" fill="#9e3241"/><path d="m380.42 255.8a2.755 2.755 0 0 1 1.3 1.88 11.559 11.559 0 0 0 6.63 8.77 19.213 19.213 0 0 0 7.68 1.61v.01a97.563 97.563 0 0 1 2.28 24.96c-.42 14.41-3.87 33-15.91 50.02a87.172 87.172 0 0 1 -20.94 20.78 74.325 74.325 0 0 0 -7.04 5.65v.01c-28.14 25.4-29.09 63.95-51.87 81.87a24.367 24.367 0 0 1 -8.87-4.47c-2.99-28.46 23.26-55.13 22.53-92.2a76.968 76.968 0 0 0 -.9-10.3c-9.45-60.86 45.79-91.48 45.79-91.48 3.61 3.53 7.08 4.7 10.1 4.7a13.378 13.378 0 0 0 6.59-1.85 2.555 2.555 0 0 1 2.63.04z" fill="#e2798d"/><path d="m358.735 306.349a6 6 0 0 0 7.88-3.149l17.292-40.319a12.544 12.544 0 0 1 -2.187-5.2 2.755 2.755 0 0 0 -1.3-1.88 2.555 2.555 0 0 0 -2.63-.04 14.1 14.1 0 0 1 -4.606 1.679l-17.6 41.03a6 6 0 0 0 3.151 7.879z" fill="#b76276"/></svg>