<svg id="Layer_1" enable-background="new 0 0 512 512" height="512" viewBox="0 0 512 512" width="512" xmlns="http://www.w3.org/2000/svg"><path id="XMLID_4_" d="m209 65c-101.9 0-184.6 96.3-184.6 215s82.6 215 184.5 215c22.3 0 45.8-5.5 65.6-14l116.1-160.4c2.1-13 2.8-26.9 2.8-40.6.1-118.7-82.5-215-184.4-215z" fill="#8da953"/><path d="m393.5 280c.1 13.6-.8 27.1-2.8 40.6l-45.3 10.1c.3-3.1-1.2-6.5-.8-9.4.5-3.2 1.1-6.4 1.5-9.6.4-3.3 3.6-6.2 3.9-9.4.3-3.3-1.1-6.7-1-9.9.2-3.3 2-6.5 2-9.8s-3.2-6.5-3.3-9.8 2.5-6.6 2.3-9.9-2.2-6.4-2.5-9.6c-.3-3.3-.8-6.5-1.2-9.7s1.6-6.9 1-10.1c-.5-3.2-5.4-5.6-6-8.8-.7-3.2-1.2-6.4-2-9.5-.8-3.2-1.4-6.3-2.3-9.4-.9-3.2 2.3-7.5 1.3-10.6s-5.5-5.1-6.6-8.1c-1.1-3.1.5-7.2-.6-10.2-1.2-3.1-5.6-4.8-6.9-7.7-1.3-3 .1-7.2-1.3-10.1-1.4-3-2.6-6.1-4-8.9-1.5-3-3.5-5.6-5-8.5-1.6-2.9-5.1-4.7-6.7-7.4-1.6-2.9-2.5-6.1-4.1-8.8-1.7-2.9-3-5.9-4.6-8.6-1.8-2.8-2.8-6.1-4.5-8.7-1.9-2.8-5-4.6-6.8-7.2-2-2.8-1.2-7.4-3-9.9-2.1-2.8-7.3-2.9-9.2-5.3-1.8-2.3-2-5.6-3-7.9 70.9 30 121.5 109.2 121.5 202.1z" fill="#436f1e"/><path d="m232.8 21.5c1.3.3 2.2 1.5 2 2.8l-8.1 41.7c-3.2-.4-6.4-.6-9.7-.8-2.6-.1-5.3-.2-8-.2 0 0 2.1-15.9 2.2-45.6.1-1.5 1.4-2.6 2.9-2.5.2 0 .4 0 .6.1z" fill="#5f7535"/><path d="m152.9 76.3-.4-1c16.9-6.3 34.7-9.8 52.8-10.2v1.4c-3.3 3.6-6-.4-9.8 4.5-1.7 2.2 1.8 8.8-.4 11.9-1.7 2.4-8.2 1.8-10.2 4.8-1.7 2.5-1.4 6.7-3.2 9.6-1.6 2.6-4.7 4.6-6.5 7.5-1.6 2.7-4 5.1-5.7 8-1.5 2.8-4.4 5-6 7.9-1.5 2.8.5 7.5-1 10.5-1.4 2.9-1.9 6.2-3.3 9.2-1.3 2.9-2.9 5.7-4.2 8.8-1.3 2.9-7 4.1-8.2 7.2-1.2 3 3.1 8.1 1.9 11.2-1.1 3-6.8 4.4-7.9 7.6-1 3 3.9 8.1 2.9 11.2s-8.7 4.1-9.6 7.3c-.9 3.1-2 6.2-2.9 9.4-.8 3.1-1.9 6.3-2.6 9.5-.7 3.1 5.6 7.9 4.9 11.1-.6 3.2-5.4 5.5-6 8.8-.6 3.2-.9 6.4-1.4 9.7-.5 3.2 2.1 6.8 1.6 10.1-.4 3.2-5.2 5.9-5.5 9.2-.3 3.2 4.8 6.9 4.6 10.2-.2 3.2-3.2 6.2-3.4 9.5-.2 3.2 2.5 6.5 2.4 9.8-.1 3.2-5 6.4-5 9.7 0 3.2-.1 6.5 0 9.8.1 3.2 4.3 6.3 4.5 9.6.2 3.2.1 6.4.3 9.7.2 3.2.7 6.4 1 9.7.3 3.2-1.5 6.7-1.1 9.9s3.3 6.1 3.8 9.3-5.8 7.5-5.2 10.7 3.1 6.1 3.7 9.3 6 5.4 6.7 8.6-.2 6.7.6 9.9c.8 3.1-2.8 7.4-2 10.6.8 3.1 5 5.4 5.9 8.5s2.3 6.1 3.3 9.2-.6 7 .5 10.1c1 3.1 6.1 4.8 7.2 7.9 1.1 3 1.4 6.4 2.6 9.4 1.1 3 1.5 6.4 2.7 9.4s.1 7 1.3 10c1.3 3 2.1 6.2 3.4 9.2 1.1 2.5 2.9 4.7 4.3 7.1-23.5-6.9-45.4-18.7-64-34.7l.6-.8c-1.6-2.9-2.5-6.1-4-9-1.5-3-6.4-4.2-7.8-7.1-1.4-3-.7-7-2-10-1.4-3-3.1-5.9-4.3-8.9-1.3-3.1-5.4-5-6.6-8.1s1.5-7.6.4-10.7-.7-6.7-1.7-9.8c-1-3.2-6.1-5.1-7-8.2-.9-3.2-3.5-6-4.3-9.2s4.4-7.8 3.7-11-3.5-6-4.1-9.2c-.6-3.3.9-6.8.4-10-.5-3.3-1-6.5-1.4-9.7-.4-3.3-.4-6.5-.6-9.8s-4.1-6.4-4.2-9.6c-.1-3.3-.1-6.7-.1-9.9 0-3.3 4.4-6.5 4.5-9.8s-2.2-6.7-2-9.9c.2-3.3 3-6.3 3.3-9.6s-4.2-7.1-3.7-10.4 4.9-5.9 5.4-9.2c.6-3.3-1.5-7-.8-10.2s1.2-6.5 2-9.7 5.2-5.4 6.1-8.6-4.4-8.2-3.4-11.3c1-3.2 2.3-6.3 3.3-9.4 1.1-3.1 2.5-6.2 3.6-9.3 1.2-3.1 8.3-3.8 9.6-6.8 1.3-3.1-2.6-8.3-1.2-11.3s6.8-4.2 8.2-7.1c1.4-3-1.7-8.3-.2-11.2 1.6-3 7-3.8 8.5-6.6 1.6-2.9 3.5-5.6 5.1-8.4 1.7-2.9 2.7-6.1 4.4-8.9 1.8-2.9.7-7.5 2.5-10.2 1.9-2.8 4.9-4.8 6.7-7.4 2-2.8 4.6-5 6.5-7.5 2.1-2.8 5.2-4.5 7.2-6.9 2.2-2.7 2.5-6.7 4.5-9.1 2.3-2.7 8.3-1.9 10.2-4.1 2.5-2.8.3-9.4 2.2-11.4 1-1.1 2-1.8 3.1-2.3z" fill="#436f1e"/><path d="m283.5 315.1c.1-3.3 3.4-6.5 3.5-9.8s-1.7-6.7-1.7-10 1.8-6.7 1.8-9.9c-.1-3.3-3.7-6.5-3.9-9.8-.1-3.3 2.6-6.8 2.4-10-.2-3.3-2.4-6.5-2.6-9.8s-.6-6.6-1-9.9c-.3-3.3 2.1-6.9 1.7-10.1-.4-3.3-5.5-6-5.9-9.3s-.7-6.6-1.2-9.8c-.5-3.3-.8-6.6-1.4-9.8-.6-3.3 3.5-7.4 2.8-10.6-.6-3.3-5.3-5.7-6-8.9-.7-3.3 1.8-7.2 1-10.4-.8-3.3-5.2-5.6-6-8.7-.8-3.3 1.4-7.3.6-10.4-.9-3.2-1.6-6.5-2.5-9.6-1-3.2-2.5-6.2-3.5-9.3-1-3.2-4.4-5.6-5.5-8.6-1.1-3.2-1.3-6.6-2.4-9.6-1.2-3.2-1.8-6.5-2.9-9.5-1.2-3.2-1.5-6.7-2.7-9.6-1.3-3.2-4.2-5.6-5.4-8.4-1.5-3.3.5-7.9-.8-10.6-1.6-3.4-7.1-4.4-8.4-6.9-2.7-5.3 0-5.9-1.6-9.3-1.8-.3-3.6-.5-5.4-.7-3.2-.4-6.4-.6-9.7-.8-.2 4.9-3.4 3.3-3.7 9.7-.1 2.7 4.5 6.2 4.4 10-.1 3-4.2 6.1-4.3 9.7-.1 3.1 1.6 6.4 1.4 9.9-.1 3.1-1.4 6.4-1.5 9.8-.1 3.2-.9 6.4-1 9.9-.1 3.2-1.2 6.4-1.3 9.8-.1 3.2 2.5 6.6 2.4 9.9-.1 3.2.5 6.5.4 9.9-.1 3.2-.4 6.5-.5 9.9-.1 3.2-3.6 6.4-3.7 9.8-.1 3.2 3.9 6.6 3.8 10-.1 3.2-3.6 6.4-3.7 9.8-.1 3.2 4.2 6.6 4.1 10-.1 3.2-5.1 6.4-5.2 9.8-.1 3.2-.4 6.5-.4 9.9-.1 3.2-.3 6.5-.4 9.9-.1 3.3 4.9 6.7 4.8 10s-3.1 6.5-3.2 9.8 0 6.6-.1 9.9 2 6.6 1.9 9.9-3.2 6.5-3.3 9.8 3.7 6.6 3.6 10c-.1 3.3-2.1 6.5-2.1 9.8-.1 3.3 1.8 6.6 1.8 9.9-.1 3.3-3.5 6.5-3.6 9.8s-.2 6.6-.3 9.9 2.8 6.6 2.7 9.9-.3 6.6-.4 9.9c-.1 3.1 0 6.3 0 9.5l-2.6 90.6c0 2.8-.5 6.5-.5 10.7 0 3.4.7 7.1.7 10.9s-.6 7.4-.6 10.9c0 4.2.3 8 .3 10.8h2c22.3 0 45.8-5.5 65.6-14l9.4-136.5c.3-3.2.8-6.3 1-9.4.2-3.3-2.2-6.8-2-10.1.4-3 .7-6.3.8-9.6z" fill="#436f1e"/><path d="m481.5 300.3-16.6 3.7c2.9 77.3-55.6 145.6-136.1 155.7-70.1 8.8-135-29.2-161.3-89.2l-15.6 3.5c-2.7.6-4.4 3.2-3.8 5.9.1.3.2.7.3 1 32.3 70.6 106.6 112 183.6 102.2 90.4-11.4 156.4-88.9 155.6-178 0-2.7-2.3-4.9-5-4.9-.4 0-.8 0-1.1.1z" fill="#637632"/><path d="m464.9 304-297.5 66.6c26.3 59.9 91.2 98 161.3 89.2 80.5-10.2 139.1-78.5 136.2-155.8z" fill="#e56378"/><g fill="#5c5c66"><path d="m406.3 346.1c6.4-3 25.3-10.8 25.2.9-.1 18.4-19.4 5.9-25.4 1.4-.6-.5-.8-1.3-.3-1.9.1-.1.3-.3.5-.4z"/><path d="m382.5 367.6c6.8 1.8 26.3 8 18.7 16.9-11.9 14.1-18.6-7.9-20.4-15.2-.2-.7.3-1.5 1-1.7z"/><path d="m350.8 386.4c6.6 3.6 26.1 15.7 9.5 23.7-10.5 5.1-11.5-15.4-11.6-22.4 0-.8.6-1.4 1.4-1.4.3-.1.5-.1.7.1z"/><path d="m316.6 392.6c4.1 6.3 15.7 26.1-2.7 25.4-11.7-.5-3-19 .3-25.3.4-.7 1.2-.9 1.9-.6.2.1.4.3.5.5z"/><path d="m277.2 392.6c2.5 7.1 8.9 29.2-8.8 24-11.2-3.3 1.8-19.2 6.5-24.4.5-.6 1.4-.6 2-.1.1 0 .2.2.3.5z"/><path d="m244.9 382.6c.8-.1 1.5.4 1.6 1.2 0 .2 0 .5-.1.7-2.7 7-12 28-22.1 12.7-6.5-9.8 13.6-13.6 20.6-14.6z"/></g><path d="m125.7 110.3c.1-.1.2-.2.2-.3 2-2.8 5.2-4.5 7.2-6.9 2.2-2.7 2.5-6.7 4.5-9.1 2.3-2.7 8.3-1.9 10.2-4.1 2.5-2.8.3-9.4 2.2-11.4.8-.9 1.8-1.6 2.9-2.1l-.4-1c-74.3 27.7-128.1 108.8-128.1 204.6 0 71.5 30 134.9 76.1 174l.6-.8c-1.6-2.9-2.5-6.1-4-9-1.5-3-6.4-4.2-7.8-7.1-1.4-3-.7-7-2-10-1.4-3-3.1-5.9-4.3-8.9-1.3-3.1-5.4-5-6.6-8.1s1.5-7.6.4-10.7-.7-6.7-1.7-9.8c-1-3.2-6.1-5.1-7-8.2-.9-3.2-3.5-6-4.3-9.2s4.4-7.8 3.7-11-3.5-6-4.1-9.2c-.2-1.6-.2-3.2.1-4.8-6.1-21.9-9.2-44.5-9.2-67.2.1-69 28-130.4 71.4-169.7z" fill="#b2cc72"/></svg>