<svg id="Layer_1" height="512" viewBox="0 0 512 512" width="512" xmlns="http://www.w3.org/2000/svg" data-name="Layer 1"><path d="m414.62 275.7h-.01a55.348 55.348 0 0 0 -18.79-15.38c.87-.96 49.16-53.64 95.33-6.2a13.366 13.366 0 0 1 2.67 14.84c-14.84 32.36-67.53 40.63-67.53 40.63a54.829 54.829 0 0 0 -11.67-33.89z" fill="#4ca987"/><path d="m359.35 144.47a55.1 55.1 0 0 1 5.65 109.93c-1.86.18-3.74.28-5.65.28a55.179 55.179 0 0 1 -55.17-52.27c-.05-.94-.07-1.89-.07-2.84a55.17 55.17 0 0 1 55.24-55.1z" fill="#e07386"/><path d="m342.77 262.24a55.023 55.023 0 0 0 -8.15 88.77c-5.88 3.43-13.81 5.47-21.57 6.33a78.9 78.9 0 0 1 -8.94.52 55.188 55.188 0 0 1 -55.18-52.27c-.05-.94-.07-1.89-.07-2.84a55.179 55.179 0 0 1 55.25-55.1c14.22 0 28.87 5.78 38.66 14.59z" fill="#ed6375"/><path d="m313.05 357.34v.01a55.285 55.285 0 0 1 -108.56 3.29 55.147 55.147 0 0 0 42.55-53.63c0-.46-.01-.92-.02-1.37l1.91-.05a55.188 55.188 0 0 0 55.18 52.27 78.9 78.9 0 0 0 8.94-.52z" fill="#e0637e"/><path d="m302.21 202.39c.05.94.07 1.89.07 2.84a55.264 55.264 0 0 1 -108.18 15.77 54.389 54.389 0 0 1 -2.31-15.77 55.25 55.25 0 0 1 110.42-2.84z" fill="#d3596e"/><path d="m247.02 305.64c.01.45.02.91.02 1.37a55.276 55.276 0 0 1 -100.88 31.06 55.144 55.144 0 0 0 7.3-46.85 55.256 55.256 0 0 0 40.56-40.09h.01c28.62 1.58 52.26 25.71 52.99 54.51z" fill="#e07386"/><path d="m108.94 192.39a55.2 55.2 0 0 0 -8.4 7.16c-.02-.8-.4-23.26 4.9-45.73 7.73-32.75 27.54-65.5 78.19-31.08 5.8 3.94-11.38 13.94-29.75 25.2-24.06 14.76-37.44 40.07-37.44 40.07a55.444 55.444 0 0 0 -7.5 4.38z" fill="#4ca987"/><path d="m100.54 199.55a54.972 54.972 0 0 0 -8.41 11.37c-64.02-20.72-75.13-60.8-75.13-60.8 43.79-31.66 87.59 3.02 88.44 3.7-5.3 22.47-4.92 44.93-4.9 45.73z" fill="#5fcda4"/><path d="m357.49 213.31c8.12 2.6 13.18 9.43 11.31 15.26s-9.98 8.44-18.11 5.84-13.18-9.43-11.3-15.26 9.98-8.45 18.1-5.84z" fill="#c1465a"/><path d="m288.08 307.24c1.43 8.39-2.32 16.02-8.37 17.05s-12.11-4.95-13.54-13.33 2.31-16.02 8.36-17.05 12.12 4.94 13.55 13.33z" fill="#a33e4a"/><path d="m261.53 172.28c8.12 2.6 13.18 9.44 11.3 15.26s-9.98 8.45-18.1 5.85-13.18-9.44-11.31-15.27 9.98-8.44 18.11-5.84z" fill="#9b4255"/><path d="m192.98 320.42c8.12 2.6 13.18 9.44 11.31 15.27s-9.98 8.44-18.11 5.84-13.18-9.44-11.3-15.26 9.98-8.45 18.1-5.85z" fill="#c1465a"/><path d="m153.46 291.22a55.369 55.369 0 1 1 -52.95-39.32 54.864 54.864 0 0 1 52.95 39.32z" fill="#d3596e"/><path d="m75.27 307.01a55.14 55.14 0 0 1 40.235-53.045 55.112 55.112 0 1 0 -.01 106.068 55.133 55.133 0 0 1 -40.225-53.023z" fill="#b25267"/><path d="m86.48 311.66c3.7 7.67 2.2 16.03-3.33 18.68s-13.01-1.42-16.7-9.09-2.2-16.03 3.33-18.68 13.01 1.42 16.7 9.09z" fill="#9b4255"/><g fill="#448e70"><path d="m108.944 198.394h-.133a6 6 0 0 1 -5.868-6.129c.887-41.04 39.33-68.652 40.966-69.807a6 6 0 0 1 6.925 9.8c-.522.372-35.141 25.431-35.894 60.265a6 6 0 0 1 -5.996 5.871z"/><path d="m414.606 281.7a6 6 0 0 1 -3.575-10.82c.926-.684 22.92-16.709 43.976-11.825a6 6 0 1 1 -2.712 11.689c-15.628-3.622-33.955 9.657-34.139 9.792a5.987 5.987 0 0 1 -3.55 1.164z"/><path d="m105.649 197.427-4.118-9.355a57.909 57.909 0 0 0 -39.67-33.258c-1.706-.4-3.309-.688-4.77-.884a6 6 0 0 0 -1.61 11.89c1.4.195 34.256 5.1 39.138 34.729a6 6 0 0 0 5.914 5.023c.184 0 .371-.007.558-.025s.389-.046.579-.082a5.773 5.773 0 0 0 3.979-8.038z"/></g><path d="m395.82 260.32a55.348 55.348 0 0 1 18.79 15.38h.01a55.186 55.186 0 0 1 -79.99 75.31s-.01.01-.01 0a55.106 55.106 0 0 1 30.43-96.21 56.563 56.563 0 0 1 6-.32 55.07 55.07 0 0 1 24.77 5.84z" fill="#d3596e"/><path d="m410.32 307.24c1.43 8.39-2.32 16.02-8.37 17.05s-12.11-4.95-13.54-13.33 2.31-16.02 8.36-17.05 12.12 4.94 13.55 13.33z" fill="#9b4255"/><path d="m100.54 199.55a55.182 55.182 0 1 1 52.92 91.67 55.369 55.369 0 0 0 -65.96-37.78 55.211 55.211 0 0 1 -2.3-15.79 54.928 54.928 0 0 1 15.34-38.1z" fill="#ed6375"/><path d="m151.76 200.37c8.12 2.6 13.18 9.44 11.31 15.26s-9.98 8.45-18.1 5.85-13.19-9.44-11.31-15.27 9.98-8.44 18.1-5.84z" fill="#a33e4a"/><path d="m122.13 210.92a55.085 55.085 0 0 1 33.322-26.3 55.321 55.321 0 0 0 -63.322 26.3 54.662 54.662 0 0 0 -6.93 26.73 55.211 55.211 0 0 0 2.3 15.79 55.587 55.587 0 0 1 30.255 1.208c-1.271-5.551-2.555-12.9-2.555-17a54.662 54.662 0 0 1 6.93-26.728z" fill="#c6596c"/></svg>