<svg id="Layer_1" height="512" viewBox="0 0 512 512" width="512" xmlns="http://www.w3.org/2000/svg" data-name="Layer 1"><path d="m487.23 250.71s16.91 32.53.84 53.68c0 0 4.33 23.44-10.29 33.76a3.772 3.772 0 0 0 -1.58 2.69c-.61 6.13-3.5 26.43-15.37 30.78a3.777 3.777 0 0 0 -2.33 2.6c-1.3 5.13-6.1 18.24-21.54 21.37a3.818 3.818 0 0 0 -2.9 2.57c-1.48 4.69-6.2 15.35-18.62 16.23a3.819 3.819 0 0 0 -2.69 1.38c-3.82 4.65-18.28 19.51-41.58 11.76a9.242 9.242 0 0 0 -6.14.15c-19.83 7.4-33.27-7.26-36.89-11.89a3.84 3.84 0 0 0 -2.68-1.42c-10.35-1.03-14.35-11.38-15.64-16.09a3.854 3.854 0 0 0 -2.74-2.74 22.512 22.512 0 0 1 -13.88-10.42 35.209 35.209 0 0 1 -4.71-12.96c-8.81-2.12-12.47-15.53-13.95-24.61a82.577 82.577 0 0 1 -.96-8.46 22.63 22.63 0 0 1 -8.08-11.11l-.01-.01c-3.95-10.83-1.94-23.58-1.94-23.58-13.76-21.15.71-53.68.71-53.68-4.65-17.89 14.91-31.44 14.91-31.44 3.02-3.16 5.5-6.24 7.88-8.96 5.32-6.11 10.12-10.46 19.23-9.98.83.04 1.7.13 2.6.25a6.125 6.125 0 0 0 6.9-5.01c.41-2.47 1.94-4.95 5.96-6.21q2.625-.825 5.13-1.39a52.892 52.892 0 0 1 27.88.83 51.648 51.648 0 0 1 23.8 15.54c-21.08 3.11-15.75 28.75-15.75 28.75s-3.26 29.28 7.62 51.51c7.07 14.44 1.55 38.25-3.19 53.17a138.086 138.086 0 0 0 -6.18 32.65c-.39 5.77-.7 10.83-.71 11.69a17.28 17.28 0 0 0 34.56.16c0-2.11-.04-9.75-.08-16.91a167.472 167.472 0 0 0 -1.98-24.5c-2.24-14.52-4.77-40.78 2.81-56.26 10.88-22.23 7.62-51.51 7.62-51.51s7.33-25.04-2.91-28.75c0 0 46.61-37.12 69.46 14.93 0 0 22.85 13.55 17.41 31.44z" fill="#cec899"/><path d="m400.36 204.34c10.24 3.71 2.91 28.75 2.91 28.75s3.26 29.28-7.62 51.51c-7.58 15.48-5.05 41.74-2.81 56.26a167.472 167.472 0 0 1 1.98 24.5c.04 7.16.08 14.8.08 16.91a17.28 17.28 0 0 1 -34.56-.16c.01-.86.32-5.92.71-11.69a138.086 138.086 0 0 1 6.18-32.65c4.74-14.92 10.26-38.73 3.19-53.17-10.88-22.23-7.62-51.51-7.62-51.51s-5.33-25.64 15.75-28.75h.01s-7.99-30.23-2.14-43.23a4.394 4.394 0 0 1 5.34-2.32c3.95 1.23 10.61 3.44 14.46 5.51a4.447 4.447 0 0 1 2.23 4.96c-1.77 7.36-5.85 27.97 1.91 35.08z" fill="#aac98d"/><path d="m354.75 188.79v.01a52.892 52.892 0 0 0 -27.88-.83c.89-26.11-25.91-36.35-25.91-36.35a47.016 47.016 0 0 1 17.3-2.62h.01a51.994 51.994 0 0 0 5.14 3.47c9.77 5.8 26.5 19.56 31.34 36.32z" fill="#a5c677"/><path d="m287.63 171.01a53.773 53.773 0 0 1 -.45-7.4 27.154 27.154 0 0 0 2.64-6.33h.01a44.009 44.009 0 0 1 11.13-5.66s26.8 10.24 25.91 36.35q-2.5.57-5.13 1.39c-4.02 1.26-5.55 3.74-5.96 6.21a6.125 6.125 0 0 1 -6.9 5.01c-.9-.12-1.77-.21-2.6-.25-13.52-5.11-17.49-20.15-18.65-29.32z" fill="#88af54"/><path d="m318.26 149a47.016 47.016 0 0 0 -17.3 2.62 44.009 44.009 0 0 0 -11.13 5.66c6.36-23.9-33.89-33.68-34.77-33.89 12.01-1.39 24.74-.63 36.34 4.52a53.564 53.564 0 0 1 17.84 12.85 67.017 67.017 0 0 0 9.02 8.24z" fill="#8eaa61"/><path d="m306.28 200.33c-9.11-.48-13.91 3.87-19.23 9.98-6.54-17.71-27.23-21.78-27.23-21.78 15.55-17.52 5.26-37.72 4.88-38.45a122.7 122.7 0 0 1 22.93 20.93c1.16 9.17 5.13 24.21 18.65 29.32z" fill="#7d9947"/><path d="m275.73 405.13a5.62 5.62 0 0 1 -2.6-.22c-6.83-2.21-22.7-9.01-28.02-25.58v-.01a42.8 42.8 0 0 0 2.54-19.02c8.84 3.19 26.89-12.75 26.89-12.75 1.48 9.08 5.14 22.49 13.95 24.61a35.209 35.209 0 0 0 4.71 12.96 69.378 69.378 0 0 1 -14.49 18.61 5.646 5.646 0 0 1 -2.98 1.4z" fill="#7d9947"/><path d="m264.7 150.08c-12.12-8.57-28.23-16.48-46.31-16.43a148.785 148.785 0 0 1 20.75-7.21 115.486 115.486 0 0 1 15.91-3.05h.01c.88.21 41.13 9.99 34.77 33.89h-.01a27.154 27.154 0 0 1 -2.64 6.33 53.773 53.773 0 0 0 .45 7.4 122.7 122.7 0 0 0 -22.93-20.93z" fill="#a5c677"/><path d="m287.05 210.31c-2.38 2.72-4.86 5.8-7.88 8.96 0 0-19.56 13.55-14.91 31.44-3.82-3.95-14.99-.94-14.99-.94 1.83-18.77-12.91-39.46-12.91-39.46 10.3-1.79 10.3-21.78 10.3-21.78h13.16s20.69 4.07 27.23 21.78z" fill="#88af54"/><path d="m273.13 404.91a5.62 5.62 0 0 0 2.6.22c-16.95 18.43-23.03 12.24-33.43 10.92-7.32-.92-11.51-9.05-7.64-15.31 2.86-4.63 1.7-8.41 1.7-8.41a33.825 33.825 0 0 0 8.75-13c5.32 16.57 21.19 23.37 28.02 25.58z" fill="#8daf58"/><path d="m273.58 339.09a82.577 82.577 0 0 0 .96 8.46s-18.05 15.94-26.89 12.75c-19.05-1.6-33.03-16.76-33.03-16.76l3.77-30.78c11.52.55 20.1-14.67 20.1-14.67 6.44 24.39 26.37 29.73 27 29.88l.01.01a22.63 22.63 0 0 0 8.08 11.11z" fill="#88af54"/><path d="m291.4 127.91c-11.6-5.15-24.33-5.91-36.34-4.52h-.01a115.486 115.486 0 0 0 -15.91 3.05 35.249 35.249 0 0 0 -16.34-10.21v-.01s39.15-22.38 68.6 11.69z" fill="#88af54"/><path d="m194.88 145.9a31.445 31.445 0 0 0 -4.42-.82c3.59-10.43 15.27-5.24 15.27-5.24s1.13-.66 3.17-1.72c2.19-1.13 5.45-2.73 9.49-4.47 18.08-.05 34.19 7.86 46.31 16.43.38.73 10.67 20.93-4.88 38.45h-13.16s-26.18-36.18-51.78-42.63z" fill="#88af54"/><path d="m263.55 304.39s-2.01 12.75 1.94 23.58c-.63-.15-20.56-5.49-27-29.88l-2.13-36.56 12.91-11.76s11.17-3.01 14.99.94c0 0-14.47 32.53-.71 53.68z" fill="#7d9947"/><path d="m236.36 210.31s14.74 20.69 12.91 39.46l-12.91 11.76s-17.97-5.88-24.35-24.28l-5.03-48.72c5.12 10.82 29.38 21.78 29.38 21.78z" fill="#8daf58"/><path d="m247.65 360.3a42.8 42.8 0 0 1 -2.54 19.02v.01a33.825 33.825 0 0 1 -8.75 13c-13.26 7.24-26.44 5.76-35.99 2.7a56.365 56.365 0 0 1 -14.37-6.86v-31.56c7.81 1.14 17.57-1.5 28.62-13.07 0 0 13.98 15.16 33.03 16.76z" fill="#a5c677"/><path d="m246.66 188.53s0 19.99-10.3 21.78c0 0-24.26-10.96-29.38-21.78-5.04-10.64-11.89-41.66-12.1-42.63 25.6 6.45 51.78 42.63 51.78 42.63z" fill="#a5c677"/><path d="m236.36 261.53 2.13 36.56s-8.58 15.22-20.1 14.67c0 0-4.14-1.95-10.28-5.27-8.26-4.48-11.49-19.14-13.24-32.49-1.38-10.42-1.86-20.03-3.14-23.4 0 0 18.76-6.84 20.28-14.35 6.38 18.4 24.35 24.28 24.35 24.28z" fill="#a5c677"/><path d="m236.36 392.33s1.16 3.78-1.7 8.41c-3.87 6.26.32 14.39 7.64 15.31 0 0-17.24 13.66-45.83-1.16 3.75-5.09 4.8-12.77 3.9-19.86 9.55 3.06 22.73 4.54 35.99-2.7z" fill="#88af54"/><path d="m222.8 116.23a35.249 35.249 0 0 1 16.34 10.21 148.785 148.785 0 0 0 -20.75 7.21c-4.04 1.74-7.3 3.34-9.49 4.47-5.56-3.24-5.78-13.04-4.65-22.47a37.5 37.5 0 0 1 18.55.58z" fill="#8eaa61"/><path d="m218.39 312.76-3.77 30.78c-11.05 11.57-20.81 14.21-28.62 13.07-12.42-1.78-19.93-13.07-19.93-13.07l-3.77-30.78a33.791 33.791 0 0 0 10.28-5.27c10.65-7.72 21.47-19.48 22.28-32.49h.01c1.75 13.35 4.98 28.01 13.24 32.49 6.14 3.32 10.28 5.27 10.28 5.27z" fill="#7d9947"/><path d="m206.98 188.53 5.03 48.72c-1.52 7.51-20.28 14.35-20.28 14.35-12.95.38-23.05-14.35-23.05-14.35l5.03-48.72s9.36 23.66 33.27 0z" fill="#7d9947"/><path d="m204.84 91.98a8.125 8.125 0 0 1 2.27 7.35c-.76 3.91-2.11 10.03-2.86 16.32-1.13 9.43-.91 19.23 4.65 22.47-2.04 1.06-3.17 1.72-3.17 1.72s-11.68-5.19-15.27 5.24c-3.59-10.43-15.5-5.24-15.5-5.24s-1.23-11.98-1.25-25.15c-.01-9.82.65-20.29 3.01-26.95a8.245 8.245 0 0 1 9.05-5.37 34.349 34.349 0 0 1 19.07 9.61z" fill="#6f624b"/><path d="m200.37 395.03c.9 7.09-.15 14.77-3.9 19.86a26.059 26.059 0 0 1 -30.79 8.92 117.588 117.588 0 0 1 -21.35-11.09 10.962 10.962 0 0 0 1.34-12.6 10.707 10.707 0 0 1 -1.34-7.79s26.89 13.16 41.67-4.16a56.365 56.365 0 0 0 14.37 6.86z" fill="#7d9947"/><path d="m194.88 145.9c.21.97 7.06 31.99 12.1 42.63-23.91 23.66-33.27 0-33.27 0 5.04-10.64 11.93-41.61 12.14-42.58.01 0 0-.01 0-.01a32.727 32.727 0 0 1 4.61-.86 31.445 31.445 0 0 1 4.42.82z" fill="#88af54"/><path d="m194.87 275h-.01c-.81 13.01-11.63 24.77-22.28 32.49a33.791 33.791 0 0 1 -10.28 5.27c-11.52.55-20.1-14.67-20.1-14.67l2.13-36.56s17.97-5.88 24.35-24.28c0 0 10.1 14.73 23.05 14.35 1.28 3.37 1.76 12.98 3.14 23.4z" fill="#88af54"/><path d="m185.85 145.94s.01.01 0 .01c-25.56 6.58-51.83 42.58-51.83 42.58h-13.15c-15.84-17.84-3.83-39.58-3.83-39.58 11.76-8.02 27.41-15.35 45.26-15.3a125.271 125.271 0 0 1 12.66 6.19s11.91-5.19 15.5 5.24a32.727 32.727 0 0 0 -4.61.86z" fill="#7d9947"/><path d="m186 356.62v31.55c-14.78 17.32-41.67 4.16-41.67 4.16a33.813 33.813 0 0 1 -8.76-13.01 42.871 42.871 0 0 1 -2.53-19.02c19.05-1.6 33.03-16.76 33.03-16.76s7.51 11.29 19.93 13.07z" fill="#88af54"/><path d="m185.85 145.95c-.21.97-7.1 31.94-12.14 42.58-5.12 10.82-29.38 21.78-29.38 21.78-10.3-1.79-10.31-21.78-10.31-21.78s26.27-36 51.83-42.58z" fill="#a5c677"/><path d="m173.71 114.69c.02 13.17 1.25 25.15 1.25 25.15a125.271 125.271 0 0 0 -12.66-6.19 150.024 150.024 0 0 0 -17.46-6.31 42.527 42.527 0 0 1 14.18-10.52c8.53-3.73 14.69-2.13 14.69-2.13z" fill="#8daf58"/><path d="m173.71 188.53-5.03 48.72c-6.38 18.4-24.35 24.28-24.35 24.28l-12.92-11.76c-1.83-18.77 12.92-39.46 12.92-39.46s24.26-10.96 29.38-21.78z" fill="#8daf58"/><path d="m162.3 312.76 3.77 30.78s-13.98 15.16-33.03 16.76c-8.84 3.19-17.6-8.34-17.6-8.34s-7-12.85-4.69-32.29c0 0 24.9 3.2 31.45-21.58 0 0 8.58 15.22 20.1 14.67z" fill="#a5c677"/><path d="m144.84 127.34a150.024 150.024 0 0 1 17.46 6.31c-17.85-.05-33.5 7.28-45.26 15.3a113.919 113.919 0 0 0 -22.67 20.24 47.854 47.854 0 0 0 -.86-5.58 27.154 27.154 0 0 1 -2.64-6.33h-.01c-6.43-24.16 34.78-33.89 34.78-33.89a117.07 117.07 0 0 1 19.2 3.95z" fill="#a5c677"/><path d="m145.67 400.12a10.962 10.962 0 0 1 -1.34 12.6 10.3 10.3 0 0 1 -6.66 3.42c-10.72 1.18-19.94-3.66-23.4-13.89l-.02-.07a15.211 15.211 0 0 0 1.66-.73c7.17-3.72 15.93-10.46 19.66-22.13a33.813 33.813 0 0 0 8.76 13.01 10.707 10.707 0 0 0 1.34 7.79z" fill="#a5c677"/><path d="m159.02 116.82a42.527 42.527 0 0 0 -14.18 10.52 117.07 117.07 0 0 0 -19.2-3.95c-12.01-1.39-24.73-.63-36.34 4.51 29.45-34.06 69.72-11.08 69.72-11.08z" fill="#8eaa61"/><path d="m144.33 261.53-2.13 36.56c-6.55 24.78-31.45 21.58-31.45 21.58l-14.77-27.84c-2.25-14.45 4.94-26.79 5.37-27.53 5.8 3.35 15.11.85 30.06-14.53z" fill="#7d9947"/><path d="m101.35 264.3c-11.01-6.34-9.29-33.76-9.29-33.76a90.9 90.9 0 0 0 2.49-13.57c6.53-17.72 26.32-28.44 26.32-28.44h13.15s.01 19.99 10.31 21.78c0 0-14.75 20.69-12.92 39.46-14.95 15.38-24.26 17.88-30.06 14.53z" fill="#a5c677"/><path d="m133.04 360.3a42.871 42.871 0 0 0 2.53 19.02c-3.73 11.67-12.49 18.41-19.66 22.13a15.211 15.211 0 0 1 -1.66.73 14.324 14.324 0 0 1 -16.39-4.81 84.608 84.608 0 0 1 -9.6-16.11c-1.24-9.27 7.72-21.19 7.72-21.19a61.987 61.987 0 0 0 19.46-8.11s8.76 11.53 17.6 8.34z" fill="#7d9947"/><path d="m89.3 127.9c11.61-5.14 24.33-5.9 36.34-4.51 0 0-41.21 9.73-34.78 33.89a44.009 44.009 0 0 0 -11.13-5.66 47.712 47.712 0 0 0 -17.25-2.63 58.549 58.549 0 0 0 8.57-7.79 53.385 53.385 0 0 1 18.24-13.29z" fill="#87aa61"/><path d="m117.04 148.95s-12.01 21.74 3.83 39.58c0 0-19.79 10.72-26.32 28.44 1.04-9.72.67-22.17-6.41-28.44 6.66-3.1 6.86-12.99 6.23-19.34a113.919 113.919 0 0 1 22.67-20.24z" fill="#88af54"/><path d="m64.62 325.19c-1.73-11.73 6.86-22.77 6.86-22.77s20.02-10.59 24.5-10.59l14.77 27.84c-2.31 19.44 4.69 32.29 4.69 32.29a61.987 61.987 0 0 1 -19.46 8.11c-10.51 2.12-15.53-10.64-27.06-25.09a20.3 20.3 0 0 1 -4.3-9.79z" fill="#88af54"/><path d="m101.35 264.3c-.43.74-7.62 13.08-5.37 27.53-4.48 0-24.5 10.59-24.5 10.59-16.8-18.15-15.11-39.99-12.97-50.5a10.654 10.654 0 0 0 .22-2.17c9.49-22.39 33.33-19.21 33.33-19.21s-1.72 27.42 9.29 33.76z" fill="#8daf58"/><path d="m88.14 188.53c7.08 6.27 7.45 18.72 6.41 28.44a90.9 90.9 0 0 1 -2.49 13.57s-23.84-3.18-33.33 19.21a9.482 9.482 0 0 0 -2.28-6.23 7.6 7.6 0 0 1 -.93-1.34h-.01c-5.66-10.12 4.66-37.69 4.66-37.69s12.45-16.76 19.56-15.37c3.57.7 6.31.4 8.41-.59z" fill="#88af54"/><path d="m94.37 169.19c.63 6.35.43 16.24-6.23 19.34-2.1.99-4.84 1.29-8.41.59-7.11-1.39-19.56 15.37-19.56 15.37a9.98 9.98 0 0 0 -7.37-6.64c-6.63-27.79 26.93-46.23 26.93-46.23a44.009 44.009 0 0 1 11.13 5.66h.01a27.154 27.154 0 0 0 2.64 6.33 47.854 47.854 0 0 1 .86 5.58z" fill="#7d9947"/><path d="m68.92 334.98c11.53 14.45 16.55 27.21 27.06 25.09 0 0-8.96 11.92-7.72 21.19-37.28-3.94-40.09-43.73-40.09-43.73s3.25-14.87 16.45-12.34a20.3 20.3 0 0 0 4.3 9.79z" fill="#a5c677"/><path d="m62.48 148.99a47.712 47.712 0 0 1 17.25 2.63s-33.56 18.44-26.93 46.23c-10.29-2.33-25.99 8.49-25.99 8.49-6.38-27.73 17.21-46 30.46-53.86a56.984 56.984 0 0 0 5.21-3.49z" fill="#8daf58"/><path d="m58.73 249.75a10.654 10.654 0 0 1 -.22 2.17c-2.14 10.51-3.83 32.35 12.97 50.5 0 0-8.59 11.04-6.86 22.77-13.2-2.53-16.45 12.34-16.45 12.34-29.47-24.34-25.92-47.08-22.49-56.65.01-.01.01-.01.01-.02v-.01a8.35 8.35 0 0 0 .38-1.36c1.99-6.75 11.57-35.87 29.44-37.31h.01a7.6 7.6 0 0 0 .93 1.34 9.482 9.482 0 0 1 2.28 6.23z" fill="#7d9947"/><path d="m60.17 204.49s-10.32 27.57-4.66 37.69c-17.87 1.44-27.45 30.56-29.44 37.31a9.984 9.984 0 0 0 -1.41-7.61c-18.41-27.71 2.15-65.54 2.15-65.54s15.7-10.82 25.99-8.49a9.98 9.98 0 0 1 7.37 6.64z" fill="#a5c677"/><path d="m454.45 300.23c1 1.74 1.4 3.36.7 4.55-2.79 4.77-13.79 3.69-23.04 4.59a27.936 27.936 0 0 1 -12.18-1.42 1.689 1.689 0 0 1 -.38-2.97l13.36-9.31c7.15-4.99 17.24-3.01 21.54 4.56z" fill="#4c473e"/><path d="m452.28 242.06c1.58 1.25 2.56 2.59 2.37 3.96-.79 5.47-11.38 8.6-19.61 12.9a27.909 27.909 0 0 1 -11.82 3.25 1.684 1.684 0 0 1 -1.48-2.6l8.86-13.64c4.74-7.3 14.84-9.26 21.68-3.87z" fill="#4c473e"/><path d="m434.43 341.73c8.72.23 15.65 7.81 14.59 16.44-.24 1.99-.88 3.52-2.16 4.07-5.09 2.18-13.28-5.2-21.25-9.97a27.789 27.789 0 0 1 -8.94-8.36 1.69 1.69 0 0 1 1.46-2.62z" fill="#4c473e"/><path d="m341.49 341.29a1.694 1.694 0 0 1 1.47 2.62 27.789 27.789 0 0 1 -8.94 8.36c-7.97 4.77-16.16 12.15-21.26 9.97-1.27-.55-1.91-2.08-2.16-4.07-1.06-8.63 5.87-16.21 14.6-16.44z" fill="#4c473e"/><path d="m340.08 304.98a1.687 1.687 0 0 1 -.39 2.97 27.863 27.863 0 0 1 -12.17 1.42c-9.26-.9-20.25.18-23.04-4.59-.7-1.19-.3-2.81.69-4.55 4.31-7.57 14.4-9.55 21.55-4.56z" fill="#4c473e"/><path d="m337.88 259.57a1.677 1.677 0 0 1 -1.47 2.6 27.874 27.874 0 0 1 -11.82-3.25c-8.24-4.3-18.83-7.43-19.61-12.9-.2-1.37.78-2.71 2.37-3.96 6.84-5.39 16.94-3.43 21.68 3.87z" fill="#4c473e"/><path d="m167.67 416.14c-8.665.954-16.346-2.029-20.8-8.608a10.82 10.82 0 0 1 -2.539 5.188 117.588 117.588 0 0 0 21.35 11.09 25.772 25.772 0 0 0 24.1-2.546 113.028 113.028 0 0 1 -15.446-8.544 10.3 10.3 0 0 1 -6.665 3.42z" fill="#617535"/><path d="m144.27 402.25-.02-.07a14.324 14.324 0 0 1 -16.39-4.81c-.723-.951-1.4-1.9-2.046-2.827a44.913 44.913 0 0 1 -9.9 6.907 15.211 15.211 0 0 1 -1.66.73l.02.07c3.46 10.23 12.68 15.07 23.4 13.89a10.3 10.3 0 0 0 6.66-3.42 10.82 10.82 0 0 0 2.539-5.188 21.878 21.878 0 0 1 -2.603-5.282z" fill="#809959"/><path d="m123.81 123.2a50.418 50.418 0 0 1 20.562-11.944c-14.4-3.663-36.814-4.472-55.072 16.644 11.022-4.88 23.044-5.808 34.51-4.7z" fill="#788c51"/><path d="m125.814 394.543a83.629 83.629 0 0 1 -7.554-13.283c-12.484-1.319-21.1-6.661-27.041-13.181-1.907 3.991-3.535 8.872-2.959 13.181a84.608 84.608 0 0 0 9.6 16.11 14.324 14.324 0 0 0 16.39 4.81 15.211 15.211 0 0 0 1.66-.73 44.913 44.913 0 0 0 9.904-6.907z" fill="#667a3b"/><path d="m79.73 151.62a45.192 45.192 0 0 1 5.327 2.216c.761-.479 1.5-.936 2.213-1.356 1.021-.607 2.017-1.251 3-1.918 1.547-15.825 24.425-23.988 32.541-26.4.333-.327.667-.652 1-.966-11.466-1.108-23.488-.18-34.51 4.7l-.01.01a53.385 53.385 0 0 0 -18.241 13.294 58.549 58.549 0 0 1 -8.57 7.79 47.712 47.712 0 0 1 17.25 2.63z" fill="#6b844a"/><path d="m91.219 368.079a49.529 49.529 0 0 1 -9.405-15.585c-3.7-4.642-7.615-10.9-12.894-17.514a20.3 20.3 0 0 1 -4.3-9.79c-13.2-2.53-16.45 12.34-16.45 12.34s2.81 39.79 40.09 43.73c-.576-4.309 1.052-9.19 2.959-13.181z" fill="#7d935a"/><path d="m52.8 197.85c-6.63-27.79 26.93-46.23 26.93-46.23a47.712 47.712 0 0 0 -17.25-2.63 56.984 56.984 0 0 1 -5.21 3.49c-13.25 7.86-36.84 26.13-30.46 53.86 0 0 15.7-10.82 25.99-8.49z" fill="#6a7f45"/><path d="m64.62 325.19c-.081-.552-.133-1.1-.171-1.65-14.349-18.728-11.529-34.959-8.769-42.66.01-.01.01-.01.01-.02v-.01a8.35 8.35 0 0 0 .38-1.36 9.984 9.984 0 0 0 -1.41-7.61c-5.6-8.423-7.588-17.781-7.654-26.727-12.439 7.861-19.289 28.747-20.936 34.337a8.35 8.35 0 0 1 -.38 1.36v.01c0 .01 0 .01-.01.02-3.43 9.57-6.98 32.31 22.49 56.65 0 0 3.25-14.87 16.45-12.34z" fill="#667a39"/><path d="m47.006 245.153c-.152-20.486 9.8-38.813 9.8-38.813a41.619 41.619 0 0 1 -1.019-7.3 10.263 10.263 0 0 0 -2.987-1.19c-10.29-2.33-25.99 8.49-25.99 8.49s-20.56 37.83-2.15 65.54a9.984 9.984 0 0 1 1.41 7.61c1.647-5.59 8.497-26.476 20.936-34.337z" fill="#89a064"/><path d="m358.14 415.79a3.84 3.84 0 0 0 -2.68-1.42c-10.35-1.03-14.35-11.38-15.64-16.09a3.854 3.854 0 0 0 -2.74-2.74 22.512 22.512 0 0 1 -13.88-10.42 35.209 35.209 0 0 1 -4.71-12.96c-8.81-2.12-12.47-15.53-13.95-24.61a82.577 82.577 0 0 1 -.96-8.46 22.63 22.63 0 0 1 -8.08-11.11l-.01-.01c-3.95-10.83-1.94-23.58-1.94-23.58-13.76-21.15.71-53.68.71-53.68-4.65-17.89 14.91-31.44 14.91-31.44 3.02-3.16 5.5-6.24 7.88-8.96 5.32-6.11 10.12-10.46 19.23-9.98.83.04 1.7.13 2.6.25a6.125 6.125 0 0 0 6.9-5.01c.41-2.47 1.94-4.95 5.96-6.21.832-.261 1.652-.5 2.466-.721a52.963 52.963 0 0 0 -27.336-.669q-2.5.57-5.13 1.39c-4.02 1.26-5.55 3.74-5.96 6.21a6.125 6.125 0 0 1 -6.9 5.01c-.9-.12-1.77-.21-2.6-.25-9.11-.48-13.91 3.87-19.23 9.98-2.38 2.72-4.86 5.8-7.88 8.96 0 0-19.56 13.55-14.91 31.44 0 0-14.47 32.53-.71 53.68 0 0-2.01 12.75 1.94 23.58l.01.01a22.63 22.63 0 0 0 8.08 11.11 82.577 82.577 0 0 0 .96 8.46c1.48 9.08 5.14 22.49 13.95 24.61a35.209 35.209 0 0 0 4.71 12.96 22.512 22.512 0 0 0 13.88 10.42 3.854 3.854 0 0 1 2.74 2.74c1.29 4.71 5.29 15.06 15.64 16.09a3.84 3.84 0 0 1 2.68 1.42c3.62 4.63 17.06 19.29 36.89 11.89a9.242 9.242 0 0 1 6.14-.15 41.313 41.313 0 0 0 11.743 2.171c-13.148-.585-21.949-10.301-24.773-13.911z" fill="#ada67f"/><g fill="#8c8668"><path d="m350.885 292.326a5.972 5.972 0 0 1 -3.656-1.246c-8.264-6.363-22.236-11.461-40.4-14.742a214.741 214.741 0 0 0 -25.643-3.062 6 6 0 1 1 .52-11.988c2.012.087 49.548 2.344 72.848 20.284a6 6 0 0 1 -3.665 10.754z"/><path d="m293.13 339.725a6 6 0 0 1 -2.029-11.648c3.9-1.4 38.615-13.578 56.714-9.972a6 6 0 0 1 -2.345 11.77c-12.58-2.514-40.583 6-50.313 9.5a6 6 0 0 1 -2.027.35z"/><path d="m330.086 398.548a6.008 6.008 0 0 1 -5.94-6.9c.132-.872 3.415-21.46 19.218-31.764a6 6 0 1 1 6.554 10.052c-11.167 7.281-13.883 23.349-13.907 23.509a6 6 0 0 1 -5.925 5.103z"/><path d="m347.83 240.726a6 6 0 0 1 -5.829-4.6c-3.551-14.753-22.721-17.561-22.914-17.588a6 6 0 0 1 1.578-11.9 50.138 50.138 0 0 1 14.118 4.476c10.046 4.932 16.576 12.608 18.885 22.2a6.005 6.005 0 0 1 -5.838 7.406z"/><path d="m418.827 234.912a6 6 0 0 1 -3.749-10.687c.665-.532 16.456-13.016 31.5-13.551a6 6 0 1 1 .422 11.992c-9.228.328-20.765 8-24.432 10.934a5.978 5.978 0 0 1 -3.741 1.312z"/><path d="m412.774 292.322a6 6 0 0 1 -3.549-10.841c1.328-.97 32.885-23.663 65.475-15.545a6 6 0 0 1 -2.9 11.645c-27.082-6.751-55.22 13.39-55.5 13.595a5.987 5.987 0 0 1 -3.526 1.146z"/><path d="m464.267 334.578a5.972 5.972 0 0 1 -2.743-.667c-20.641-10.631-46.552-1.946-46.812-1.857a6 6 0 0 1 -3.894-11.352c1.257-.431 31.061-10.407 56.2 2.541a6 6 0 0 1 -2.752 11.335z"/><path d="m424.271 387.5a6 6 0 0 1 -5.3-3.17c-4.73-8.838-14.088-14.113-14.182-14.165a6 6 0 0 1 5.784-10.514c.508.279 12.529 6.966 18.978 19.017a6 6 0 0 1 -5.284 8.832z"/></g></svg>