<svg id="Layer_1" height="512" viewBox="0 0 512 512" width="512" xmlns="http://www.w3.org/2000/svg" data-name="Layer 1"><path d="m217.7 366.56c-4.51 23.65-14.46 45.66-26.69 64.31 16.95-.64 39.96-2.52 64.75-12.81z" fill="#6d6f9b"/><path d="m304.29 169.27a152.2 152.2 0 0 1 -23.31 18.69q-4.485 2.94-8.81 5.99l-.01-.01c-14.27-28.31-36.33-58.83-53.26-76.45 7.66 4.71 17.87 9.79 32.1 16.01 18.57 8.1 38.91 18.39 53.29 35.77z" fill="#635877"/><path d="m272.16 193.94c-14.27-28.31-36.33-58.83-53.26-76.45l-.01-.01c-13.43-8.25-19.04-15.36-24.77-25.42a8.12 8.12 0 0 1 -4.29 4.64 40.78 40.78 0 0 0 -9.63 6.02c5.56 9.94 30.39 72.14 39.44 144.54l1.1.6 51.43-53.91z" fill="#6d6f9b"/><path d="m219.64 247.26c-9.05-72.4-33.88-134.6-39.44-144.54a28.7 28.7 0 0 0 -2.4 2.29 8.8 8.8 0 0 1 -12.37.58c-8.59 19.58-80.5 181.34-21.77 322.09a255.065 255.065 0 0 0 47.35 3.19c12.23-18.65 22.18-40.66 26.69-64.31l3.04-118.7z" fill="#635877"/><path d="m194.12 92.06a8.12 8.12 0 0 1 -4.29 4.64 40.78 40.78 0 0 0 -9.63 6.02 28.7 28.7 0 0 0 -2.4 2.29 8.8 8.8 0 0 1 -12.37.58 37.813 37.813 0 0 0 -12.68-7.11 7.979 7.979 0 0 1 -2.11-1.1 8.213 8.213 0 0 1 -2.43-10.48l11.67-22.08a11.236 11.236 0 0 1 19.23-1.03l14.08 20.87a8.2 8.2 0 0 1 .93 7.4z" fill="#433165"/><path d="m152.75 98.48a37.813 37.813 0 0 1 12.68 7.11c-8.59 19.58-80.5 181.34-21.77 322.09-14.79-2.36-31.25-6.38-46.56-13.17-74.16-99.94-28.67-222.5 23.69-283.39 17.27-12.15 24.23-24.82 29.85-33.74a7.979 7.979 0 0 0 2.11 1.1z" fill="#6d6f9b"/><path d="m94.87 145.04a132.119 132.119 0 0 0 25.92-13.92c-52.36 60.89-97.85 183.45-23.69 283.39a122.954 122.954 0 0 1 -17.19-9.24c-101-65.68-68.79-225.7 14.96-260.23z" fill="#635877"/><path d="m255.76 418.06a143.531 143.531 0 0 1 -50.04-109.03c0-23.85 5.47-43.87 15.02-61.17 11.81-21.45 29.86-38.72 51.43-53.91q4.32-3.06 8.81-5.99a152.2 152.2 0 0 0 23.31-18.69c10-9.82 18.48-21.18 23.79-33.63l4.59-10.74a9.593 9.593 0 0 1 17.44-.43 120.594 120.594 0 0 0 56.19 55.49c52.03 25.16 88.7 69.26 88.7 129.07 0 79.6-64.76 144.12-144.64 144.12a144.43 144.43 0 0 1 -94.6-35.09z" fill="#f7e8a9"/><path d="m349.32 196.26c64.81 0 117.35 52.35 117.35 116.93s-52.54 116.92-117.35 116.92-117.35-52.34-117.35-116.92 52.54-116.93 117.35-116.93z" fill="#d85269"/><g fill="#ad2a34"><path d="m424.69 319.14c9.46-3.73 29.8-9.8 26.48 8.44-2.66 14.6-19.53 3.03-27.27-3.16a3.084 3.084 0 0 1 .79-5.28z"/><path d="m446.79 281.85c4.23 14.22-16.06 11.48-25.77 9.43a3.079 3.079 0 0 1 -1.68-5.06c6.75-7.58 22.16-22.15 27.45-4.37z"/><path d="m412.21 352.28c10.14.96 31.03 4.74 19.76 19.49-9.02 11.8-18.79-6.13-22.86-15.14a3.091 3.091 0 0 1 3.1-4.35z"/><path d="m425.8 245.15c9.71 11.24-9.92 17.03-19.62 19.13a3.093 3.093 0 0 1 -3.62-3.93c3.04-9.68 11.1-29.26 23.24-15.2z"/><path d="m375.8 308.79c8.85-5 28.15-13.83 27.39 4.7-.6 14.82-18.92 5.7-27.44.64a3.083 3.083 0 0 1 .05-5.34z"/><path d="m385.43 376.88c8.43 5.67 24.96 18.96 7.98 26.53-13.6 6.06-13.55-14.34-12.79-24.2a3.091 3.091 0 0 1 4.81-2.33z"/><path d="m392.58 220.71c13.42 6.44-2.26 19.57-10.31 25.35a3.09 3.09 0 0 1 -4.89-2.16c-1.09-10.08-1.57-31.23 15.2-23.19z"/><path d="m389.31 275.66c10.09 10.9-9.33 17.36-18.95 19.78a3.094 3.094 0 0 1 -3.76-3.8c2.72-9.77 10.09-29.61 22.71-15.98z"/><path d="m370.12 327.4c9.81 2.7 29.72 10.05 16.04 22.62-10.94 10.06-17.42-9.3-19.85-18.88a3.086 3.086 0 0 1 3.81-3.74z"/><path d="m354.09 385.6c5.17 8.74 14.34 27.82-4.26 27.37-14.89-.36-6.03-18.76-1.09-27.33a3.1 3.1 0 0 1 5.35-.04z"/><path d="m352.64 258.69c14.88.6 5.73 18.85.64 27.34a3.1 3.1 0 0 1 -5.35-.04c-5.02-8.82-13.88-28.05 4.71-27.3z"/><path d="m352.91 336.56c5.01 8.82 13.88 28.05-4.72 27.3-14.87-.6-5.72-18.86-.64-27.35a3.108 3.108 0 0 1 5.36.05z"/><path d="m351.01 211.54c14.89.36 6.03 18.75 1.08 27.32a3.1 3.1 0 0 1 -5.35.05c-5.16-8.74-14.33-27.82 4.27-27.37z"/><path d="m334.53 291.4a3.089 3.089 0 0 1 -3.82 3.74c-9.8-2.7-29.72-10.05-16.04-22.62 10.95-10.05 17.43 9.3 19.86 18.88z"/><path d="m330.48 327.1a3.094 3.094 0 0 1 3.75 3.81c-2.71 9.77-10.09 29.61-22.7 15.98-10.1-10.91 9.33-17.37 18.95-19.79z"/><path d="m325.08 308.42a3.075 3.075 0 0 1 -.04 5.33c-8.85 5-28.15 13.83-27.4-4.69.61-14.83 18.92-5.71 27.44-.64z"/></g><path d="m99.039 160.852a245.348 245.348 0 0 1 21.751-29.732 132.119 132.119 0 0 1 -25.92 13.92c-83.75 34.53-115.96 194.55-14.96 260.23a122.954 122.954 0 0 0 17.19 9.24 197.379 197.379 0 0 1 -26.391-48.084c-43.256-65.784-23.424-162.294 28.33-205.574z" fill="#4c455b"/><path d="m261.97 313.19c0-59.516 44.623-108.644 102.35-115.983a118.981 118.981 0 0 0 -15-.947c-64.81 0-117.35 52.35-117.35 116.93s52.54 116.92 117.35 116.92a118.794 118.794 0 0 0 15-.947c-57.727-7.337-102.35-56.457-102.35-115.973z" fill="#aa4359"/><path d="m323.46 380.6c1.09 10.08 1.56 31.24-15.2 23.19-13.42-6.43 2.25-19.56 10.3-25.34a3.1 3.1 0 0 1 4.9 2.15z" fill="#ad2a34"/><path d="m307.43 221.1c13.59-6.06 13.55 14.34 12.79 24.2a3.1 3.1 0 0 1 -4.81 2.33c-8.44-5.67-24.97-18.96-7.98-26.53z" fill="#ad2a34"/><path d="m294.66 360.23a3.09 3.09 0 0 1 3.62 3.93c-3.05 9.68-11.1 29.25-23.24 15.2-9.71-11.24 9.92-17.04 19.62-19.13z" fill="#ad2a34"/><path d="m291.73 267.88a3.093 3.093 0 0 1 -3.11 4.35c-10.13-.96-31.02-4.74-19.75-19.49 9.02-11.81 18.79 6.13 22.86 15.14z" fill="#ad2a34"/><path d="m279.81 333.23a3.077 3.077 0 0 1 1.69 5.06c-6.76 7.58-22.16 22.15-27.45 4.37-4.23-14.22 16.06-11.48 25.76-9.43z" fill="#ad2a34"/><path d="m276.93 298.13a3.078 3.078 0 0 1 -.78 5.27c-9.47 3.73-29.81 9.81-26.48-8.44 2.66-14.59 19.53-3.03 27.26 3.17z" fill="#ad2a34"/></svg>